<svg width="34" height="55" viewBox="0 0 34 55" fill="none" xmlns="http://www.w3.org/2000/svg">
<path d="M34 17.069C34 7.64221 26.3887 0 17 0C7.61131 0 0 7.64221 0 17.069C0 26.4958 7.61131 34.138 17 34.138C26.3887 34.138 34 26.4959 34 17.069Z" transform="translate(0 4.74121)" fill="#F3A240"/>
<path d="M11.3224 2.15612C10.8869 2.15612 10.495 1.85168 10.3996 1.40599C10.291 0.89391 10.615 0.390424 11.1258 0.280424C11.7652 0.142924 12.4225 0.0490368 13.0808 0.00166378C13.6059 -0.0286292 14.0535 0.358197 14.0904 0.87973C14.1282 1.40223 13.7363 1.85641 13.2159 1.89347C12.6455 1.93515 12.075 2.01582 11.5206 2.13528C11.4546 2.14946 11.3875 2.15612 11.3224 2.15612ZM18.5908 2.65208C18.484 2.65208 18.3744 2.63307 18.2687 2.59429C17.7351 2.40082 17.1808 2.24248 16.6226 2.124C16.1117 2.01679 15.7849 1.51427 15.8925 1.00122C16.0002 0.489144 16.5017 0.159145 17.0108 0.268178C17.6558 0.404711 18.2953 0.587757 18.9129 0.812484C19.4031 0.990804 19.6561 1.53414 19.4787 2.02624C19.3388 2.41221 18.9761 2.65208 18.5908 2.65208ZM6.31213 4.41305C6.02123 4.41305 5.73418 4.27834 5.54899 4.02429C5.24108 3.60137 5.33266 3.00872 5.75397 2.69956C6.28474 2.3108 6.84674 1.95513 7.42469 1.64414C7.88559 1.39761 8.45787 1.5711 8.70351 2.03194C8.95001 2.49278 8.77723 3.06845 8.31729 3.31595C7.81669 3.58526 7.32851 3.89345 6.86846 4.23108C6.70028 4.35429 6.50567 4.41305 6.31213 4.41305ZM23.2545 5.57084C23.0193 5.57084 22.7832 5.48265 22.5999 5.3053C22.19 4.90988 21.7481 4.53906 21.2862 4.2025C20.864 3.89431 20.7696 3.30166 21.0756 2.87778C21.3825 2.45389 21.9737 2.36097 22.3949 2.66723C22.9276 3.05416 23.4367 3.48278 23.9089 3.93889C24.2857 4.30208 24.2971 4.90236 23.9353 5.27876C23.7502 5.4732 23.5019 5.57084 23.2545 5.57084ZM2.63818 8.51721C2.47759 8.51721 2.31518 8.47736 2.16593 8.39013C1.71444 8.12845 1.5606 7.54902 1.82122 7.09484C2.14892 6.52582 2.52006 5.97303 2.92522 5.4515C3.24726 5.039 3.83943 4.96498 4.25123 5.2865C4.66206 5.60887 4.73577 6.20538 4.4146 6.61788C4.06229 7.07121 3.74025 7.55009 3.45599 8.04316C3.28138 8.34748 2.96406 8.51721 2.63818 8.51721ZM26.3428 10.1321C25.9707 10.1321 25.6183 9.90929 25.4682 9.54223C25.2529 9.01307 24.9989 8.4953 24.7127 8.00126C24.4492 7.54891 24.6022 6.96862 25.0527 6.705C25.5023 6.44139 26.0812 6.59404 26.3437 7.04639C26.6743 7.61626 26.968 8.21374 27.2173 8.82444C27.4147 9.30902 27.1823 9.86278 26.6997 10.061C26.5826 10.1083 26.4617 10.1321 26.3428 10.1321ZM0.94574 13.765C0.913643 13.765 0.880585 13.7631 0.848488 13.7593C0.329064 13.7062 -0.0487095 13.2406 0.00510518 12.72C0.0721864 12.061 0.186449 11.4028 0.344149 10.7647C0.470715 10.2564 0.982544 9.94538 1.48881 10.0734C1.99593 10.1995 2.30384 10.7136 2.17824 11.2227C2.04129 11.7747 1.94211 12.3436 1.88359 12.9136C1.83448 13.4008 1.42365 13.765 0.94574 13.765ZM27.3127 15.56H27.2844C26.763 15.5449 26.3531 15.1077 26.3682 14.5833C26.372 14.4525 26.3749 14.3216 26.3749 14.1898C26.3749 13.7489 26.3512 13.3022 26.304 12.8641C26.2483 12.3436 26.6233 11.8761 27.1417 11.8201C27.6489 11.7632 28.1258 12.1397 28.1825 12.6612C28.2363 13.1676 28.2637 13.6825 28.2628 14.1908C28.2628 14.3407 28.2608 14.4905 28.2561 14.6403C28.241 15.1542 27.8218 15.56 27.3127 15.56ZM1.52379 19.2507C1.12526 19.2507 0.755943 18.9956 0.625632 18.5954C0.421607 17.9677 0.260163 17.32 0.1459 16.6714C0.0552817 16.1556 0.39807 15.6643 0.911824 15.5724C1.42558 15.4842 1.91483 15.8265 2.00641 16.3414C2.10463 16.9037 2.24446 17.4642 2.42099 18.0075C2.5834 18.5053 2.31143 19.0411 1.81651 19.2033C1.71926 19.2355 1.62008 19.2507 1.52379 19.2507ZM25.999 20.9168C25.8611 20.9168 25.7204 20.8855 25.5872 20.822C25.1179 20.5925 24.9223 20.0254 25.15 19.5542C25.3984 19.0393 25.6136 18.5025 25.7875 17.9592C25.9471 17.4604 26.4807 17.1854 26.9766 17.3475C27.4733 17.5078 27.7454 18.0426 27.5857 18.5404C27.3846 19.1682 27.1371 19.7874 26.849 20.382C26.6865 20.7196 26.3494 20.9168 25.999 20.9168ZM4.27969 24.0215C4.02185 24.0215 3.76497 23.9162 3.57795 23.7086C3.13877 23.2193 2.7289 22.6949 2.36054 22.1487C2.06772 21.7154 2.18016 21.1255 2.61175 20.8315C3.04334 20.5375 3.63081 20.6514 3.92363 21.0847C4.24384 21.5579 4.59894 22.014 4.98045 22.4379C5.32988 22.8267 5.2997 23.4269 4.91155 23.7778C4.73106 23.9408 4.50447 24.0215 4.27969 24.0215ZM22.6283 25.2732C22.36 25.2732 22.0938 25.1594 21.9067 24.9375C21.5696 24.5383 21.6187 23.9399 22.0173 23.6014C22.4536 23.2306 22.8663 22.8276 23.245 22.4028C23.5917 22.0121 24.1904 21.9789 24.5786 22.3279C24.9668 22.6769 25.0008 23.2762 24.6532 23.6669C24.2169 24.1572 23.7409 24.6218 23.2374 25.0495C23.0608 25.2002 22.8436 25.2732 22.6283 25.2732ZM8.72234 27.2675C8.59299 27.2675 8.46258 27.241 8.33794 27.185C7.74009 26.9176 7.15262 26.6037 6.5935 26.2519C6.15154 25.9732 6.01738 25.388 6.29415 24.9443C6.57082 24.5005 7.15358 24.3668 7.59651 24.6437C8.08106 24.949 8.58914 25.2212 9.10664 25.4536C9.58359 25.6659 9.79703 26.2273 9.58456 26.7052C9.42878 27.0579 9.0831 27.2675 8.72234 27.2675ZM17.7889 27.8876C17.38 27.8876 17.0031 27.6183 16.8831 27.2039C16.7368 26.7013 17.0248 26.175 17.5254 26.0281C18.0712 25.8687 18.6106 25.6678 19.1309 25.4325C19.605 25.2182 20.1651 25.4287 20.3795 25.9076C20.5939 26.3846 20.3823 26.9469 19.9072 27.1622C19.3075 27.4335 18.6842 27.6648 18.0533 27.8487C17.9655 27.8753 17.8767 27.8876 17.7889 27.8876ZM14.15 28.4139H14.0972C13.4379 28.4139 12.7749 28.3683 12.128 28.2764C11.6104 28.2043 11.2506 27.7254 11.3224 27.2067C11.3951 26.6879 11.8729 26.3191 12.3886 26.3988C12.9505 26.4775 13.5248 26.5173 14.0971 26.5173C14.6184 26.5173 15.068 26.9421 15.068 27.4656C15.068 27.989 14.6714 28.4139 14.15 28.4139Z" transform="translate(2.90234 7.62061)" fill="#B17208"/>
<path d="M10.3888 4.74139C14.3054 4.74139 17.9028 6.08513 20.7776 8.32015V0H0V8.32015C2.87486 6.08513 6.47221 4.74139 10.3888 4.74139Z" transform="translate(6.61133)" fill="#F0C419"/>
<path d="M10.3888 3.57876C6.47221 3.57876 2.87486 2.23502 0 0V19.6995L10.3888 9.26847L20.7776 19.6995V0C17.9028 2.23502 14.3054 3.57876 10.3888 3.57876Z" transform="translate(6.61133 35.3005)" fill="#F0C419"/>
<path d="M4.72222 17.0691C2.11835 17.0691 0 14.9422 0 12.3277C0 11.8043 0.423136 11.3794 0.944486 11.3794C1.46584 11.3794 1.88897 11.8043 1.88897 12.3277C1.88897 13.8962 3.1602 15.1726 4.72232 15.1726C6.28445 15.1726 7.55568 13.8962 7.55568 12.3277C7.55568 10.7593 6.28445 9.48288 4.72232 9.48288C4.20097 9.48288 3.77784 9.05803 3.77784 8.53456C3.77784 8.01109 4.20097 7.58624 4.72232 7.58624C6.28445 7.58624 7.55568 6.30985 7.55568 4.74139C7.55568 3.17292 6.28445 1.89653 4.72232 1.89653C3.1602 1.89653 1.88897 3.17292 1.88897 4.74139C1.88897 5.26485 1.46584 5.68971 0.944486 5.68971C0.423136 5.68971 0 5.26485 0 4.74139C0 2.12695 2.11835 0 4.72222 0C7.32608 0 9.44443 2.12695 9.44443 4.74139C9.44443 6.29084 8.70023 7.66874 7.55268 8.53445C8.70023 9.40027 9.44443 10.7781 9.44443 12.3275C9.44443 14.9421 7.32608 17.0691 4.72222 17.0691Z" transform="translate(12.2773 13.2759)" fill="#B17208"/>
</svg>
