<svg width="558" height="470" viewBox="0 0 558 470" fill="none" xmlns="http://www.w3.org/2000/svg">
<path d="M-0.921833 74.4488L-1 74.6347V74.8364V92.4636V93.4636H0H29.8497V117.536V118.536H30.8497H48.3418H49.3418V117.536V93.4636H59.5367H60.5367V92.4636V74.8364V73.8364H59.5367H49.3418V1.46364V0.463636H48.3418H30.8497H30.1853L29.9279 1.07605L-0.921833 74.4488ZM122.001 111.694L122.004 111.692C127.623 106.114 130.441 99.303 130.441 91.3182V27.7455C130.441 19.846 127.645 13.0604 122.076 7.44362C116.542 1.81979 109.754 -1 101.772 -1C93.8747 -1 87.0913 1.7987 81.4765 7.3721C75.8575 12.9497 73.0392 19.7606 73.0392 27.7455V91.3182C73.0392 99.2188 75.8365 106.005 81.4074 111.622L81.4101 111.625C86.9859 117.203 93.793 120 101.772 120C109.626 120 116.387 117.223 122.001 111.694ZM107.609 20.9993L107.616 21.007L107.624 21.0145C109.428 22.7804 110.313 24.8784 110.313 27.3636V91.0636C110.313 93.5495 109.427 95.6728 107.616 97.484C105.856 99.2449 103.737 100.118 101.2 100.118C98.7108 100.118 96.6129 99.2493 94.8504 97.4878C93.0827 95.6791 92.2133 93.5547 92.2133 91.0636V27.3636C92.2133 24.8714 93.0832 22.7711 94.8465 21.007L94.8541 20.9993C96.6191 19.1951 98.716 18.3091 101.2 18.3091C103.73 18.3091 105.847 19.1984 107.609 20.9993ZM140.541 74.4488L140.463 74.6347V74.8364V92.4636V93.4636H141.463H171.313V117.536V118.536H172.313H189.805H190.805V117.536V93.4636H201H202V92.4636V74.8364V73.8364H201H190.805V1.46364V0.463636H189.805H172.313H171.649L171.391 1.07605L140.541 74.4488ZM29.8497 73.8364H17.888L29.8497 43.9451V73.8364ZM159.351 73.8364L171.313 43.9451V73.8364H159.351Z" transform="translate(163 225)" stroke="#1AEEC2" stroke-width="2"/>
<path fill-rule="evenodd" clip-rule="evenodd" d="M4.9 -3.05176e-06L5.4 3.1L8.4 4L5.6 5.40001L5.7 8.6L3.5 6.3L0.5 7.40001L2 4.6L0 2.1L3.2 2.6L4.9 -3.05176e-06Z" transform="translate(99 134.2)" fill="#FEFEFE"/>
<path fill-rule="evenodd" clip-rule="evenodd" d="M5.6 -6.10352e-06L6.1 3.6L9.6 4.49999L6.4 6.20001L6.6 9.8L4.1 7.20001L0.7 8.6L2.3 5.3L3.05176e-06 2.49999L3.6 2.99999L5.6 -6.10352e-06Z" transform="translate(122.3 231.4)" fill="#FEFEFE"/>
<path fill-rule="evenodd" clip-rule="evenodd" d="M4.9 7.62939e-07L6.29999 3.4L9.9 3.6L7.10001 5.9L8.00001 9.4L4.9 7.4L1.9 9.4L2.79999 5.9L6.10352e-06 3.6L3.60001 3.4L4.9 7.62939e-07Z" transform="translate(396.6 25.2)" fill="#FEFEFE"/>
<path fill-rule="evenodd" clip-rule="evenodd" d="M1.70001 6.10352e-06L2.8 1.29999L4.49999 0.799994L3.6 2.29999L4.6 3.79999L2.8 3.4L1.8 4.79999L1.70001 3.00001L1.52588e-06 2.4L1.6 1.69999L1.70001 6.10352e-06Z" transform="translate(144 276)" fill="#FEFEFE"/>
<path fill-rule="evenodd" clip-rule="evenodd" d="M1.3 6.10352e-06L1.6 0.799994L2.6 0.9L1.9 1.50001L2.1 2.4L1.3 1.9L0.5 2.4L0.7 1.50001L0 0.9L1 0.799994L1.3 6.10352e-06Z" transform="translate(52 267.1)" fill="#FEFEFE"/>
<path fill-rule="evenodd" clip-rule="evenodd" d="M2.3 3.05176e-06L2.90001 1.59999L4.69999 1.7L3.3 2.80001L3.8 4.5L2.3 3.5L0.900006 4.5L1.3 2.80001L1.2207e-05 1.7L1.69999 1.59999L2.3 3.05176e-06Z" transform="translate(425.7 242.8)" fill="#FEFEFE"/>
<path fill-rule="evenodd" clip-rule="evenodd" d="M2.40001 0L3.00001 1.6L4.69999 1.7L3.40001 2.8L3.8 4.4L2.40001 3.5L0.900006 4.4L1.3 2.8L1.2207e-05 1.7L1.69999 1.6L2.40001 0Z" transform="translate(464.7 83)" fill="#FEFEFE"/>
<path fill-rule="evenodd" clip-rule="evenodd" d="M2.40001 1.2207e-05L3.00001 1.59999L4.69999 1.69999L3.40001 2.8L3.90001 4.40001L2.40001 3.50001L0.900006 4.40001L1.40001 2.8L1.2207e-05 1.69999L1.8 1.59999L2.40001 1.2207e-05Z" transform="translate(362 308)" fill="#FEFEFE"/>
<path fill-rule="evenodd" clip-rule="evenodd" d="M2.4 0L3 1.6L4.7 1.7L3.4 2.8L3.9 4.5L2.4 3.5L1 4.5L1.4 2.8L0 1.7L1.8 1.6L2.4 0Z" transform="translate(69.5)" fill="#FEFEFE"/>
<path fill-rule="evenodd" clip-rule="evenodd" d="M5 -1.90735e-07L6.2 3.4L9.9 3.6L6.99999 5.9L7.99999 9.4L5 7.4L1.9 9.4L2.8 5.9L1.52588e-06 3.6L3.6 3.4L5 -1.90735e-07Z" transform="translate(173.4 6.69995)" fill="#FEFEFE"/>
<path fill-rule="evenodd" clip-rule="evenodd" d="M1.79999 -3.05176e-06L4.79999 1.90001L7.79999 -3.05176e-06L6.9 3.40001L9.69999 5.69999L6.10001 5.90001L4.79999 9.19999L3.50001 5.90001L6.10352e-06 5.69999L2.79999 3.5L1.79999 -3.05176e-06Z" transform="translate(432.6 134.2)" fill="#FEFEFE"/>
<path fill-rule="evenodd" clip-rule="evenodd" d="M2.3 1.2207e-05L3.00001 1.59999L4.69999 1.69999L3.3 2.8L3.8 4.40001L2.3 3.50001L0.900006 4.40001L1.3 2.8L1.2207e-05 1.69999L1.69999 1.59999L2.3 1.2207e-05Z" transform="translate(463.7 285.2)" fill="#FEFEFE"/>
<path opacity="0.4" d="M214.12 2.03335e-06L0 305.826H510L262.057 2.03335e-06H214.12Z" transform="translate(55.8631 76.5751) rotate(10.4205)" fill="url(#paint0_linear)"/>
<path opacity="0.8" d="M87.7666 0L0 257.824L217.372 248.351L135.704 0H87.7666Z" transform="translate(180.133 99.4287) rotate(10.4205)" fill="url(#paint1_linear)"/>
<path opacity="0.4" d="M54.5943 17.6282H8.80764C3.95049 17.6282 3.95276e-06 13.6748 3.95276e-06 8.81412C3.95276e-06 3.95339 3.95049 -4.94459e-07 8.80764 -4.94459e-07H54.5943C59.4515 -4.94459e-07 63.402 3.95339 63.402 8.81412C63.402 13.6748 59.4515 17.6282 54.5943 17.6282Z" transform="translate(260.723 96.0035) rotate(10.2276)" fill="#56CCF2"/>
<path d="M110.095 44.3298C114.953 44.3298 118.968 40.9597 120.133 36.4231H126.415C127.452 39.4691 130.301 41.6726 133.733 41.6726C138.008 41.6726 141.44 38.2377 141.44 33.9603V28.7107C141.44 25.3406 139.238 22.4242 136.194 21.3872V18.0171H165.208C166.568 18.0171 167.669 16.9153 167.669 15.5543C167.669 14.1933 166.568 13.0916 165.208 13.0916H141.44V12.9619C141.44 9.59184 139.238 6.6754 136.194 5.63844V2.46277C136.194 1.10177 135.093 0 133.733 0C132.373 0 131.273 1.10177 131.273 2.46277V5.63844C128.229 6.6754 126.027 9.52703 126.027 12.9619V13.1564H102.259C100.899 13.1564 99.7982 14.2581 99.7982 15.6191C99.7982 16.9801 100.899 18.0819 102.259 18.0819H131.273V21.452C128.229 22.489 126.027 25.3406 126.027 28.7755V31.5623H120.133C119.033 27.0256 114.953 23.6555 110.095 23.6555H57.5734C52.7162 23.6555 48.6362 27.0256 47.5353 31.5623H41.6419V28.7755C41.6419 25.4054 39.44 22.489 36.3962 21.452V18.0819H65.4096C66.7696 18.0819 67.8705 16.9801 67.8705 15.6191C67.8705 14.2581 66.7696 13.1564 65.4096 13.1564H41.6419V12.9619C41.6419 9.59184 39.44 6.6754 36.3962 5.63844V2.46277C36.3962 1.10177 35.2953 0 33.9353 0C32.5753 0 31.4743 1.10177 31.4743 2.46277V5.63844C28.4305 6.6754 26.2286 9.52703 26.2286 12.9619V13.1564H2.46095C1.10095 13.1564 3.95276e-06 14.2581 3.95276e-06 15.6191C3.95276e-06 16.9801 1.10095 18.0819 2.46095 18.0819H31.4743V21.452C28.4305 22.489 26.2286 25.3406 26.2286 28.7755V34.0251C26.2286 38.3025 29.661 41.7375 33.9353 41.7375C37.3029 41.7375 40.2172 39.5339 41.2534 36.4879H47.5353C48.6362 41.0245 52.7162 44.3298 57.5734 44.3946L110.095 44.3298ZM66.381 44.3298H101.352H66.381ZM31.1505 12.9619C31.1505 11.4065 32.381 10.1751 33.9353 10.1751C35.4896 10.1751 36.72 11.4065 36.72 12.9619V13.1564H31.1505V12.9619ZM33.9353 36.8119C32.381 36.8119 31.1505 35.5805 31.1505 34.0251V28.7755C31.1505 27.2201 32.381 25.9887 33.9353 25.9887C35.4896 25.9887 36.72 27.2201 36.72 28.7755V34.0251C36.72 35.5157 35.4896 36.8119 33.9353 36.8119ZM110.095 39.4043H57.5734C54.5943 39.4043 52.1334 36.9415 52.1334 33.9603C52.1334 30.979 54.5943 28.5163 57.5734 28.5163H110.095C113.074 28.5163 115.535 30.979 115.535 33.9603C115.535 36.9415 113.074 39.4043 110.095 39.4043ZM136.518 33.9603C136.518 35.5157 135.288 36.7471 133.733 36.7471C132.179 36.7471 130.949 35.5157 130.949 33.9603V28.7107C130.949 27.1553 132.179 25.9239 133.733 25.9239C135.288 25.9239 136.518 27.1553 136.518 28.7107V33.9603ZM130.949 12.9619C130.949 11.4065 132.179 10.1751 133.733 10.1751C135.288 10.1751 136.518 11.4065 136.518 12.9619V13.1564H130.949V12.9619Z" transform="translate(213.883 62) rotate(10.2276)" fill="#1AEEC2"/>
<defs>
<linearGradient id="paint0_linear" x2="1" gradientUnits="userSpaceOnUse" gradientTransform="translate(92.599 196.692) scale(302.188 302.411) rotate(-89.0727)">
<stop stop-color="#1AEEC2" stop-opacity="0"/>
<stop offset="1" stop-color="#1AEEC2"/>
</linearGradient>
<linearGradient id="paint1_linear" x2="1" gradientUnits="userSpaceOnUse" gradientTransform="translate(-41.0014 146.203) scale(317.179 317.413) rotate(-89.9491)">
<stop stop-color="#1AEEC2" stop-opacity="0"/>
<stop offset="1" stop-color="#1AEEC2"/>
</linearGradient>
</defs>
</svg>
