<svg width="57" height="67" viewBox="0 0 57 67" fill="none" xmlns="http://www.w3.org/2000/svg">
<path d="M14.7267 0L0 27.5666L13.3732 26.3391L19.8458 38.0318L34.5725 10.4653L14.7267 0Z" transform="translate(0 28.9655)" fill="#E95454"/>
<path d="M4.24721 25.53C4.66045 24.6481 4.22824 23.5945 3.36382 23.1378L2.51627 22.6896C1.66872 22.2099 1.34614 21.1437 1.80787 20.2806C2.27592 19.4029 3.37647 19.0678 4.25986 19.5328L6.65493 20.7959C7.39496 21.1856 8.32263 20.9028 8.70424 20.1633L8.76327 20.0502C9.20181 19.3527 8.94248 18.431 8.213 18.0477L1.04886 14.2709C0.176012 13.81 -0.251982 12.7606 0.154927 11.8766C0.604003 10.9361 1.73829 10.5653 2.6512 11.0471L9.29668 14.5516C10.0367 14.9412 10.9644 14.6584 11.3565 13.9231L11.3945 13.8268L11.405 13.8058C11.8288 13.035 11.5315 12.0672 10.7493 11.6546L7.02178 9.68971C6.14893 9.22887 5.72094 8.17941 6.13418 7.28496C6.57903 6.3549 7.71754 5.97366 8.63045 6.45545L12.748 8.62768C13.5176 9.03406 14.4368 8.69471 14.8353 7.92385C14.8416 7.91338 14.8416 7.91338 14.8458 7.9029C14.8522 7.89243 14.8522 7.89243 14.8564 7.88195C15.2759 7.12157 15.044 6.17475 14.2724 5.77047L9.83009 3.42857C8.96778 2.97401 8.53979 1.92456 8.9467 1.04058C9.39577 0.100051 10.5301 -0.270715 11.443 0.211072L22.4021 5.99042L7.67537 33.557L3.61682 26.2276C3.87825 26.0516 4.10595 25.8338 4.24721 25.53Z" transform="translate(12.165 33.4409)" fill="#ED6362"/>
<path d="M19.8458 0L34.5725 27.5666L21.1993 26.3391L14.7267 38.0318L0 10.4653L19.8458 0Z" transform="translate(22.4268 28.9659)" fill="#ED6362"/>
<path d="M18.157 25.5279C17.7438 24.646 18.176 23.5924 19.0404 23.1357L19.888 22.6875C20.7355 22.2078 21.0581 21.1416 20.5964 20.2785C20.1283 19.4009 19.0278 19.0657 18.1444 19.5307L15.7493 20.7938C15.0093 21.1835 14.0816 20.9007 13.7 20.1612L13.6409 20.0481C13.2024 19.3506 13.4617 18.4289 14.1912 18.0456L21.3575 14.2667C22.2303 13.8058 22.6583 12.7564 22.2514 11.8724C21.8023 10.9319 20.668 10.5611 19.7551 11.0429L13.1096 14.5474C12.3696 14.937 11.442 14.6542 11.0498 13.919L11.0119 13.8226L11.0013 13.8017C10.5775 13.0308 10.8748 12.063 11.657 11.6504L15.3845 9.68552C16.2574 9.22468 16.6854 8.17522 16.2722 7.28077C15.8273 6.35071 14.6888 5.96947 13.7759 6.45126L9.65408 8.62768C8.88454 9.03406 7.9653 8.69471 7.56682 7.92385C7.5605 7.91338 7.5605 7.91338 7.55628 7.90291C7.54996 7.89243 7.54996 7.89243 7.54574 7.88196C7.12618 7.12157 7.3581 6.17475 8.12975 5.77047L12.572 3.42857C13.4343 2.97401 13.8623 1.92456 13.4554 1.04058C13.0063 0.100051 11.8721 -0.270715 10.9591 0.211072L0 5.99042L14.7267 33.557L18.7853 26.2276C18.526 26.0495 18.2983 25.8317 18.157 25.5279Z" transform="translate(22.4307 33.443)" fill="#E95454"/>
<path d="M24.6064 48.8951C38.1962 48.8951 49.2128 37.9496 49.2128 24.4475C49.2128 10.9455 38.1962 0 24.6064 0C11.0167 0 0 10.9455 0 24.4475C0 37.9496 11.0167 48.8951 24.6064 48.8951Z" transform="translate(3.89453)" fill="#FFCC5B"/>
<path d="M27.8722 19.8077H12.279C11.0667 19.8077 10.0715 18.819 10.0715 17.6145L10.0884 17.4637V17.4302C10.0715 16.1587 11.1152 15.1197 12.397 15.1197H23.2044C24.6359 15.1197 25.9009 14.0661 25.9853 12.6417C26.0527 11.1523 24.8573 9.89548 23.3562 9.89548H11.9079C10.645 9.89548 9.70046 8.84184 9.71733 7.585C9.71733 7.56824 9.71733 7.56824 9.71733 7.55149C9.71733 7.53473 9.71733 7.53473 9.71733 7.51797C9.70046 6.26323 10.6429 5.20749 11.9079 5.20749H23.8875C25.3022 5.20749 26.5672 4.15384 26.6515 2.74619C26.719 1.24008 25.5235 0 24.0224 0H15.2496C6.30393 3.66368 0 12.4029 0 22.6126C0 32.8223 6.30393 41.5594 15.2517 45.2188H26.3901C27.8048 45.2188 29.0698 44.1652 29.1541 42.7575C29.2216 41.2514 28.0261 40.0135 26.525 40.0135L13.8539 40.0114C12.3591 40.0114 11.1552 38.7692 11.2353 37.2652C11.3091 35.8575 12.5826 34.7997 14.0015 34.7997H18.9139C20.3265 34.7599 21.4671 33.6099 21.4671 32.1959C21.4671 30.7569 20.2885 29.5838 18.838 29.5838H11.3913C10.1791 29.5838 9.18392 28.5972 9.20079 27.3906V27.2063C9.11645 26.0186 10.0779 25.0131 11.2733 25.0131H27.7204C29.152 25.0131 30.417 23.9595 30.5013 22.5518C30.5688 21.0478 29.3713 19.8077 27.8722 19.8077Z" transform="translate(3.96582 1.83496)" fill="#FDBC4B"/>
<path d="M17.5646 34.9002C7.87886 34.9002 0 27.0701 0 17.4491C0 7.82799 7.87886 0 17.5646 0C27.2503 0 35.1291 7.83009 35.1291 17.4512C35.1291 27.0722 27.2503 34.9002 17.5646 34.9002Z" transform="translate(10.9355 6.99658)" fill="#FFDB70"/>
<path d="M25.943 12.7201H22.3646C22.3646 12.7201 22.3646 12.7201 22.2528 12.7201C22.2528 12.7201 22.2528 12.7201 22.141 12.7201L18.7863 15.4853L13.7542 12.6095V10.0655L18.7863 10.5079C18.7863 10.5079 18.7863 10.5079 18.8981 10.5079C18.8981 10.5079 18.8981 10.5079 19.0099 10.5079L21.47 9.1806L25.3839 10.9503C25.6075 11.061 25.943 10.9503 26.0548 10.7291C26.1666 10.5079 26.0548 10.1761 25.8311 10.0655L22.3646 8.40633L24.3774 7.18962C24.6011 7.18962 24.7129 6.85779 24.6011 6.63658C24.4893 6.41536 24.1538 6.30475 23.9302 6.41536L19.0099 9.29121L18.339 5.7517L22.3646 4.86682C22.5883 4.86682 22.8119 4.53499 22.7001 4.31377C22.7001 4.09256 22.3646 3.87134 22.141 3.98195L18.7863 4.6456L20.1282 2.43341C20.24 2.21219 20.1282 1.88036 19.9045 1.76975C19.6809 1.65914 19.3454 1.65914 19.2336 1.99097L17.4444 4.97743V5.08804C17.3326 5.19865 17.3326 5.30926 17.3326 5.53048L18.1154 9.62303L13.6424 9.1806V3.87134L16.7735 1.32732C16.9971 1.1061 16.9971 0.884877 16.8853 0.663658C16.6616 0.442438 16.438 0.442438 16.2144 0.553048L13.6424 2.65463V0.442438C13.6424 0.221219 13.4188 0 13.1951 0C12.9715 0 12.7478 0.221219 12.7478 0.442438V5.86231L9.50497 4.75621L10.6232 0.995486C10.735 0.774267 10.5114 0.442438 10.2877 0.442438C9.84044 0.331829 9.61679 0.553048 9.50497 0.774267L8.61038 4.09256L7.15668 1.88036C7.04486 1.65914 6.70939 1.65914 6.48574 1.76975C6.2621 1.88036 6.2621 2.21219 6.37392 2.43341L8.38674 5.41987C8.38674 5.41987 8.38674 5.41987 8.49856 5.41987L12.5242 6.74719V12.6095L10.0641 14.0474L7.93944 9.62303C7.93944 9.62303 7.93944 9.51243 7.82762 9.51243C7.82762 9.51243 7.7158 9.51243 7.7158 9.40182L5.47933 8.0745L4.92022 3.87134C4.92022 3.65012 4.69657 3.4289 4.3611 3.4289C4.13746 3.4289 3.91381 3.65012 3.91381 3.98195L4.47293 7.52145L2.46011 6.41536C2.23646 6.19414 1.90099 6.30475 1.78917 6.52597C1.67735 6.74719 1.78917 7.07901 2.01282 7.18962L6.82121 9.95486L4.13746 12.2777L1.4537 9.29121C1.23005 9.06999 1.00641 9.06999 0.782762 9.29121C0.559116 9.51242 0.559116 9.73364 0.782762 9.95486L3.13105 12.4989H0.447293C0.223646 12.4989 0 12.7201 0 12.9413C0 13.1625 0.223646 13.3838 0.447293 13.3838H3.91381H4.02563C4.13746 13.3838 4.3611 13.3838 4.47293 13.2732L7.60397 10.6185L9.50497 14.6005L4.92022 17.2551L1.4537 15.596C1.23005 15.4853 0.894585 15.596 0.782762 15.8172C0.670939 16.0384 0.782762 16.3702 1.00641 16.4808L3.91381 17.8081L2.12464 18.8036C1.90099 18.9142 1.78917 19.2461 1.90099 19.4673C1.90099 19.7991 2.23646 19.9097 2.46011 19.7991L5.03204 18.2506L7.26851 16.9233L7.7158 20.4628L3.80199 21.1264C3.57834 21.1264 3.35469 21.4583 3.35469 21.6795C3.35469 21.9007 3.69016 22.1219 3.91381 22.1219L7.26851 21.5689L5.92663 23.7811C5.8148 24.0023 5.8148 24.3341 6.15027 24.4447C6.37392 24.5553 6.70939 24.5553 6.82121 24.2235L8.61038 21.1264C8.61038 21.1264 8.61038 21.1264 8.61038 21.0158C8.61038 21.0158 8.61038 21.0158 8.61038 20.9052L8.05127 16.5914L13.0833 13.7156L15.2079 14.9323L12.4124 19.1355C12.4124 19.1355 12.4124 19.1355 12.4124 19.2461V19.3567L12.5242 22.1219L9.1695 24.7765C8.94585 24.9978 8.94585 25.219 9.05768 25.4402C9.1695 25.6614 9.50497 25.6614 9.72861 25.5508L12.5242 23.3386L12.636 25.6614C12.636 25.8826 12.8597 26.1039 13.0833 26.1039C13.307 26.1039 13.5306 25.8826 13.5306 25.6614L13.4188 19.9097L16.7735 21.0158L15.6552 24.8872C15.5434 25.1084 15.7671 25.4402 15.9907 25.4402C16.2144 25.5508 16.5498 25.3296 16.5498 25.1084L17.5562 21.7901L18.8981 24.0023C19.0099 24.2235 19.3454 24.3341 19.5691 24.1129C19.7927 24.0023 19.9045 23.6705 19.6809 23.4492L17.8917 20.5734C17.8917 20.5734 17.8917 20.4628 17.7799 20.4628C17.7799 20.3522 17.6681 20.2416 17.4444 20.1309L13.5306 18.9142L15.9907 15.1535L21.0228 18.0294L21.3582 22.0113C21.3582 22.2325 21.5819 22.4537 21.9173 22.4537C22.141 22.4537 22.3646 22.2325 22.3646 21.9007L22.141 18.5824L23.9302 19.5779C24.1538 19.6885 24.4893 19.5779 24.6011 19.3567C24.7129 19.1355 24.6011 18.8036 24.3774 18.693L21.8055 17.1445L19.5691 15.8172L22.2528 13.4944L24.8247 16.4808C25.0484 16.702 25.272 16.702 25.4957 16.4808C25.7193 16.2596 25.7193 16.0384 25.4957 15.8172L23.2592 13.2732L25.8311 13.1625C26.0548 13.1625 26.2784 12.9413 26.2784 12.7201C26.3903 12.8307 26.1666 12.7201 25.943 12.7201Z" transform="translate(15.7852 11.3116)" fill="#ED6362"/>
</svg>
