<svg width="115" height="110" viewBox="0 0 115 110" fill="none" xmlns="http://www.w3.org/2000/svg">
<rect width="115" height="110" fill="#E5E5E5"/>
<g clip-path="url(#clip0)">
<rect width="1440" height="3012" fill="white" transform="translate(-430 -1521)"/>
<rect width="1440" height="3080" transform="translate(-430 -1521)" fill="#282F39"/>
<path d="M0 1053V690C0 681.163 7.16344 674 16 674H791C799.837 674 807 666.837 807 658V292C807 283.163 799.837 276 791 276H16C7.16344 276 0 268.837 0 260V0" transform="translate(-86 -800)" stroke="white" stroke-opacity="0.3" stroke-linecap="round" stroke-linejoin="round" stroke-dasharray="3 3"/>
<path d="M0 10.75V34.25L20.3233 22.0089V0L0 10.75Z" transform="translate(58.9871 18.75)" fill="#1AEEC2"/>
<path d="M0 22.2024L0.711263 0L21.0346 11.2946V34.2857L0 22.2024Z" transform="translate(3.75 70.7141)" fill="#1AEEC2"/>
<path d="M0 11.25V34.5833L20.4167 23.3333V0L0 11.25Z" transform="translate(90.4167 70)" fill="#1AEEC2"/>
<mask id="path-6-inside-1" fill="white">
<path d="M50.7587 13.8672L27.5604 0.444142C26.7673 -0.148051 25.5776 -0.148051 24.7845 0.444142L1.38793 13.8672C0.59483 14.262 0 15.249 0 16.236V41.7003C0 42.6873 0.59483 43.4769 1.38793 44.0691L24.7845 57.6895C24.9828 57.8869 25.1811 57.8869 25.3793 57.8869C25.5776 57.8869 25.9742 58.0843 26.1724 58.0843C26.569 58.0843 27.1638 57.8869 27.5604 57.6895L50.7587 44.0691C51.5518 43.6743 52.1466 42.6873 52.1466 41.7003V16.236C52.1466 15.249 51.5518 14.4594 50.7587 13.8672ZM26.1724 5.97129L43.819 16.236L25.9742 26.1059L8.32759 16.236L26.1724 5.97129ZM5.55173 20.9735L23.3966 30.8434V50.1884L5.55173 39.7263C5.55173 39.9237 5.55173 25.7111 5.55173 20.9735ZM28.9483 50.3858V30.8434L46.5949 21.1709V40.1211L28.9483 50.3858Z"/>
</mask>
<path d="M50.7587 13.8672L27.5604 0.444142C26.7673 -0.148051 25.5776 -0.148051 24.7845 0.444142L1.38793 13.8672C0.59483 14.262 0 15.249 0 16.236V41.7003C0 42.6873 0.59483 43.4769 1.38793 44.0691L24.7845 57.6895C24.9828 57.8869 25.1811 57.8869 25.3793 57.8869C25.5776 57.8869 25.9742 58.0843 26.1724 58.0843C26.569 58.0843 27.1638 57.8869 27.5604 57.6895L50.7587 44.0691C51.5518 43.6743 52.1466 42.6873 52.1466 41.7003V16.236C52.1466 15.249 51.5518 14.4594 50.7587 13.8672ZM26.1724 5.97129L43.819 16.236L25.9742 26.1059L8.32759 16.236L26.1724 5.97129ZM5.55173 20.9735L23.3966 30.8434V50.1884L5.55173 39.7263C5.55173 39.9237 5.55173 25.7111 5.55173 20.9735ZM28.9483 50.3858V30.8434L46.5949 21.1709V40.1211L28.9483 50.3858Z" transform="translate(0 51.9155)" fill="white" stroke="#282F39" stroke-width="2.8" mask="url(#path-6-inside-1)"/>
<mask id="path-7-inside-2" fill="white">
<path d="M50.7587 13.8672L27.5604 0.444148C26.7673 -0.148045 25.5776 -0.148045 24.7845 0.444148L1.38794 13.8672C1.18966 13.8672 1.18966 14.0646 0.991382 14.0646C0.396554 14.4594 1.51273e-06 15.249 1.51273e-06 16.236V41.7003C1.51273e-06 42.6873 0.594831 43.4769 1.38794 44.0691L24.7845 57.6895C25.1811 57.8869 25.7759 58.0843 26.1724 58.0843C26.569 58.0843 27.1638 57.8869 27.5604 57.6895L50.7587 44.0691C51.5518 43.6743 52.1466 42.6873 52.1466 41.7003V16.236C52.1466 15.249 51.5518 14.4594 50.7587 13.8672ZM26.1724 5.97129L43.4224 16.0386L25.9742 25.7111L8.52587 16.0386L26.1724 5.97129ZM5.55173 20.7761L23.3966 30.646V50.3858L5.55173 39.9237V20.7761ZM28.9483 50.3858V30.4486L46.5949 20.7761V39.9237L28.9483 50.3858Z"/>
</mask>
<path d="M50.7587 13.8672L27.5604 0.444148C26.7673 -0.148045 25.5776 -0.148045 24.7845 0.444148L1.38794 13.8672C1.18966 13.8672 1.18966 14.0646 0.991382 14.0646C0.396554 14.4594 1.51273e-06 15.249 1.51273e-06 16.236V41.7003C1.51273e-06 42.6873 0.594831 43.4769 1.38794 44.0691L24.7845 57.6895C25.1811 57.8869 25.7759 58.0843 26.1724 58.0843C26.569 58.0843 27.1638 57.8869 27.5604 57.6895L50.7587 44.0691C51.5518 43.6743 52.1466 42.6873 52.1466 41.7003V16.236C52.1466 15.249 51.5518 14.4594 50.7587 13.8672ZM26.1724 5.97129L43.4224 16.0386L25.9742 25.7111L8.52587 16.0386L26.1724 5.97129ZM5.55173 20.7761L23.3966 30.646V50.3858L5.55173 39.9237V20.7761ZM28.9483 50.3858V30.4486L46.5949 20.7761V39.9237L28.9483 50.3858Z" transform="translate(62.8533 51.521)" fill="white" stroke="#282F39" stroke-width="2.8" mask="url(#path-7-inside-2)"/>
<mask id="path-8-inside-3" fill="white">
<path d="M52.1466 41.7003V16.236C52.1466 15.249 51.5518 14.4594 50.7587 13.8672L27.5604 0.444144C26.7673 -0.14805 25.5776 -0.14805 24.7845 0.444144L1.38793 13.8672C0.594828 14.262 -1.51273e-06 15.249 -1.51273e-06 16.236V41.7003C-1.51273e-06 42.6873 0.594828 43.4769 1.38793 44.0691L24.7845 57.6895C25.1811 57.8869 25.7759 58.0843 26.1724 58.0843C26.569 58.0843 27.1638 57.8869 27.5604 57.6895L50.7587 44.0691C51.5518 43.6743 52.1466 42.6873 52.1466 41.7003ZM26.1724 5.97129L43.6207 16.0386L25.7759 25.7111L8.52587 16.0386L26.1724 5.97129ZM5.55173 20.9735L23.3966 30.8434V50.3858L5.55173 40.1211V20.9735ZM28.9483 50.3858V30.646L46.5949 20.9735V40.1211L28.9483 50.3858Z"/>
</mask>
<path d="M52.1466 41.7003V16.236C52.1466 15.249 51.5518 14.4594 50.7587 13.8672L27.5604 0.444144C26.7673 -0.14805 25.5776 -0.14805 24.7845 0.444144L1.38793 13.8672C0.594828 14.262 -1.51273e-06 15.249 -1.51273e-06 16.236V41.7003C-1.51273e-06 42.6873 0.594828 43.4769 1.38793 44.0691L24.7845 57.6895C25.1811 57.8869 25.7759 58.0843 26.1724 58.0843C26.569 58.0843 27.1638 57.8869 27.5604 57.6895L50.7587 44.0691C51.5518 43.6743 52.1466 42.6873 52.1466 41.7003ZM26.1724 5.97129L43.6207 16.0386L25.7759 25.7111L8.52587 16.0386L26.1724 5.97129ZM5.55173 20.9735L23.3966 30.8434V50.3858L5.55173 40.1211V20.9735ZM28.9483 50.3858V30.646L46.5949 20.9735V40.1211L28.9483 50.3858Z" transform="translate(31.3276)" fill="white" stroke="#282F39" stroke-width="2.8" mask="url(#path-8-inside-3)"/>
</g>
<defs>
<clipPath id="clip0">
<rect width="1440" height="3012" fill="white" transform="translate(-430 -1521)"/>
</clipPath>
</defs>
</svg>
