<svg xmlns="http://www.w3.org/2000/svg" width="24" height="24" viewBox="0 0 24 24">
    <g fill="none" fill-rule="nonzero">
        <path fill="#00EDC3" d="M16.945 10.683a2.005 2.005 0 0 0-.738-.413 2.148 2.148 0 0 0-.74-.08 2.655 2.655 0 0 0-.75.173c-.253.098-.506.204-.761.328-.403-.463-.806-.92-1.208-1.345.181-.164.357-.247.527-.253.17-.008.334.01.489.05.158.04.303.073.436.1a.403.403 0 0 0 .355-.09.498.498 0 0 0 .177-.362.599.599 0 0 0-.172-.432.97.97 0 0 0-.577-.332 1.782 1.782 0 0 0-.698.016 2.355 2.355 0 0 0-.676.27 2.639 2.639 0 0 0-.513.38 24.707 24.707 0 0 0-.146-.138.282.282 0 0 0-.203-.075.262.262 0 0 0-.205.1.27.27 0 0 0-.069.214.27.27 0 0 0 .096.189c.048.04.097.081.146.124-.192.232-.35.488-.475.758-.126.27-.2.539-.229.8-.029.262-.001.502.08.724.08.225.228.415.445.595.353.293.768.418 1.25.39.481-.03 1-.172 1.557-.472.442.512.886 1.02 1.33 1.491-.188.159-.352.25-.497.279a.776.776 0 0 1-.39-.008 1.243 1.243 0 0 1-.326-.157 2.286 2.286 0 0 0-.296-.175.691.691 0 0 0-.299-.077c-.102-.001-.21.048-.33.151a.483.483 0 0 0-.185.372c0 .14.064.281.19.425.128.143.294.264.494.359a1.874 1.874 0 0 0 1.464.049c.278-.102.553-.285.825-.557.13.128.262.25.394.366a.27.27 0 0 0 .204.066.272.272 0 0 0 .203-.106.29.29 0 0 0 .07-.22.256.256 0 0 0-.093-.182 9.826 9.826 0 0 1-.396-.334c.225-.275.405-.566.538-.853.134-.289.212-.567.239-.825a1.474 1.474 0 0 0-.09-.706c-.084-.215-.233-.4-.447-.577zm-4.193.508a.728.728 0 0 1-.56-.218.55.55 0 0 1-.146-.241.753.753 0 0 1-.029-.314 1 1 0 0 1 .103-.349c.055-.118.138-.237.243-.351.38.378.76.792 1.14 1.221-.288.159-.539.243-.75.252zm3.538 1.502a1.585 1.585 0 0 1-.236.332c-.42-.424-.84-.89-1.26-1.37.108-.047.22-.098.342-.149.121-.05.243-.084.364-.105a.964.964 0 0 1 .37.015c.122.031.238.097.345.201a.692.692 0 0 1 .2.334c.029.12.03.242.01.366-.022.125-.066.25-.135.376z"/>
        <path fill="#FFF" d="M23.561 7.94l-7.5-7.5a1.501 1.501 0 0 0-2.494.616c-.34 1.102-.927 2.06-1.796 2.928-1.162 1.16-2.674 2.04-4.273 2.968-1.698.984-3.453 2.005-4.89 3.441C1.386 11.617.554 12.977.067 14.557a1.502 1.502 0 0 0 .372 1.504l7.5 7.5a1.501 1.501 0 0 0 2.494-.618c.34-1.102.928-2.06 1.798-2.928 1.16-1.16 2.671-2.038 4.273-2.966 1.696-.985 3.451-2.005 4.888-3.442 1.222-1.222 2.054-2.584 2.542-4.164a1.503 1.503 0 0 0-.373-1.503zM9 22.5L1.5 15C3.631 8.1 12.87 8.4 15 1.5L22.502 9C20.369 15.9 11.13 15.6 9 22.5z"/>
        <path fill="#FFF" d="M14.671 11.175a2.005 2.005 0 0 0-.737-.413 2.148 2.148 0 0 0-.741-.079 2.655 2.655 0 0 0-.75.172c-.252.098-.506.204-.761.328-.403-.463-.806-.92-1.208-1.345.181-.164.357-.247.527-.253.17-.008.334.01.489.05.158.04.303.073.437.1a.403.403 0 0 0 .354-.09.498.498 0 0 0 .177-.361.599.599 0 0 0-.171-.433.97.97 0 0 0-.578-.332 1.782 1.782 0 0 0-.697.016 2.355 2.355 0 0 0-.677.27 2.639 2.639 0 0 0-.513.38l-.146-.138a.282.282 0 0 0-.203-.075.262.262 0 0 0-.205.1.27.27 0 0 0-.069.214.27.27 0 0 0 .096.189l.146.124c-.192.232-.35.488-.475.758-.126.27-.2.539-.228.8-.03.262-.002.502.078.725.08.224.229.414.446.594.353.293.768.418 1.25.39.481-.029 1-.172 1.557-.471.442.511.886 1.019 1.33 1.49-.188.159-.352.25-.497.279a.776.776 0 0 1-.39-.008 1.243 1.243 0 0 1-.326-.157 2.286 2.286 0 0 0-.296-.175.691.691 0 0 0-.299-.076c-.102-.002-.21.048-.33.15a.483.483 0 0 0-.185.372c0 .14.064.282.19.425.128.143.294.264.494.359a1.874 1.874 0 0 0 1.464.049c.278-.102.553-.285.825-.557.13.128.263.25.394.366a.27.27 0 0 0 .205.066.272.272 0 0 0 .202-.105.29.29 0 0 0 .07-.22.256.256 0 0 0-.093-.183 9.826 9.826 0 0 1-.396-.334c.225-.275.405-.566.538-.853.134-.288.213-.567.239-.825a1.474 1.474 0 0 0-.09-.706c-.084-.215-.233-.4-.447-.577zm-4.193.508a.728.728 0 0 1-.56-.218.55.55 0 0 1-.145-.241.753.753 0 0 1-.03-.314 1 1 0 0 1 .103-.348c.056-.119.138-.237.243-.352.38.378.76.792 1.14 1.221-.288.159-.538.244-.75.253zm3.538 1.502a1.585 1.585 0 0 1-.236.332c-.42-.424-.84-.89-1.26-1.37.108-.047.22-.098.342-.149.121-.05.243-.084.364-.105a.964.964 0 0 1 .37.015c.122.031.238.097.345.202a.692.692 0 0 1 .2.333c.029.12.03.242.01.366-.022.126-.066.25-.135.376zM11.038 16.635h-.002c-.468.36-.926.74-1.35 1.165a10.96 10.96 0 0 0-1.095 1.274l-.513.7.001.002a.377.377 0 0 0 .05.47.378.378 0 0 0 .532 0 .353.353 0 0 0 .056-.075l.479-.656c.297-.406.64-.806 1.02-1.185.421-.42.811-.745 1.286-1.106l-.002-.002c.014-.01.027-.019.039-.03a.376.376 0 0 0-.501-.557zM13.784 5.786c-.393.393-.818.746-1.259 1.083a.38.38 0 0 0-.088.6.378.378 0 0 0 .524.01l.003.002c.47-.36.926-.74 1.35-1.165a11.02 11.02 0 0 0 1.095-1.272l.513-.704-.001-.001a.378.378 0 0 0-.553-.513.408.408 0 0 0-.066.092l-.498.683c-.298.407-.641.806-1.02 1.185z"/>
    </g>
</svg>
