<svg xmlns="http://www.w3.org/2000/svg" width="25" height="24" viewBox="0 0 25 24">
    <g fill="none" fill-rule="evenodd">
        <path fill="#00EDC3" d="M23.316 17.25H9.684c-.793 0-1.434-.602-1.434-1.336V9l16.5 2.118v4.791c0 .744-.646 1.341-1.434 1.341z"/>
        <path fill="#FFF" fill-rule="nonzero" d="M6.413 15.802h13.34c1.513 0 2.747-1.223 2.747-2.723V7.516v-.02-.04c0-.01 0-.02-.005-.03 0-.01-.005-.024-.005-.034 0-.01-.005-.02-.005-.03-.005-.01-.005-.02-.01-.034-.005-.01-.005-.02-.01-.03-.005-.01-.005-.02-.01-.029a.24.24 0 0 1-.015-.035 81320.6 81320.6 0 0 1-.03-.054c-.005-.01-.01-.015-.014-.024-.005-.01-.015-.02-.02-.03a.087.087 0 0 0-.02-.025c-.005-.01-.015-.015-.02-.024-.005-.01-.015-.015-.02-.025-.005-.01-.015-.015-.02-.02l-.025-.024c-.01-.005-.015-.015-.025-.02-.01-.005-.02-.015-.03-.02l-.025-.015a.104.104 0 0 1-.03-.02l-.03-.014a8334.544 8334.544 0 0 0-.059-.03c-.01-.005-.02-.005-.03-.01a.093.093 0 0 0-.035-.01c-.01 0-.02-.005-.025-.005-.014-.004-.024-.004-.04-.004-.004 0-.01-.005-.02-.005L5.015 4.54V2.203c0-.024 0-.049-.005-.069 0-.005 0-.01-.005-.02C5.004 2.1 5 2.085 5 2.07c-.005-.015-.005-.025-.01-.04 0-.01-.005-.014-.005-.024l-.015-.044-.004-.02a.147.147 0 0 0-.02-.04c-.005-.005-.005-.014-.01-.02a.103.103 0 0 0-.02-.029L4.9 1.828c-.005-.01-.01-.014-.015-.024-.005-.01-.015-.02-.02-.03L4.85 1.76l-.03-.03-.015-.014c-.01-.01-.02-.02-.035-.03-.005-.005-.014-.01-.02-.014-.01-.01-.02-.015-.03-.025a.46.46 0 0 0-.04-.025c-.004-.005-.01-.005-.014-.01l-.065-.03L.934.054a.673.673 0 0 0-.88.355c-.145.34.014.73.357.873l3.255 1.361v14.591c0 1.38 1.045 2.525 2.393 2.698a2.673 2.673 0 0 0-.388 1.38c0 1.485 1.22 2.689 2.712 2.689 1.493 0 2.712-1.208 2.712-2.688a2.62 2.62 0 0 0-.373-1.357h6.04c-.238.4-.373.864-.373 1.357 0 1.484 1.22 2.688 2.712 2.688 1.493 0 2.712-1.208 2.712-2.688 0-1.48-1.219-2.688-2.712-2.688H6.413a1.399 1.399 0 0 1-1.404-1.391v-1.806c.408.237.891.375 1.404.375zM9.75 21.75c0 .83-.676 1.5-1.5 1.5s-1.5-.676-1.5-1.5.676-1.5 1.5-1.5 1.5.67 1.5 1.5zm11.25 0c0 .83-.676 1.5-1.5 1.5s-1.5-.676-1.5-1.5.676-1.5 1.5-1.5 1.5.67 1.5 1.5zm-.684-7.5H6.684c-.793 0-1.434-.602-1.434-1.336V6l16.5 2.118v4.791c0 .744-.646 1.341-1.434 1.341z"/>
    </g>
</svg>
