<?xml version="1.0" encoding="UTF-8"?>
<svg width="54px" height="53px" viewBox="0 0 54 53" version="1.1" xmlns="http://www.w3.org/2000/svg" xmlns:xlink="http://www.w3.org/1999/xlink">
    <!-- Generator: Sketch 49.1 (51147) - http://www.bohemiancoding.com/sketch -->
    <title>ic-codebase</title>
    <desc>Created with Sketch.</desc>
    <defs></defs>
    <g id="Page-1" stroke="none" stroke-width="1" fill="none" fill-rule="evenodd">
        <g id="Landing_horizontal" transform="translate(-661.000000, -369.000000)" fill="#BFD4DB" fill-rule="nonzero">
            <g id="Group-19" transform="translate(605.666667, 234.000000)">
                <g id="ic-codebase" transform="translate(56.000000, 135.000000)">
                    <rect id="Rectangle-path" x="0.0285384615" y="47.6008316" width="6.17047817" height="1.76299376"></rect>
                    <rect id="Rectangle-path" x="3.55452599" y="44.0748441" width="6.17047817" height="1.76299376"></rect>
                    <rect id="Rectangle-path" x="0.0285384615" y="44.0748441" width="1.76299376" height="1.76299376"></rect>
                    <rect id="Rectangle-path" x="3.55452599" y="51.1268191" width="6.17047817" height="1.76299376"></rect>
                    <rect id="Rectangle-path" x="0.0285384615" y="51.1268191" width="1.76299376" height="1.76299376"></rect>
                    <rect id="Rectangle-path" x="7.9620104" y="47.6008316" width="1.76299376" height="1.76299376"></rect>
                    <rect id="Rectangle-path" x="43.2218857" y="47.6008316" width="6.17047817" height="1.76299376"></rect>
                    <rect id="Rectangle-path" x="46.7478732" y="44.0748441" width="6.17047817" height="1.76299376"></rect>
                    <rect id="Rectangle-path" x="43.2218857" y="44.0748441" width="1.76299376" height="1.76299376"></rect>
                    <rect id="Rectangle-path" x="46.7478732" y="51.1268191" width="6.17047817" height="1.76299376"></rect>
                    <rect id="Rectangle-path" x="43.2218857" y="51.1268191" width="1.76299376" height="1.76299376"></rect>
                    <rect id="Rectangle-path" x="51.1553576" y="47.6008316" width="1.76299376" height="1.76299376"></rect>
                    <rect id="Rectangle-path" x="0.0285384615" y="4.40748441" width="6.17047817" height="1.76299376"></rect>
                    <rect id="Rectangle-path" x="3.55452599" y="0.881496881" width="6.17047817" height="1.76299376"></rect>
                    <rect id="Rectangle-path" x="0.0285384615" y="0.881496881" width="1.76299376" height="1.76299376"></rect>
                    <rect id="Rectangle-path" x="3.55452599" y="7.93347193" width="6.17047817" height="1.76299376"></rect>
                    <rect id="Rectangle-path" x="0.0285384615" y="7.93347193" width="1.76299376" height="1.76299376"></rect>
                    <rect id="Rectangle-path" x="7.9620104" y="4.40748441" width="1.76299376" height="1.76299376"></rect>
                    <rect id="Rectangle-path" x="43.2218857" y="4.40748441" width="6.17047817" height="1.76299376"></rect>
                    <rect id="Rectangle-path" x="46.7478732" y="0.881496881" width="6.17047817" height="1.76299376"></rect>
                    <rect id="Rectangle-path" x="43.2218857" y="0.881496881" width="1.76299376" height="1.76299376"></rect>
                    <rect id="Rectangle-path" x="46.7478732" y="7.93347193" width="6.17047817" height="1.76299376"></rect>
                    <rect id="Rectangle-path" x="43.2218857" y="7.93347193" width="1.76299376" height="1.76299376"></rect>
                    <rect id="Rectangle-path" x="51.1553576" y="4.40748441" width="1.76299376" height="1.76299376"></rect>
                    <path d="M48.3632162,35.4271393 C47.917289,34.98 47.3594116,34.6610083 46.7478732,34.5035509 L46.7478732,18.386262 C48.6299792,17.899896 49.7614906,15.9798857 49.2751247,14.0977796 C48.7887588,12.2156736 46.8687484,11.0841622 44.9866424,11.5705281 C44.3775281,11.7279854 43.8217443,12.0457651 43.3771393,12.4908108 L29.8469335,4.4956341 C29.9431268,4.18116008 29.994474,3.85478586 29.9994324,3.52598753 C29.9994324,1.57865073 28.4207817,0 26.4734449,0 C24.5261081,0 22.9474574,1.57865073 22.9474574,3.52598753 C22.9524158,3.85478586 23.003763,4.18116008 23.0999563,4.4956341 L9.56986071,12.4908108 C8.19692931,11.1139127 5.96773389,11.1107173 4.59083576,12.4836486 C3.21393763,13.85658 3.2107422,16.0857755 4.5836736,17.4626736 C5.02960083,17.9098129 5.58747817,18.2288046 6.19901663,18.386262 L6.19901663,34.5035509 C4.3169106,34.9899168 3.18539917,36.9099272 3.67176507,38.7920333 C4.15813098,40.6741393 6.07814137,41.8056507 7.9602474,41.3192848 C8.56936175,41.1618274 9.12514553,40.8440478 9.56975052,40.3990021 L23.0998462,48.3941788 C22.5333742,50.2573326 23.5844491,52.2269272 25.4476029,52.7933992 C27.3107568,53.3598711 29.2803514,52.3087963 29.8468233,50.4456424 C30.0501185,49.7769168 30.0501185,49.0629044 29.8468233,48.3941788 L43.3769189,40.3990021 C44.7498503,41.7759002 46.9790457,41.7790956 48.3559439,40.4061642 C49.7329522,39.0332328 49.7361476,36.8040374 48.3632162,35.4271393 Z M45.8663763,13.2224532 C46.8400998,13.2224532 47.6293701,14.0117235 47.6293701,14.985447 C47.6293701,15.9591705 46.8400998,16.7484407 45.8663763,16.7484407 C44.8926528,16.7484407 44.1033825,15.9591705 44.1033825,14.985447 C44.1033825,14.0117235 44.8926528,13.2224532 45.8663763,13.2224532 Z M26.4734449,1.76299376 C27.4471684,1.76299376 28.2364387,2.55226403 28.2364387,3.52598753 C28.2364387,4.49971102 27.4471684,5.28898129 26.4734449,5.28898129 C25.4997214,5.28898129 24.7104511,4.49971102 24.7104511,3.52598753 C24.7104511,2.55226403 25.4997214,1.76299376 26.4734449,1.76299376 Z M10.4540021,14.0158004 L23.9840977,6.0206237 C25.3584615,7.39542827 27.5869958,7.39586902 28.9619106,6.0215052 C28.9622412,6.02117464 28.9625717,6.02084407 28.9627921,6.0206237 L42.4928877,14.0158004 C42.2895925,14.6462911 42.2895925,15.3246029 42.4928877,15.9550936 L26.4734449,25.4206071 L10.4540021,15.9550936 C10.6572973,15.3246029 10.6572973,14.6462911 10.4540021,14.0158004 Z M5.31751975,14.985447 C5.31751975,14.0117235 6.10679002,13.2224532 7.08051351,13.2224532 C8.05423701,13.2224532 8.84350728,14.0117235 8.84350728,14.985447 C8.84350728,15.9591705 8.05423701,16.7484407 7.08051351,16.7484407 C6.10679002,16.7484407 5.31751975,15.9591705 5.31751975,14.985447 Z M7.08051351,39.6673597 C6.10679002,39.6673597 5.31751975,38.8780894 5.31751975,37.9043659 C5.31751975,36.9306424 6.10679002,36.1413721 7.08051351,36.1413721 C8.05423701,36.1413721 8.84350728,36.9306424 8.84350728,37.9043659 C8.84350728,38.8780894 8.05412682,39.6673597 7.08051351,39.6673597 Z M10.4540021,38.8740125 C11.0148545,37.0529501 9.99330977,35.1220312 8.1722474,34.5610686 C8.10282952,34.5396923 8.03264033,34.5205198 7.9620104,34.5035509 L7.9620104,18.386262 C8.568921,18.2328815 9.1237131,17.9200603 9.56897921,17.4800832 L25.591948,26.9482412 L25.591948,45.9630104 C24.9849272,46.116501 24.4298046,46.4294324 23.9840977,46.8691892 L10.4540021,38.8740125 Z M26.4734449,51.1268191 C25.4997214,51.1268191 24.7104511,50.3375489 24.7104511,49.3638254 C24.7104511,48.3901019 25.4997214,47.6008316 26.4734449,47.6008316 C27.4471684,47.6008316 28.2364387,48.3901019 28.2364387,49.3638254 C28.2364387,50.3375489 27.4470582,51.1268191 26.4734449,51.1268191 Z M42.3403888,37.9043659 C42.3453472,38.2331642 42.3966944,38.5595385 42.4928877,38.8740125 L28.9627921,46.8691892 C28.5170852,46.4294324 27.9619626,46.116501 27.3549418,45.9630104 L27.3549418,26.9482412 L43.3770291,17.4800832 C43.822736,17.9198399 44.3778586,18.2326611 44.9848794,18.386262 L44.9848794,34.5035509 C43.4327838,34.9043015 42.3463389,36.301474 42.3403888,37.9043659 Z M45.8663763,39.6673597 C44.8926528,39.6673597 44.1033825,38.8780894 44.1033825,37.9043659 C44.1033825,36.9306424 44.8926528,36.1413721 45.8663763,36.1413721 C46.8400998,36.1413721 47.6293701,36.9306424 47.6293701,37.9043659 C47.6293701,38.8780894 46.8399896,39.6673597 45.8663763,39.6673597 Z" id="Shape"></path>
                    <rect id="Rectangle-path" transform="translate(20.749592, 29.828345) rotate(-30.583487) translate(-20.749592, -29.828345) " x="19.9258223" y="28.9468366" width="1.6475393" height="1.7630169"></rect>
                    <rect id="Rectangle-path" transform="translate(17.914053, 31.504774) rotate(-30.583487) translate(-17.914053, -31.504774) " x="17.090283" y="30.6232655" width="1.6475393" height="1.7630169"></rect>
                    <rect id="Rectangle-path" transform="translate(23.587534, 28.151659) rotate(-30.583487) translate(-23.587534, -28.151659) " x="22.7637642" y="27.2701502" width="1.6475393" height="1.7630169"></rect>
                    <rect id="Rectangle-path" transform="translate(15.079378, 33.178748) rotate(-30.583487) translate(-15.079378, -33.178748) " x="14.2556082" y="32.2972395" width="1.6475393" height="1.7630169"></rect>
                    <rect id="Rectangle-path" transform="translate(12.238389, 34.857394) rotate(-30.583487) translate(-12.238389, -34.857394) " x="11.4146191" y="33.9758852" width="1.6475393" height="1.7630169"></rect>
                    <rect id="Rectangle-path" transform="translate(40.706389, 34.852735) rotate(-59.421446) translate(-40.706389, -34.852735) " x="39.8249253" y="34.0290072" width="1.76292721" height="1.64745548"></rect>
                    <rect id="Rectangle-path" transform="translate(37.871264, 33.177468) rotate(-59.429293) translate(-37.871264, -33.177468) " x="36.989769" y="32.3537113" width="1.76298932" height="1.64751352"></rect>
                    <rect id="Rectangle-path" transform="translate(35.031216, 31.504187) rotate(-59.421446) translate(-35.031216, -31.504187) " x="34.1497525" y="30.6804588" width="1.76292721" height="1.64745548"></rect>
                    <rect id="Rectangle-path" transform="translate(29.356241, 28.153773) rotate(-59.421446) translate(-29.356241, -28.153773) " x="28.474777" y="27.3300449" width="1.76292721" height="1.64745548"></rect>
                    <rect id="Rectangle-path" transform="translate(32.196509, 29.826200) rotate(-59.429293) translate(-32.196509, -29.826200) " x="31.3150148" y="29.0024432" width="1.76298932" height="1.64751352"></rect>
                    <rect id="Rectangle-path" x="25.591948" y="22.037422" width="1.76299376" height="1.76299376"></rect>
                    <rect id="Rectangle-path" x="25.591948" y="18.5114345" width="1.76299376" height="1.76299376"></rect>
                    <rect id="Rectangle-path" x="25.591948" y="14.985447" width="1.76299376" height="1.76299376"></rect>
                    <rect id="Rectangle-path" x="25.591948" y="11.4594595" width="1.76299376" height="1.76299376"></rect>
                    <rect id="Rectangle-path" x="25.591948" y="7.93347193" width="1.76299376" height="1.76299376"></rect>
                </g>
            </g>
        </g>
    </g>
</svg>