<svg width="49" height="46" viewBox="0 0 49 46" fill="none" xmlns="http://www.w3.org/2000/svg">
<path d="M43.9348 12.0934H3.06522C1.37526 12.0934 0 10.7369 0 9.07002V3.02334C0 1.35647 1.37526 -7.68875e-08 3.06522 -7.68875e-08H43.9348C45.6247 -7.68875e-08 47 1.35647 47 3.02334V9.07002C47 10.7369 45.6247 12.0934 43.9348 12.0934ZM3.06522 2.01556C2.50122 2.01556 2.04348 2.46704 2.04348 3.02334V9.07002C2.04348 9.62631 2.50122 10.0778 3.06522 10.0778H43.9348C44.4988 10.0778 44.9565 9.62631 44.9565 9.07002V3.02334C44.9565 2.46704 44.4988 2.01556 43.9348 2.01556H3.06522Z" transform="translate(1 10.7355)" fill="#1AEEC2"/>
<path d="M43.9348 12.0934H3.06522C1.37526 12.0934 0 10.7369 0 9.07002V3.02334C0 1.35647 1.37526 -7.68875e-08 3.06522 -7.68875e-08H43.9348C45.6247 -7.68875e-08 47 1.35647 47 3.02334V9.07002C47 10.7369 45.6247 12.0934 43.9348 12.0934ZM3.06522 2.01556C2.50122 2.01556 2.04348 2.46704 2.04348 3.02334V9.07002C2.04348 9.62631 2.50122 10.0778 3.06522 10.0778H43.9348C44.4988 10.0778 44.9565 9.62631 44.9565 9.07002V3.02334C44.9565 2.46704 44.4988 2.01556 43.9348 2.01556H3.06522V2.01556Z" transform="translate(1 10.7355)" stroke="#1AEEC2" stroke-width="0.5"/>
<path d="M37.8043 24.1867H5.1087C2.29278 24.1867 0 21.9253 0 19.1478V1.00778C0 0.451485 0.457739 -7.68875e-08 1.02174 -7.68875e-08H41.8913C42.4553 -7.68875e-08 42.913 0.451485 42.913 1.00778V19.1478C42.913 21.9253 40.6203 24.1867 37.8043 24.1867ZM2.04348 2.01556V19.1478C2.04348 20.8147 3.41874 22.1712 5.1087 22.1712H37.8043C39.4943 22.1712 40.8696 20.8147 40.8696 19.1478V2.01556H2.04348Z" transform="translate(3.04347 20.8134)" fill="#1AEEC2"/>
<path d="M37.8043 24.1867H5.1087C2.29278 24.1867 0 21.9253 0 19.1478V1.00778C0 0.451485 0.457739 -7.68875e-08 1.02174 -7.68875e-08H41.8913C42.4553 -7.68875e-08 42.913 0.451485 42.913 1.00778V19.1478C42.913 21.9253 40.6203 24.1867 37.8043 24.1867ZM2.04348 2.01556V19.1478C2.04348 20.8147 3.41874 22.1712 5.1087 22.1712H37.8043C39.4943 22.1712 40.8696 20.8147 40.8696 19.1478V2.01556H2.04348Z" transform="translate(3.04347 20.8134)" stroke="#1AEEC2" stroke-width="0.5"/>
<path d="M10.8975 11.7511C5.95837 11.7511 1.53015 8.49391 0.124236 3.8299C-0.145503 2.93701 0.0281916 1.98768 0.604452 1.22379C1.36258 0.222054 2.69289 -0.233462 3.88832 0.117245C8.61693 1.50395 11.9192 5.87368 11.9192 10.7433C11.9192 11.2996 11.4615 11.7511 10.8975 11.7511ZM3.04437 2.00986C2.74193 2.00986 2.44154 2.16707 2.24332 2.42909C2.13297 2.57421 1.96745 2.87453 2.08189 3.25547C3.12815 6.72425 6.21993 9.24168 9.81032 9.671C9.37711 6.13167 6.8248 3.08012 3.30593 2.05017C3.2201 2.02396 3.13223 2.00986 3.04437 2.00986Z" transform="translate(13.6026 1)" fill="#1AEEC2"/>
<path d="M10.8975 11.7511C5.95837 11.7511 1.53015 8.49391 0.124236 3.8299C-0.145503 2.93701 0.0281916 1.98768 0.604452 1.22379C1.36258 0.222054 2.69289 -0.233462 3.88832 0.117245C8.61693 1.50395 11.9192 5.87368 11.9192 10.7433C11.9192 11.2996 11.4615 11.7511 10.8975 11.7511ZM3.04437 2.00986C2.74193 2.00986 2.44154 2.16707 2.24332 2.42909C2.13297 2.57421 1.96745 2.87453 2.08189 3.25547C3.12815 6.72425 6.21993 9.24168 9.81032 9.671C9.37711 6.13167 6.8248 3.08012 3.30593 2.05017C3.2201 2.02396 3.13223 2.00986 3.04437 2.00986Z" transform="translate(13.6026 1)" stroke="#1AEEC2" stroke-width="0.5"/>
<path d="M1.02174 11.75C0.457739 11.75 0 11.2985 0 10.7422C0 5.87059 3.30226 1.50287 8.03087 0.116167C9.22017 -0.232525 10.5587 0.222991 11.3147 1.22472C11.891 1.98661 12.0667 2.93795 11.795 3.83084C10.389 8.49283 5.96083 11.75 1.02174 11.75ZM8.87483 2.00878C8.789 2.00878 8.70113 2.02289 8.61326 2.04707C5.09644 3.07904 2.54413 6.12858 2.10887 9.66992C5.69722 9.24262 8.79104 6.72519 9.83526 3.25439C9.95174 2.87345 9.78417 2.57313 9.67382 2.42801C9.47765 2.16599 9.17726 2.00878 8.87483 2.00878Z" transform="translate(23.4783 1.00098)" fill="#1AEEC2"/>
<path d="M1.02174 11.75C0.457739 11.75 0 11.2985 0 10.7422C0 5.87059 3.30226 1.50287 8.03087 0.116167C9.22017 -0.232525 10.5587 0.222991 11.3147 1.22472C11.891 1.98661 12.0667 2.93795 11.795 3.83084C10.389 8.49283 5.96083 11.75 1.02174 11.75ZM8.87483 2.00878C8.789 2.00878 8.70113 2.02289 8.61326 2.04707C5.09644 3.07904 2.54413 6.12858 2.10887 9.66992C5.69722 9.24262 8.79104 6.72519 9.83526 3.25439C9.95174 2.87345 9.78417 2.57313 9.67382 2.42801C9.47765 2.16599 9.17726 2.00878 8.87483 2.00878Z" transform="translate(23.4783 1.00098)" stroke="#1AEEC2" stroke-width="0.5"/>
<path d="M7.15064 34.2647C6.58664 34.2647 6.1289 33.8133 6.1289 33.257V3.44078L1.7436 7.76819C1.34512 8.16122 0.697338 8.16122 0.298859 7.76819C-0.0996189 7.37516 -0.0996189 6.73622 0.298859 6.34319L6.42929 0.296511C6.72356 0.00627023 7.15882 -0.0803984 7.54299 0.0788308C7.92308 0.232013 8.17238 0.60086 8.17238 1.008V33.257C8.17238 33.8133 7.71464 34.2647 7.15064 34.2647Z" transform="translate(17.3493 10.7354)" fill="#1AEEC2"/>
<path d="M7.15064 34.2647C6.58664 34.2647 6.1289 33.8133 6.1289 33.257V3.44078L1.7436 7.76819C1.34512 8.16122 0.697338 8.16122 0.298859 7.76819C-0.0996189 7.37516 -0.0996189 6.73622 0.298859 6.34319L6.42929 0.296511C6.72355 0.00627023 7.15882 -0.0803984 7.54299 0.0788308C7.92308 0.232013 8.17238 0.60086 8.17238 1.008V33.257C8.17238 33.8133 7.71464 34.2647 7.15064 34.2647Z" transform="translate(17.3493 10.7354)" stroke="#1AEEC2" stroke-width="0.5"/>
<path d="M7.15269 8.06073C6.89112 8.06073 6.62955 7.96196 6.42929 7.76645L0.298859 1.71978C-0.0996197 1.32674 -0.0996197 0.687809 0.298859 0.294775C0.697337 -0.0982589 1.34512 -0.0982589 1.7436 0.294775L7.87403 6.34145C8.27251 6.73449 8.27251 7.37342 7.87403 7.76645C7.67582 7.96196 7.41425 8.06073 7.15269 8.06073Z" transform="translate(23.4778 10.7369)" fill="#1AEEC2"/>
<path d="M7.15269 8.06073C6.89112 8.06073 6.62955 7.96196 6.42929 7.76645L0.298859 1.71978C-0.0996197 1.32674 -0.0996197 0.687809 0.298859 0.294775C0.697337 -0.0982589 1.34512 -0.0982589 1.7436 0.294775L7.87403 6.34145C8.27251 6.73449 8.27251 7.37342 7.87403 7.76645C7.67582 7.96196 7.41425 8.06073 7.15269 8.06073Z" transform="translate(23.4778 10.7369)" stroke="#1AEEC2" stroke-width="0.5"/>
</svg>
