<svg xmlns="http://www.w3.org/2000/svg" width="26" height="27" viewBox="0 0 26 27">
    <g fill="none" fill-rule="evenodd">
        <path fill="#00EDC3" d="M21 22.88c-2.757 0-5-2.231-5-4.974 0-2.743 2.243-4.974 5-4.974s5 2.231 5 4.974c0 2.743-2.243 4.974-5 4.974z"/>
        <g fill="#FFF" fill-rule="nonzero">
            <circle cx="9.5" cy="2.5" r="1"/>
            <path d="M4 10h12v1H4zM4 19h6v1H4zM21 18c0 1.654-1.346 3-3 3v1a4 4 0 0 0 4-4h-1zM4 16v1h6.794A7.21 7.21 0 0 1 11 16H4zM4 13v1h8.164c.248-.36.527-.694.836-1H4z"/>
            <path d="M18 11.937c-3.314 0-6 2.673-6 5.97a5.91 5.91 0 0 0 .822 3.004L9.128 24.6a.974.974 0 0 0-.18.27H2c-.552 0-1-.447-1-.995V5.969a.999.999 0 0 1 1-.995H4.17c-.108.304-.168.63-.17.97v2.014H16v-1.99c0-.348-.062-.683-.173-.994H18c.551 0 1 .446 1 .995v5.053c.341.049.676.118 1 .214V5.969c0-1.1-.895-1.99-2-1.99h-2.777a2.994 2.994 0 0 0-1.392-.879 1.373 1.373 0 0 1-.947-.942A2.999 2.999 0 0 0 10 0a2.999 2.999 0 0 0-2.883 2.158c-.133.458-.488.81-.95.943a2.993 2.993 0 0 0-1.39.878H2c-1.105 0-2 .89-2 1.99v17.906c0 1.099.895 1.99 2 1.99h7.034c.034.047.053.1.096.142l.708.703c.195.193.45.29.706.29a1 1 0 0 0 .708-.292l.845-.843H18c1.105 0 2-.891 2-1.99v-.347c2.329-.82 4-3.024 4-5.622 0-3.296-2.686-5.969-6-5.969zM5 5.953c.007-.875.6-1.654 1.445-1.896a2.367 2.367 0 0 0 1.633-1.624A2.007 2.007 0 0 1 10 .995c.887 0 1.678.591 1.922 1.438.229.79.839 1.396 1.632 1.623A2 2 0 0 1 15 5.97v.994H5v-1.01zm5.544 20.052l-.707-.703 3.566-3.563c.215.255.452.49.706.705l-3.565 3.561zM19 23.875a.999.999 0 0 1-1 .995h-4.906l1.843-1.839a5.986 5.986 0 0 0 3.063.844c.341 0 .674-.035 1-.09v.09zm-1-.995c-2.757 0-5-2.231-5-4.974 0-2.743 2.243-4.974 5-4.974s5 2.231 5 4.974c0 2.743-2.243 4.974-5 4.974z"/>
        </g>
    </g>
</svg>
