<svg xmlns="http://www.w3.org/2000/svg" width="32" height="24" viewBox="0 0 32 24">
    <g fill="none" fill-rule="nonzero">
        <path fill="#00EDC3" d="M12.69 10.759c2.966 0 5.379 2.45 5.379 5.462v.91c0 1.506-1.207 2.731-2.69 2.731H10c-1.483 0-2.69-1.225-2.69-2.731v-.91c0-3.012 2.414-5.462 5.38-5.462z"/>
        <path fill="#FFF" d="M28.684 0H2.764A2.77 2.77 0 0 0 0 2.77v18.46A2.77 2.77 0 0 0 2.764 24h25.92a2.77 2.77 0 0 0 2.764-2.77V2.77A2.77 2.77 0 0 0 28.684 0zm.922 21.23a.923.923 0 0 1-.922.924H2.764a.923.923 0 0 1-.921-.923V2.769c0-.509.413-.923.921-.923h25.92c.508 0 .922.414.922.923v18.462z"/>
        <path fill="#FFF" d="M8.69 10.759c-2.966 0-5.38 2.45-5.38 5.462v.91c0 1.506 1.207 2.731 2.69 2.731h5.38c1.482 0 2.689-1.225 2.689-2.731v-.91c0-3.012-2.413-5.462-5.38-5.462zm3.586 6.372c0 .502-.402.91-.897.91H6a.905.905 0 0 1-.897-.91v-.91c0-2.008 1.61-3.642 3.587-3.642s3.586 1.634 3.586 3.642v.91z"/>
        <path fill="#00EDC3" d="M12.517 4.31a3.728 3.728 0 0 1 3.724 3.724 3.728 3.728 0 0 1-3.724 3.725 3.728 3.728 0 0 1-3.724-3.725 3.728 3.728 0 0 1 3.724-3.724z"/>
        <path fill="#FFF" d="M26.414 16.552h-8.966c-.495 0-.896.37-.896.827 0 .457.401.828.896.828h8.966c.495 0 .896-.37.896-.828 0-.457-.401-.827-.896-.827zM26.414 13.241h-8.966c-.495 0-.896.37-.896.828 0 .457.401.828.896.828h8.966c.495 0 .896-.371.896-.828 0-.457-.401-.828-.896-.828zM26.414 9.103h-8.966c-.495 0-.896.371-.896.828 0 .457.401.828.896.828h8.966c.495 0 .896-.37.896-.828 0-.457-.401-.828-.896-.828zM24.724 5.793h-5.586c-.514 0-.931.37-.931.828 0 .457.417.827.93.827h5.587c.514 0 .931-.37.931-.827 0-.457-.417-.828-.93-.828z"/>
    </g>
</svg>
