<svg width="32" height="22" viewBox="0 0 32 22" fill="none" xmlns="http://www.w3.org/2000/svg">
<path d="M31.6033 9.10596H28.6405V6.10596H25.6777V9.10596H22.7148V12.106H25.6777V15.106H28.6405V12.106H31.6033V9.10596Z" fill="white"/>
<path d="M10.8636 9.10591V12.8059H16.7893C16.5917 14.4059 14.9128 17.5059 10.7649 17.5059C7.11074 17.5059 4.14793 14.4059 4.14793 10.7059C4.14793 7.00591 7.11074 3.90591 10.7649 3.90591C12.8388 3.90591 14.2215 4.80591 15.0116 5.60591L17.8756 2.80591C15.9992 1.00591 13.6289 0.00591286 10.6661 0.00591286C4.7405 -0.194087 0 4.70591 0 10.7059C0 16.7059 4.7405 21.5059 10.6661 21.5059C18.0731 21.5059 21.826 15.3059 20.7397 9.10591H10.8636Z" fill="white"/>
</svg>
