<svg width="14" height="14" viewBox="0 0 14 14" fill="none" xmlns="http://www.w3.org/2000/svg">
<path d="M0 6.60401C0.259134 6.95079 0.589743 7.23773 0.969401 7.44537C1.34906 7.653 1.76889 7.77647 2.20041 7.80741C2.63193 7.83834 3.06505 7.77602 3.47039 7.62466C3.87574 7.47331 4.24382 7.23646 4.54968 6.93018L6.3599 5.11814C6.90947 4.54855 7.21357 3.78567 7.2067 2.99382C7.19982 2.20197 6.88253 1.4445 6.32314 0.884557C5.76376 0.324612 5.00705 0.00699514 4.216 0.000114166C3.42494 -0.00676681 2.66284 0.297639 2.09382 0.847768L1.05596 1.88063" transform="translate(5.79321 1)" stroke="white" stroke-opacity="0.7" stroke-width="1.4" stroke-linecap="round" stroke-linejoin="round"/>
<path d="M7.20681 1.21111C6.94768 0.86433 6.61707 0.577391 6.23741 0.369758C5.85775 0.162124 5.43792 0.0386516 5.0064 0.00771581C4.57488 -0.02322 4.14176 0.0391043 3.73642 0.190461C3.33107 0.341818 2.96299 0.578668 2.65713 0.884944L0.846916 2.69698C0.297339 3.26657 -0.00676 4.02945 0.000114052 4.8213C0.00698811 5.61315 0.324286 6.37062 0.883667 6.93057C1.44305 7.49051 2.19976 7.80813 2.99081 7.81501C3.78187 7.82189 4.54397 7.51749 5.11299 6.96736L6.14482 5.93449" transform="translate(1 5.18481)" stroke="white" stroke-opacity="0.7" stroke-width="1.4" stroke-linecap="round" stroke-linejoin="round"/>
</svg>
