<svg width="13" height="17" viewBox="0 0 13 17" fill="none" xmlns="http://www.w3.org/2000/svg">
<rect width="13" height="17" fill="black" fill-opacity="0"/>
<rect width="13" height="17" fill="black" fill-opacity="0"/>
<path d="M6.5 0C3.30417 0 0 2.46774 0 6.58065C0 10.4742 5.85 16.5613 6.12083 16.8355C6.22917 16.9452 6.3375 17 6.5 17C6.6625 17 6.77083 16.9452 6.87917 16.8355C7.15 16.5613 13 10.529 13 6.58065C13 2.46774 9.69583 0 6.5 0ZM6.5 8.77419C5.30833 8.77419 4.33333 7.7871 4.33333 6.58065C4.33333 5.37419 5.30833 4.3871 6.5 4.3871C7.69167 4.3871 8.66667 5.37419 8.66667 6.58065C8.66667 7.7871 7.69167 8.77419 6.5 8.77419Z" fill="white"/>
</svg>
