<?xml version="1.0" encoding="UTF-8"?>
<svg width="53px" height="53px" viewBox="0 0 53 53" version="1.1" xmlns="http://www.w3.org/2000/svg" xmlns:xlink="http://www.w3.org/1999/xlink">
    <!-- Generator: Sketch 49.1 (51147) - http://www.bohemiancoding.com/sketch -->
    <title>ic-robot</title>
    <desc>Created with Sketch.</desc>
    <defs></defs>
    <g id="Page-1" stroke="none" stroke-width="1" fill="none" fill-rule="evenodd">
        <g id="Landing_horizontal" transform="translate(-206.000000, -368.000000)" fill="#1AEEC2" fill-rule="nonzero">
            <g id="Group-21" transform="translate(150.000000, 235.000000)">
                <g id="Group-11" transform="translate(0.000000, 102.000000)">
                    <g id="Group-3" transform="translate(34.000000, 31.000000)">
                        <g id="ic-robot" transform="translate(22.000000, 0.000000)">
                            <rect id="Rectangle-path" x="7.69354839" y="24.7903226" width="1.70967742" height="1.70967742"></rect>
                            <rect id="Rectangle-path" x="5.98387097" y="22.2258065" width="1.70967742" height="1.70967742"></rect>
                            <rect id="Rectangle-path" x="13.6774194" y="26.5" width="1.70967742" height="1.70967742"></rect>
                            <rect id="Rectangle-path" x="17.0967742" y="24.7903226" width="1.70967742" height="1.70967742"></rect>
                            <path d="M41.8870968,49.5806452 C44.7157581,49.5806452 47.016129,47.2802742 47.016129,44.4516129 C47.016129,41.6229516 44.7157581,39.3225806 41.8870968,39.3225806 C39.0584355,39.3225806 36.7580645,41.6229516 36.7580645,44.4516129 C36.7580645,47.2802742 39.0584355,49.5806452 41.8870968,49.5806452 Z M38.605371,43.544629 L39.9790968,44.3379194 L40.8339355,42.8573387 L39.4508065,42.0580645 C39.8782258,41.6229516 40.4236129,41.3117903 41.0322581,41.1536452 L41.0322581,42.7419355 L42.7419355,42.7419355 L42.7419355,41.1536452 C43.3497258,41.3117903 43.8959677,41.6229516 44.3233871,42.0580645 L42.9411129,42.8564839 L43.7959516,44.3370645 L45.1696774,43.5437742 C45.2491774,43.8352742 45.3064516,44.1353226 45.3064516,44.4516129 C45.3064516,44.7679032 45.2491774,45.0679516 45.1688226,45.3585968 L43.7950968,44.5653065 L42.9402581,46.0458871 L44.3233871,46.8451613 C43.8959677,47.2802742 43.3497258,47.5914355 42.7419355,47.7495806 L42.7419355,46.1612903 L41.0322581,46.1612903 L41.0322581,47.7495806 C40.4244677,47.5914355 39.8782258,47.2802742 39.4508065,46.8451613 L40.8330806,46.0467419 L39.9782419,44.5661613 L38.6045161,45.3594516 C38.5250161,45.0679516 38.4677419,44.7679032 38.4677419,44.4516129 C38.4677419,44.1353226 38.5250161,43.8352742 38.605371,43.544629 Z" id="Shape"></path>
                            <path d="M51.2903226,51.2903226 L51.2903226,35.9032258 L49.5806452,35.9032258 L49.5806452,30.7741935 L47.016129,30.7741935 L47.016129,21.0179194 C47.5555323,20.1194839 47.8709677,19.0731613 47.8709677,17.9516129 C47.8709677,15.8290484 46.7562581,13.9655 45.0859032,12.9029355 L37.3590161,4.26820968 C36.6195806,1.80285484 34.3320323,0 31.6290323,0 C29.5295484,0 27.6822419,1.08991935 26.6136935,2.73120968 L16.6590968,12.1874355 C15.7709194,13.0311613 15.2725484,14.1706613 15.2563065,15.3956452 C15.2451935,16.2880968 15.497371,17.1395161 15.9666774,17.8729677 L11.363371,22.4762742 L12.5721129,23.6850161 L17.1489194,19.1082097 C17.9302419,19.6698387 18.8423548,19.9647581 19.7621613,19.9639032 C20.8555,19.9639032 21.9514032,19.5655484 22.8190645,18.7645645 L30.3382258,11.8232742 C30.5955323,11.8805484 30.8588226,11.919871 31.1280968,11.9420968 L35.934,17.3480968 C35.9134839,17.5472742 35.9032258,17.7481613 35.9032258,17.9516129 C35.9032258,19.0731613 36.2195161,20.1194839 36.7580645,21.0179194 L36.7580645,30.7741935 L34.1935484,30.7741935 L34.1935484,35.9032258 L32.483871,35.9032258 L32.483871,51.2903226 L17.0967742,51.2903226 L17.0967742,35.9032258 L15.3870968,35.9032258 L15.3870968,34.1935484 L17.0967742,34.1935484 L17.0967742,32.483871 L15.3007581,32.483871 C14.9032581,30.5356935 13.1773387,29.0645161 11.1129032,29.0645161 L3.41935484,29.0645161 L3.41935484,32.483871 L1.70967742,32.483871 L1.70967742,34.1935484 L3.41935484,34.1935484 L3.41935484,35.9032258 L1.70967742,35.9032258 L1.70967742,51.2903226 L0,51.2903226 L0,53 L1.70967742,53 L17.0967742,53 L32.483871,53 L51.2903226,53 L53,53 L53,51.2903226 L51.2903226,51.2903226 Z M5.12903226,30.7741935 L11.1129032,30.7741935 C12.2259032,30.7741935 13.1662258,31.4914032 13.520129,32.483871 L5.12903226,32.483871 L5.12903226,30.7741935 Z M5.12903226,34.1935484 L13.6774194,34.1935484 L13.6774194,35.9032258 L5.12903226,35.9032258 L5.12903226,34.1935484 Z M15.3870968,42.7419355 L13.6774194,42.7419355 L13.6774194,44.4516129 L15.3870968,44.4516129 L15.3870968,51.2903226 L3.41935484,51.2903226 L3.41935484,44.4516129 L11.9677419,44.4516129 L11.9677419,42.7419355 L3.41935484,42.7419355 L3.41935484,37.6129032 L15.3870968,37.6129032 L15.3870968,42.7419355 Z M46.1612903,17.9516129 C46.1612903,20.3084032 44.2438871,22.2258065 41.8870968,22.2258065 C39.5303065,22.2258065 37.6129032,20.3084032 37.6129032,17.9516129 C37.6129032,15.5948226 39.5303065,13.6774194 41.8870968,13.6774194 C44.2438871,13.6774194 46.1612903,15.5948226 46.1612903,17.9516129 Z M45.3064516,22.8549677 L45.3064516,30.7741935 L38.4677419,30.7741935 L38.4677419,22.8549677 C39.4379839,23.5337097 40.6159516,23.9354839 41.8870968,23.9354839 C43.1582419,23.9354839 44.3362097,23.5337097 45.3064516,22.8549677 Z M21.6599032,17.5079516 C20.5520323,18.5303387 18.8517581,18.497 17.7857742,17.4310161 C17.2480806,16.8933226 16.9565806,16.1778226 16.9668387,15.417871 C16.9770968,14.6579194 17.2856935,13.9501129 17.8370645,13.4269516 L25.646871,6.00695161 C25.6554194,8.18166129 26.8325323,10.0811129 28.5789677,11.1214516 L21.6599032,17.5079516 Z M31.6230484,10.2580645 C29.2688226,10.2537903 27.3548387,8.33809677 27.3548387,5.98387097 C27.3548387,3.62708065 29.2722419,1.70967742 31.6290323,1.70967742 C33.9858226,1.70967742 35.9032258,3.62708065 35.9032258,5.98387097 C35.9032258,8.33895161 33.9875323,10.2555 31.6324516,10.2580645 L31.6230484,10.2580645 Z M36.4845161,15.3965 L33.236129,11.7420645 C35.4339194,11.1274355 37.121371,9.28953226 37.5180161,7.00967742 L41.9571935,11.9711613 C41.9341129,11.9711613 41.9110323,11.9677419 41.8870968,11.9677419 C39.5029516,11.9677419 37.4453548,13.3730968 36.4845161,15.3965 Z M35.9032258,32.483871 L36.7580645,32.483871 L47.016129,32.483871 L47.8709677,32.483871 L47.8709677,35.9032258 L35.9032258,35.9032258 L35.9032258,32.483871 Z M49.5806452,51.2903226 L34.1935484,51.2903226 L34.1935484,37.6129032 L49.5806452,37.6129032 L49.5806452,51.2903226 Z" id="Shape"></path>
                        </g>
                    </g>
                </g>
            </g>
        </g>
    </g>
</svg>