<svg width="25" height="40" viewBox="0 0 25 40" fill="none" xmlns="http://www.w3.org/2000/svg">
<path d="M25 12.4138C25 5.55797 19.4035 0 12.5 0C5.59655 0 0 5.55797 0 12.4138C0 19.2697 5.59655 24.8277 12.5 24.8277C19.4035 24.8277 25 19.2698 25 12.4138Z" transform="translate(0 3.44824)" fill="#ECF0F1"/>
<path d="M8.32526 1.56808C8.00508 1.56808 7.71693 1.34668 7.64675 1.02254C7.56691 0.650116 7.80511 0.283944 8.18075 0.203944C8.65086 0.103944 9.1342 0.0356631 9.61824 0.00121002C10.0099 -0.0208212 10.3329 0.260507 10.3606 0.639803C10.3884 1.0198 10.1002 1.35012 9.71759 1.37707C9.29814 1.40738 8.87868 1.46605 8.47103 1.55293C8.42249 1.56324 8.37317 1.56808 8.32526 1.56808ZM13.6697 1.92879C13.5912 1.92879 13.5106 1.91496 13.4329 1.88676C13.0405 1.74605 12.6329 1.6309 12.2225 1.54473C11.8468 1.46676 11.6066 1.10129 11.6857 0.728163C11.7641 0.355741 12.135 0.115741 12.5079 0.195038C12.9822 0.294335 13.4524 0.42746 13.9065 0.590897C14.267 0.720585 14.453 1.11574 14.3225 1.47363C14.2197 1.75433 13.953 1.92879 13.6697 1.92879ZM4.64127 3.20949C4.42737 3.20949 4.21631 3.11152 4.08014 2.92676C3.85373 2.61918 3.92107 2.18816 4.23086 1.96332C4.62113 1.68058 5.03437 1.42191 5.45933 1.19574C5.79823 1.01644 6.21839 1.14262 6.39964 1.47777C6.58089 1.81293 6.45384 2.2316 6.11565 2.4116C5.74757 2.60746 5.38861 2.8316 5.05034 3.07715C4.92667 3.16676 4.78358 3.20949 4.64127 3.20949ZM17.0989 4.05152C16.926 4.05152 16.7523 3.98738 16.6176 3.8584C16.3162 3.57082 15.9912 3.30113 15.6516 3.05637C15.3412 2.83223 15.2717 2.40121 15.4967 2.09293C15.7224 1.78465 16.1571 1.71707 16.4669 1.9398C16.8585 2.22121 17.2328 2.53293 17.5801 2.86465C17.8571 3.12879 17.8655 3.56535 17.5995 3.8391C17.4634 3.98051 17.2808 4.05152 17.0989 4.05152ZM1.93983 6.19433C1.82176 6.19433 1.70234 6.16535 1.5926 6.10191C1.26062 5.9116 1.1475 5.49019 1.33913 5.15988C1.58009 4.74605 1.85299 4.34402 2.1509 3.96473C2.38769 3.66473 2.82311 3.6109 3.1259 3.84473C3.42798 4.07918 3.48219 4.51301 3.24603 4.81301C2.98698 5.14269 2.75019 5.49097 2.54117 5.84957C2.41278 6.0709 2.17946 6.19433 1.93983 6.19433ZM19.3697 7.36879C19.0961 7.36879 18.837 7.20676 18.7267 6.9398C18.5683 6.55496 18.3815 6.1784 18.1711 5.8191C17.9773 5.49012 18.0898 5.06808 18.4211 4.87637C18.7524 4.68465 19.1773 4.79566 19.3704 5.12465C19.6135 5.5391 19.8294 5.97363 20.0127 6.41777C20.1578 6.77019 19.987 7.17293 19.6321 7.31707C19.5461 7.35152 19.4572 7.36879 19.3697 7.36879ZM0.695397 10.0109C0.671797 10.0109 0.647489 10.0095 0.623888 10.0068C0.241959 9.96816 -0.0358158 9.62949 0.00375381 9.2509C0.0530782 8.7716 0.137095 8.29293 0.25305 7.82887C0.346114 7.45918 0.722459 7.23301 1.09471 7.32613C1.4676 7.41785 1.694 7.79168 1.60164 8.16199C1.50095 8.5634 1.42802 8.97715 1.38499 9.39168C1.34889 9.74605 1.0468 10.0109 0.695397 10.0109ZM20.0829 11.3164H20.062C19.6787 11.3054 19.3773 10.9874 19.3884 10.6061C19.3912 10.5109 19.3933 10.4157 19.3933 10.3199C19.3933 9.99848 19.3752 9.67371 19.3412 9.35574C19.3002 8.97715 19.5759 8.63715 19.9572 8.59644C20.3315 8.55504 20.6807 8.82887 20.7217 9.20816C20.762 9.57504 20.7814 9.94957 20.7814 10.3199C20.7814 10.4296 20.78 10.5385 20.7766 10.6475C20.7655 11.0212 20.4572 11.3164 20.0829 11.3164ZM1.12044 14.0005C0.827401 14.0005 0.555841 13.815 0.460024 13.5239C0.310005 13.0674 0.191296 12.5964 0.10728 12.1246C0.0406483 11.7495 0.292699 11.3922 0.670459 11.3254C1.04617 11.2612 1.40797 11.5102 1.4753 11.8846C1.54752 12.2936 1.65034 12.7012 1.78014 13.0964C1.89956 13.4584 1.69958 13.8481 1.33567 13.9661C1.26416 13.9895 1.19124 14.0005 1.12044 14.0005ZM19.1169 15.2122C19.0155 15.2122 18.9121 15.1895 18.8141 15.1432C18.469 14.9764 18.3252 14.5639 18.4926 14.2212C18.6753 13.8468 18.8336 13.4564 18.9614 13.0612C19.0788 12.6985 19.4711 12.4985 19.8357 12.6164C20.201 12.7329 20.401 13.1219 20.2836 13.4839C20.1357 13.9405 19.9538 14.3908 19.7419 14.8232C19.6224 15.0688 19.3746 15.2122 19.1169 15.2122ZM3.14683 17.4702C2.95724 17.4702 2.76836 17.3936 2.63085 17.2426C2.30792 16.8868 2.00654 16.5054 1.73569 16.1082C1.52038 15.793 1.60306 15.364 1.9204 15.1502C2.23846 14.9364 2.66971 15.0192 2.88502 15.3343C3.12047 15.6785 3.38157 16.0102 3.6621 16.3185C3.91903 16.6012 3.89684 17.0378 3.61144 17.2929C3.47872 17.4115 3.31211 17.4702 3.14683 17.4702ZM16.6384 18.3805C16.4412 18.3805 16.2454 18.2978 16.1079 18.1364C15.86 17.8461 15.8961 17.4108 16.1892 17.1646C16.51 16.895 16.8135 16.6019 17.0919 16.2929C17.3475 16.0088 17.7871 15.9846 18.0725 16.2385C18.3579 16.4923 18.383 16.9282 18.1274 17.2123C17.8066 17.5689 17.4566 17.9068 17.0864 18.2178C16.9565 18.3274 16.7968 18.3805 16.6384 18.3805ZM6.41349 19.8309C6.31838 19.8309 6.22248 19.8116 6.13084 19.7709C5.69124 19.5764 5.25928 19.3482 4.84817 19.0923C4.52319 18.8896 4.42454 18.464 4.62805 18.1413C4.83149 17.8186 5.25999 17.7213 5.58567 17.9227C5.94196 18.1447 6.31555 18.3427 6.69606 18.5117C7.04676 18.6661 7.2037 19.0744 7.04747 19.422C6.93293 19.6785 6.67875 19.8309 6.41349 19.8309ZM13.0801 20.2819C12.7794 20.2819 12.5023 20.0861 12.4141 19.7846C12.3065 19.4191 12.5182 19.0364 12.8863 18.9295C13.2877 18.8136 13.6842 18.6675 14.0669 18.4964C14.4148 18.3405 14.8273 18.4936 14.9849 18.8419C15.1426 19.1888 14.987 19.5978 14.6377 19.7543C14.1967 19.9516 13.7384 20.1199 13.2745 20.2536C13.2099 20.2729 13.1447 20.2819 13.0801 20.2819ZM10.4044 20.6646H10.3656C9.88083 20.6646 9.39333 20.6315 8.91762 20.5646C8.53703 20.5122 8.27247 20.1639 8.32526 19.7867C8.37875 19.4094 8.73221 19.1411 9.10926 19.1991C9.52242 19.2564 9.94471 19.2853 10.3655 19.2853C10.7488 19.2853 11.0794 19.5943 11.0794 19.975C11.0794 20.3557 10.7878 20.6646 10.4044 20.6646Z" transform="translate(2.13477 5.54236)" fill="#BDC3C7"/>
<path d="M7.63883 3.44828C10.5187 3.44828 13.1638 4.42555 15.2777 6.05102V0H0V6.05102C2.11387 4.42555 4.75898 3.44828 7.63883 3.44828Z" transform="translate(4.86133)" fill="#26B99A"/>
<path d="M7.63883 2.60273C4.75898 2.60273 2.11387 1.62547 0 0V14.3269L7.63883 6.7407L15.2777 14.3269V0C13.1638 1.62547 10.5187 2.60273 7.63883 2.60273Z" transform="translate(4.86084 25.6731)" fill="#26B99A"/>
<path d="M6.25004 11.0345H0.694554C0.427872 11.0345 0.18416 10.8828 0.0688339 10.6435C-0.0471217 10.4049 -0.0144743 10.1208 0.152143 9.91383L4.74726 4.20969C5.25907 3.57453 5.19236 2.82352 4.95974 2.33242C4.68126 1.74555 4.13822 1.38969 3.50699 1.3793H3.50628C2.32297 1.3793 1.38895 2.30758 1.38895 3.44828C1.38895 3.82898 1.07782 4.13797 0.694475 4.13797C0.311129 4.13797 0 3.82898 0 3.44828C0 1.54688 1.55761 0 3.47222 0C4.68542 0.0185938 5.71455 0.687578 6.21598 1.74484C6.741 2.85102 6.59303 4.12625 5.83121 5.07172L2.13967 9.65524H6.25004C6.63339 9.65524 6.94451 9.96422 6.94451 10.3449C6.94451 10.7256 6.63339 11.0345 6.25004 11.0345Z" transform="translate(9.02783 10.3448)" fill="#BDC3C7"/>
</svg>
