<svg width="24" height="22" viewBox="0 0 24 22" fill="none" xmlns="http://www.w3.org/2000/svg">
<g opacity="0.3">
<path d="M2.4 2.44446L6 2.44443L8.4 1.65982e-08H15.6L18 2.44443L21.6 2.44446C22.9254 2.44446 24 3.53887 24 4.8889V19.5556C24 20.9056 22.9254 22 21.6 22H2.4C1.07452 22 0 20.9056 0 19.5556V4.8889C0 3.53887 1.07452 2.44446 2.4 2.44446ZM12 6.1111C8.6863 6.1111 6 8.84715 6 12.2222C6 15.5973 8.6863 18.3333 12 18.3333C15.3137 18.3333 18 15.5973 18 12.2222C18 8.84715 15.3137 6.1111 12 6.1111ZM12 8.55555C13.9882 8.55555 15.6 10.1972 15.6 12.2222C15.6 14.2473 13.9882 15.8889 12 15.8889C10.0117 15.8889 8.4 14.2473 8.4 12.2222C8.4 10.1972 10.0117 8.55555 12 8.55555Z" fill="#282F39"/>
</g>
</svg>
