<?xml version="1.0" encoding="UTF-8"?>
<svg width="53px" height="53px" viewBox="0 0 53 53" version="1.1" xmlns="http://www.w3.org/2000/svg" xmlns:xlink="http://www.w3.org/1999/xlink">
    <!-- Generator: Sketch 49.1 (51147) - http://www.bohemiancoding.com/sketch -->
    <title>ic-warehouse</title>
    <desc>Created with Sketch.</desc>
    <defs></defs>
    <g id="Page-1" stroke="none" stroke-width="1" fill="none" fill-rule="evenodd">
        <g id="Landing_horizontal" transform="translate(-400.000000, -566.000000)" fill="#BFD4DB" fill-rule="nonzero">
            <g id="Group-21" transform="translate(150.000000, 235.000000)">
                <g id="ic-warehouse" transform="translate(250.000000, 331.000000)">
                    <path d="M46.1612903,39.3225806 L0,39.3225806 L0,41.0322581 L46.1612903,41.0322581 C48.9899516,41.0322581 51.2903226,43.332629 51.2903226,46.1612903 C51.2903226,48.9899516 48.9899516,51.2903226 46.1612903,51.2903226 L0,51.2903226 L0,53 L46.1612903,53 C49.9319839,53 53,49.9319839 53,46.1612903 C53,42.3905968 49.9319839,39.3225806 46.1612903,39.3225806 Z" id="Shape"></path>
                    <path d="M49.5806452,46.1612903 C49.5806452,44.2755161 48.0470645,42.7419355 46.1612903,42.7419355 C44.2755161,42.7419355 42.7419355,44.2755161 42.7419355,46.1612903 C42.7419355,48.0470645 44.2755161,49.5806452 46.1612903,49.5806452 C48.0470645,49.5806452 49.5806452,48.0470645 49.5806452,46.1612903 Z M44.4516129,46.1612903 C44.4516129,45.2184032 45.2184032,44.4516129 46.1612903,44.4516129 C47.1041774,44.4516129 47.8709677,45.2184032 47.8709677,46.1612903 C47.8709677,47.1041774 47.1041774,47.8709677 46.1612903,47.8709677 C45.2184032,47.8709677 44.4516129,47.1041774 44.4516129,46.1612903 Z" id="Shape"></path>
                    <path d="M41.0322581,46.1612903 C41.0322581,44.2755161 39.4986774,42.7419355 37.6129032,42.7419355 C35.727129,42.7419355 34.1935484,44.2755161 34.1935484,46.1612903 C34.1935484,48.0470645 35.727129,49.5806452 37.6129032,49.5806452 C39.4986774,49.5806452 41.0322581,48.0470645 41.0322581,46.1612903 Z M35.9032258,46.1612903 C35.9032258,45.2184032 36.6700161,44.4516129 37.6129032,44.4516129 C38.5557903,44.4516129 39.3225806,45.2184032 39.3225806,46.1612903 C39.3225806,47.1041774 38.5557903,47.8709677 37.6129032,47.8709677 C36.6700161,47.8709677 35.9032258,47.1041774 35.9032258,46.1612903 Z" id="Shape"></path>
                    <path d="M32.483871,46.1612903 C32.483871,44.2755161 30.9502903,42.7419355 29.0645161,42.7419355 C27.1787419,42.7419355 25.6451613,44.2755161 25.6451613,46.1612903 C25.6451613,48.0470645 27.1787419,49.5806452 29.0645161,49.5806452 C30.9502903,49.5806452 32.483871,48.0470645 32.483871,46.1612903 Z M27.3548387,46.1612903 C27.3548387,45.2184032 28.121629,44.4516129 29.0645161,44.4516129 C30.0074032,44.4516129 30.7741935,45.2184032 30.7741935,46.1612903 C30.7741935,47.1041774 30.0074032,47.8709677 29.0645161,47.8709677 C28.121629,47.8709677 27.3548387,47.1041774 27.3548387,46.1612903 Z" id="Shape"></path>
                    <path d="M23.9354839,46.1612903 C23.9354839,44.2755161 22.4019032,42.7419355 20.516129,42.7419355 C18.6303548,42.7419355 17.0967742,44.2755161 17.0967742,46.1612903 C17.0967742,48.0470645 18.6303548,49.5806452 20.516129,49.5806452 C22.4019032,49.5806452 23.9354839,48.0470645 23.9354839,46.1612903 Z M18.8064516,46.1612903 C18.8064516,45.2184032 19.5732419,44.4516129 20.516129,44.4516129 C21.4590161,44.4516129 22.2258065,45.2184032 22.2258065,46.1612903 C22.2258065,47.1041774 21.4590161,47.8709677 20.516129,47.8709677 C19.5732419,47.8709677 18.8064516,47.1041774 18.8064516,46.1612903 Z" id="Shape"></path>
                    <path d="M15.3870968,46.1612903 C15.3870968,44.2755161 13.8535161,42.7419355 11.9677419,42.7419355 C10.0819677,42.7419355 8.5483871,44.2755161 8.5483871,46.1612903 C8.5483871,48.0470645 10.0819677,49.5806452 11.9677419,49.5806452 C13.8535161,49.5806452 15.3870968,48.0470645 15.3870968,46.1612903 Z M10.2580645,46.1612903 C10.2580645,45.2184032 11.0248548,44.4516129 11.9677419,44.4516129 C12.910629,44.4516129 13.6774194,45.2184032 13.6774194,46.1612903 C13.6774194,47.1041774 12.910629,47.8709677 11.9677419,47.8709677 C11.0248548,47.8709677 10.2580645,47.1041774 10.2580645,46.1612903 Z" id="Shape"></path>
                    <path d="M6.83870968,46.1612903 C6.83870968,44.2755161 5.30512903,42.7419355 3.41935484,42.7419355 C1.53358065,42.7419355 0,44.2755161 0,46.1612903 C0,48.0470645 1.53358065,49.5806452 3.41935484,49.5806452 C5.30512903,49.5806452 6.83870968,48.0470645 6.83870968,46.1612903 Z M1.70967742,46.1612903 C1.70967742,45.2184032 2.47646774,44.4516129 3.41935484,44.4516129 C4.36224194,44.4516129 5.12903226,45.2184032 5.12903226,46.1612903 C5.12903226,47.1041774 4.36224194,47.8709677 3.41935484,47.8709677 C2.47646774,47.8709677 1.70967742,47.1041774 1.70967742,46.1612903 Z" id="Shape"></path>
                    <path d="M43.1394355,5.47951613 C43.0154839,5.35983871 42.8795645,5.25469355 42.7419355,5.15125806 L42.7419355,0 L41.0322581,0 L41.0322581,4.36053226 C40.7561452,4.3041129 40.4697742,4.27419355 40.1774194,4.27419355 C39.8850645,4.27419355 39.5986935,4.3041129 39.3225806,4.36053226 L39.3225806,0 L37.6129032,0 L37.6129032,5.15125806 C37.4752742,5.25554839 37.3393548,5.35983871 37.2154032,5.47951613 L27.3548387,10.5931613 L27.3548387,21.5727097 L30.2459032,27.3548387 L32.483871,27.3548387 L32.483871,32.483871 L47.8709677,32.483871 L47.8709677,27.3548387 L50.1089355,27.3548387 L53,21.5727097 L53,10.5931613 L43.1394355,5.47951613 Z M40.1774194,5.98387097 C41.5913226,5.98387097 42.7419355,7.13448387 42.7419355,8.5483871 C42.7419355,9.96229032 41.5913226,11.1129032 40.1774194,11.1129032 C38.7635161,11.1129032 37.6129032,9.96229032 37.6129032,8.5483871 C37.6129032,7.13448387 38.7635161,5.98387097 40.1774194,5.98387097 Z M32.483871,17.0967742 L30.7741935,17.0967742 L30.7741935,18.8064516 L32.483871,18.8064516 L32.483871,20.516129 L30.7741935,20.516129 L30.7741935,22.2258065 L32.483871,22.2258065 L32.483871,25.6451613 L31.3024839,25.6451613 L29.0645161,21.1692258 L29.0645161,11.6326452 L35.9528065,8.05941935 C35.934,8.22183871 35.9032258,8.38083871 35.9032258,8.5483871 C35.9032258,9.87424194 36.5229839,11.0462258 37.4735645,11.8309677 L32.483871,13.9689194 L32.483871,17.0967742 Z M46.1612903,27.3548387 L46.1612903,30.7741935 L34.1935484,30.7741935 L34.1935484,27.3548387 L34.1935484,20.516129 L46.1612903,20.516129 L46.1612903,27.3548387 Z M46.1612903,18.8064516 L34.1935484,18.8064516 L34.1935484,15.0955968 L39.6269032,12.7670161 C39.8089839,12.7909516 39.9893548,12.8225806 40.1774194,12.8225806 C40.3654839,12.8225806 40.5458548,12.7909516 40.7279355,12.7670161 L46.1612903,15.0955968 L46.1612903,18.8064516 Z M51.2903226,21.1692258 L49.0523548,25.6451613 L47.8709677,25.6451613 L47.8709677,22.2258065 L49.5806452,22.2258065 L49.5806452,20.516129 L47.8709677,20.516129 L47.8709677,18.8064516 L49.5806452,18.8064516 L49.5806452,17.0967742 L47.8709677,17.0967742 L47.8709677,13.9689194 L42.8812742,11.8309677 C43.8318548,11.0462258 44.4516129,9.87424194 44.4516129,8.5483871 C44.4516129,8.38083871 44.4208387,8.22183871 44.4020323,8.05941935 L51.2903226,11.6326452 L51.2903226,21.1692258 Z" id="Shape"></path>
                    <path d="M5.12903226,32.483871 L5.12903226,37.6129032 L20.516129,37.6129032 L20.516129,32.483871 L22.7540968,32.483871 L25.6451613,26.7017419 L25.6451613,15.7221935 L15.7845968,10.6085484 C15.6606452,10.488871 15.523871,10.3845806 15.3870968,10.2802903 L15.3870968,0 L13.6774194,0 L13.6774194,9.48956452 C13.4013065,9.43314516 13.1149355,9.40322581 12.8225806,9.40322581 C12.5302258,9.40322581 12.2438548,9.43314516 11.9677419,9.48956452 L11.9677419,0 L10.2580645,0 L10.2580645,10.2802903 C10.1204355,10.3845806 9.98451613,10.488871 9.86056452,10.6085484 L0,15.7221935 L0,26.7017419 L2.89106452,32.483871 L5.12903226,32.483871 Z M18.8064516,32.483871 L18.8064516,35.9032258 L6.83870968,35.9032258 L6.83870968,32.483871 L6.83870968,25.6451613 L18.8064516,25.6451613 L18.8064516,32.483871 Z M17.0967742,13.6774194 C17.0967742,13.509871 17.066,13.350871 17.0471935,13.1884516 L23.9354839,16.7616774 L23.9354839,26.2982581 L21.6975161,30.7741935 L20.516129,30.7741935 L20.516129,27.3548387 L22.2258065,27.3548387 L22.2258065,25.6451613 L20.516129,25.6451613 L20.516129,23.9354839 L22.2258065,23.9354839 L22.2258065,22.2258065 L20.516129,22.2258065 L20.516129,19.0979516 L15.5264355,16.96 C16.4770161,16.1752581 17.0967742,15.0032742 17.0967742,13.6774194 Z M18.8064516,20.224629 L18.8064516,23.9354839 L6.83870968,23.9354839 L6.83870968,20.224629 L12.2720645,17.8960484 C12.4541452,17.9199839 12.6345161,17.9516129 12.8225806,17.9516129 C13.0106452,17.9516129 13.1910161,17.9199839 13.3730968,17.8960484 L18.8064516,20.224629 Z M12.8225806,11.1129032 C14.2364839,11.1129032 15.3870968,12.2635161 15.3870968,13.6774194 C15.3870968,15.0913226 14.2364839,16.2419355 12.8225806,16.2419355 C11.4086774,16.2419355 10.2580645,15.0913226 10.2580645,13.6774194 C10.2580645,12.2635161 11.4086774,11.1129032 12.8225806,11.1129032 Z M1.70967742,16.7616774 L8.59796774,13.1884516 C8.57916129,13.350871 8.5483871,13.509871 8.5483871,13.6774194 C8.5483871,15.0032742 9.16814516,16.1752581 10.1187258,16.96 L5.12903226,19.0979516 L5.12903226,22.2258065 L3.41935484,22.2258065 L3.41935484,23.9354839 L5.12903226,23.9354839 L5.12903226,25.6451613 L3.41935484,25.6451613 L3.41935484,27.3548387 L5.12903226,27.3548387 L5.12903226,30.7741935 L3.94764516,30.7741935 L1.70967742,26.2982581 L1.70967742,16.7616774 Z" id="Shape"></path>
                    <rect id="Rectangle-path" x="42.7419355" y="27.3548387" width="1.70967742" height="1.70967742"></rect>
                    <rect id="Rectangle-path" x="15.3870968" y="32.483871" width="1.70967742" height="1.70967742"></rect>
                </g>
            </g>
        </g>
    </g>
</svg>