<svg width="48" height="48" viewBox="0 0 48 48" fill="none" xmlns="http://www.w3.org/2000/svg">
<circle cx="24" cy="24" r="24" fill="#1AEEC2"/>
<path d="M32.5419 16.0805H28.0534C28.0534 16.0805 28.0534 16.0805 27.9131 16.0805C27.9131 16.0805 27.9131 16.0805 27.7728 16.0805L23.5648 19.5763L17.2528 15.9407V12.7246L23.5648 13.2839C23.5648 13.2839 23.5648 13.2839 23.7051 13.2839C23.7051 13.2839 23.7051 13.2839 23.8454 13.2839L26.9312 11.6059L31.8406 13.8432C32.1211 13.9831 32.5419 13.8432 32.6822 13.5636C32.8224 13.2839 32.6822 12.8644 32.4016 12.7246L28.0534 10.6271L30.5782 9.08898C30.8587 9.08898 30.999 8.66949 30.8587 8.38983C30.7184 8.11017 30.2976 7.97034 30.0171 8.11017L23.8454 11.7458L23.0037 7.27119L28.0534 6.15254C28.3339 6.15254 28.6144 5.73305 28.4742 5.45339C28.4742 5.17373 28.0534 4.89407 27.7728 5.0339L23.5648 5.87288L25.248 3.07627C25.3883 2.79661 25.248 2.37712 24.9675 2.23729C24.687 2.09746 24.2662 2.09746 24.1259 2.51695L21.8816 6.29237V6.4322C21.7414 6.57203 21.7414 6.71186 21.7414 6.99153L22.7232 12.1653L17.1125 11.6059V4.89407L21.04 1.67797C21.3205 1.39831 21.3206 1.11864 21.1803 0.838983C20.8997 0.559322 20.6192 0.559322 20.3387 0.699153L17.1125 3.35593V0.559322C17.1125 0.279661 16.832 0 16.5515 0C16.2709 0 15.9904 0.279661 15.9904 0.559322V7.41102L11.9227 6.01271L13.3253 1.25847C13.4656 0.978814 13.1851 0.559322 12.9045 0.559322C12.3435 0.419492 12.0629 0.699153 11.9227 0.978814L10.8005 5.17373L8.97707 2.37712C8.83681 2.09746 8.41601 2.09746 8.13547 2.23729C7.85494 2.37712 7.85494 2.79661 7.99521 3.07627L10.52 6.8517C10.52 6.8517 10.52 6.8517 10.6603 6.8517L15.7099 8.52966V15.9407L12.624 17.7585L9.95894 12.1653C9.95894 12.1653 9.95894 12.0254 9.81867 12.0254C9.81867 12.0254 9.67841 12.0254 9.67841 11.8856L6.87307 10.2076L6.17174 4.89407C6.17174 4.61441 5.8912 4.33475 5.4704 4.33475C5.18987 4.33475 4.90934 4.61441 4.90934 5.0339L5.61067 9.50847L3.08587 8.11017C2.80534 7.83051 2.38454 7.97034 2.24427 8.25C2.104 8.52966 2.24427 8.94915 2.5248 9.08898L8.55627 12.5847L5.18987 15.5212L1.82347 11.7458C1.54293 11.4661 1.2624 11.4661 0.981867 11.7458C0.701334 12.0254 0.701334 12.3051 0.981867 12.5847L3.92747 15.8008H0.561067C0.280534 15.8008 0 16.0805 0 16.3602C0 16.6398 0.280534 16.9195 0.561067 16.9195H4.90934H5.0496C5.18987 16.9195 5.4704 16.9195 5.61067 16.7797L9.53814 13.4237L11.9227 18.4576L6.17174 21.8136L1.82347 19.7161C1.54293 19.5763 1.12213 19.7161 0.981867 19.9958C0.841601 20.2754 0.981867 20.6949 1.2624 20.8347L4.90934 22.5127L2.66507 23.7712C2.38454 23.911 2.24427 24.3305 2.38454 24.6102C2.38454 25.0297 2.80534 25.1695 3.08587 25.0297L6.31201 23.072L9.11734 21.3941L9.67841 25.8686L4.76907 26.7076C4.48854 26.7076 4.208 27.1271 4.208 27.4068C4.208 27.6864 4.6288 27.9661 4.90934 27.9661L9.11734 27.2669L7.43414 30.0636C7.29387 30.3432 7.29387 30.7627 7.71467 30.9025C7.99521 31.0424 8.41601 31.0424 8.55627 30.6229L10.8005 26.7076C10.8005 26.7076 10.8005 26.7076 10.8005 26.5678C10.8005 26.5678 10.8005 26.5678 10.8005 26.428L10.0992 20.9746L16.4112 17.339L19.0763 18.8771L15.5696 24.1907C15.5696 24.1907 15.5696 24.1907 15.5696 24.3305V24.4703L15.7099 27.9661L11.5019 31.322C11.2213 31.6017 11.2213 31.8814 11.3616 32.161C11.5019 32.4407 11.9227 32.4407 12.2032 32.3008L15.7099 29.5042L15.8501 32.4407C15.8501 32.7203 16.1307 33 16.4112 33C16.6917 33 16.9723 32.7203 16.9723 32.4407L16.832 25.1695L21.04 26.5678L19.6373 31.4619C19.4971 31.7415 19.7776 32.161 20.0581 32.161C20.3387 32.3008 20.7595 32.0212 20.7595 31.7415L22.0219 27.5466L23.7051 30.3432C23.8454 30.6229 24.2662 30.7627 24.5467 30.483C24.8272 30.3432 24.9675 29.9237 24.687 29.6441L22.4427 26.0085C22.4427 26.0085 22.4427 25.8686 22.3024 25.8686C22.3024 25.7288 22.1622 25.589 21.8816 25.4492L16.9723 23.911L20.0581 19.1568L26.3702 22.7924L26.791 27.8263C26.791 28.1059 27.0715 28.3856 27.4923 28.3856C27.7728 28.3856 28.0534 28.1059 28.0534 27.6864L27.7728 23.4915L30.0171 24.75C30.2976 24.8898 30.7184 24.75 30.8587 24.4703C30.999 24.1907 30.8587 23.7712 30.5782 23.6314L27.352 21.6737L24.5467 19.9958L27.9131 17.0593L31.1392 20.8347C31.4198 21.1144 31.7003 21.1144 31.9808 20.8347C32.2614 20.5551 32.2614 20.2754 31.9808 19.9958L29.1755 16.7797L32.4016 16.6398C32.6822 16.6398 32.9627 16.3602 32.9627 16.0805C33.103 16.2203 32.8224 16.0805 32.5419 16.0805Z" transform="translate(8.00098 7.99988)" fill="#282F39"/>
</svg>
