<svg xmlns="http://www.w3.org/2000/svg" width="240" height="43" viewBox="0 0 240 43">
    <g fill="none" fill-rule="evenodd">
        <g fill="#FFF" fill-rule="nonzero">
            <path d="M23.172 11.461l-3.206.079-.025.003a.39.39 0 0 0-.076.014c-.011.003-.022.005-.032.009a.429.429 0 0 0-.054.024l-.02.01a.436.436 0 0 0-.055.04l-3.013 2.528-4.491-2.64V9.057l4.466.413h.017a.387.387 0 0 0 .084-.004c.005-.001.01 0 .015-.002l.006-.001a.418.418 0 0 0 .073-.022c.007-.002.012-.006.018-.008l.038-.019 2.155-1.248 3.537 1.55a.426.426 0 0 0 .562-.226.437.437 0 0 0-.223-.571l-2.945-1.292 1.819-1.054a.438.438 0 0 0 .16-.592.425.425 0 0 0-.584-.163l-4.38 2.537-.575-3.19 3.54-.729a.435.435 0 0 0 .334-.512.428.428 0 0 0-.505-.34l-3.009.62 1.165-2.005a.438.438 0 0 0-.152-.596.424.424 0 0 0-.586.154l-1.565 2.696a.435.435 0 0 0-.037.082.436.436 0 0 0-.103.367l.658 3.65-3.983-.368V3.53l2.84-2.368A.44.44 0 0 0 15.1.55a.424.424 0 0 0-.603-.06L12.2 2.405V.435A.431.431 0 0 0 11.772 0a.431.431 0 0 0-.428.435V5.34L8.4 4.386 9.359.944a.436.436 0 0 0-.295-.536.427.427 0 0 0-.528.3l-.821 2.947-1.282-1.922a.424.424 0 0 0-.594-.116.439.439 0 0 0-.115.604l1.798 2.695c.005.008.011.014.016.02a.432.432 0 0 0 .053.058l.025.023a.432.432 0 0 0 .049.032l.02.012c.02.01.04.019.061.026l3.598 1.166v5.275L9.136 12.82 7.257 8.79l-.005-.009a.434.434 0 0 0-.058-.09l-.006-.006-.014-.013a.426.426 0 0 0-.08-.064l-.01-.01-2.154-1.25-.481-3.882a.43.43 0 0 0-.479-.377.433.433 0 0 0-.37.486L4 6.807 2.182 5.751a.425.425 0 0 0-.584.162.438.438 0 0 0 .159.593l4.377 2.542-2.415 2.123-2.416-2.725a.424.424 0 0 0-.605-.033.44.44 0 0 0-.032.614l2.054 2.318H.428a.431.431 0 0 0-.428.434c0 .24.192.435.428.435H3.51c.03 0 .06-.004.089-.01a.421.421 0 0 0 .363-.096l2.763-2.43 1.667 3.578-4.133 2.419-3.09-1.498a.425.425 0 0 0-.57.205.438.438 0 0 0 .201.58l2.559 1.24-1.604.938a.438.438 0 0 0-.157.594c.118.208.38.28.585.16l2.312-1.354 2.003-1.172.421 3.166-3.473.598a.434.434 0 0 0-.35.501c.039.237.26.397.493.356l2.974-.512-1.16 2a.438.438 0 0 0 .152.596.425.425 0 0 0 .586-.154l1.627-2.806.011-.023a.428.428 0 0 0 .029-.073l.009-.033a.436.436 0 0 0 .008-.059l.002-.022c0-.023 0-.046-.004-.069L7.3 14.9l4.472-2.618 1.853 1.09-2.454 3.825-.008.015a.492.492 0 0 0-.036.077l-.005.014-.001.006a.437.437 0 0 0-.016.077l-.001.019-.002.043.08 2.518-3.004 2.45a.44.44 0 0 0-.066.61.424.424 0 0 0 .602.067l2.501-2.04.067 2.125a.43.43 0 0 0 .442.421.432.432 0 0 0 .414-.448l-.16-5.118 3.045.976-1.02 3.518a.436.436 0 0 0 .29.54.427.427 0 0 0 .531-.295l.868-2.99 1.2 1.982a.424.424 0 0 0 .59.143.439.439 0 0 0 .14-.598l-1.615-2.666a.438.438 0 0 0-.054-.071.428.428 0 0 0-.272-.264l-3.485-1.116 2.171-3.385 4.457 2.62.27 3.636a.43.43 0 0 0 .46.4.433.433 0 0 0 .394-.466l-.226-3.042 1.596.939c.205.12.467.05.585-.159a.438.438 0 0 0-.156-.594l-2.3-1.352-1.965-1.155 2.45-2.056 2.334 2.68c.156.18.427.196.604.037a.44.44 0 0 0 .037-.613l-1.999-2.295 2.286-.056a.432.432 0 0 0 .417-.445.431.431 0 0 0-.438-.424M36.364 3.21v17.927h3.376v-8.156l7.405 8.156h4.461l-7.958-8.645 7.259-9.257h-4.148l-7.02 9.085V3.21zM65.257 3.235l-9.02 17.902h3.666l1.35-2.817h8.321l1.375 2.817h3.666l-9.02-17.902h-.338zm.169 6.686l2.508 5.412h-5.04l2.532-5.412zM98.685 3.235l-8.682 10.334-8.66-10.334h-.216v17.902h3.376v-9.062l5.5 6.735 5.522-6.735v9.062h3.377V3.235zM116.642 9.068a2.62 2.62 0 0 0 .13-.8c0-.264-.048-.519-.143-.765a2.1 2.1 0 0 0-.385-.641c-.16-.18-.35-.326-.567-.444a1.453 1.453 0 0 0-.689-.172h-4.39v4.264h4.148c.338 0 .632-.066.883-.198a1.96 1.96 0 0 0 .628-.519 2.42 2.42 0 0 0 .385-.725zm3.905 5.23a3.8 3.8 0 0 1 .324 1.561c0 .98-.142 1.807-.432 2.48-.29.676-.684 1.221-1.182 1.639a4.504 4.504 0 0 1-1.75.888 8.14 8.14 0 0 1-2.133.272h-1.286v-3.037h1.286c.29 0 .562-.07.822-.21.256-.137.48-.326.675-.564.19-.237.342-.496.455-.782.113-.286.173-.576.173-.87 0-.602-.225-1.108-.667-1.517-.441-.409-1.047-.615-1.818-.615H110.6v1.182h-3.377V3.21h7.766c.706 0 1.377.07 2.005.21a4 4 0 0 1 1.636.761c.468.37.836.875 1.113 1.525.272.647.406 1.477.406 2.493 0 .36-.069.743-.216 1.151a4.435 4.435 0 0 1-.589 1.13 3.667 3.667 0 0 1-.904.875c-.355.237-.74.365-1.16.378.437.035.865.158 1.29.378.428.22.809.519 1.147.892.337.374.614.809.83 1.297zM131.799 12.394h4.64c.304 0 .62-.062.95-.184.328-.122.62-.31.877-.563.255-.253.468-.567.636-.943.169-.375.253-.816.253-1.322 0-.261-.032-.571-.096-.93a3.09 3.09 0 0 0-.385-1.03 2.508 2.508 0 0 0-.817-.832c-.353-.229-.826-.343-1.418-.343h-4.64v6.147zm0 8.743h-3.377V3.21h8.022c.902 0 1.727.151 2.476.453.749.303 1.389.727 1.92 1.274.532.547.946 1.2 1.245 1.959a6.75 6.75 0 0 1 .446 2.486c0 1.355-.333 2.539-1.002 3.55a5.614 5.614 0 0 1-2.67 2.18c1.484 1.992 2.95 4 4.396 6.025h-4.027a113.69 113.69 0 0 1-2.068-2.817c-.673-.946-1.346-1.91-2.02-2.89H131.8v5.707zM150.707 21.137h3.377V3.235h-3.377zM167.735 15.333h5.04l-2.508-5.413-2.532 5.413zm-6.657 5.804l9.02-17.902h.338l9.02 17.902h-3.666l-1.374-2.817h-8.321l-1.35 2.817h-3.667z"/>
        </g>
        <text fill="#1AEEC2" font-family="STHeitiSC-Medium, Heiti SC" font-size="14" font-weight="bold" opacity=".7" transform="translate(36 29)">
            <tspan x="0" y="12">Fueling the Robotics Economy</tspan>
        </text>
    </g>
</svg>
