<?xml version="1.0" encoding="UTF-8"?>
<svg width="204px" height="45px" viewBox="0 0 204 45" version="1.1" xmlns="http://www.w3.org/2000/svg" xmlns:xlink="http://www.w3.org/1999/xlink">
    <!-- Generator: Sketch 49.1 (51147) - http://www.bohemiancoding.com/sketch -->
    <title>kambria-logo</title>
    <desc>Created with Sketch.</desc>
    <defs></defs>
    <g id="Page-1" stroke="none" stroke-width="1" fill="none" fill-rule="evenodd">
        <g id="kambria-logo">
            <g id="Group" fill="#FFFFFF" fill-rule="nonzero">
                <g id="Page-1">
                    <path d="M23.2,11.5 L20,11.5 C20,11.5 20,11.5 20,11.5 C20,11.5 20,11.5 20,11.5 C20,11.5 20,11.5 20,11.5 C20,11.5 20,11.5 20,11.5 C20,11.5 20,11.5 19.9,11.5 C19.9,11.5 19.9,11.5 19.9,11.5 C19.9,11.5 19.9,11.5 19.8,11.5 L16.8,14 L12.3,11.4 L12.3,9.1 L16.8,9.5 C16.8,9.5 16.8,9.5 16.8,9.5 C16.8,9.5 16.8,9.5 16.8,9.5 C16.8,9.5 16.8,9.5 16.9,9.5 C16.9,9.5 16.9,9.5 16.9,9.5 C16.9,9.5 16.9,9.5 16.9,9.5 C16.9,9.5 16.9,9.5 17,9.5 C17,9.5 17,9.5 17,9.5 C17,9.5 17,9.5 17,9.5 L19.2,8.3 L22.7,9.9 C22.9,10 23.2,9.9 23.3,9.7 C23.4,9.5 23.3,9.2 23.1,9.1 L20,7.6 L21.8,6.5 C22,6.5 22.1,6.2 22,6 C21.9,5.8 21.6,5.7 21.4,5.8 L17,8.4 L16.4,5.2 L20,4.4 C20.2,4.4 20.4,4.1 20.3,3.9 C20.3,3.7 20,3.5 19.8,3.6 L16.8,4.2 L18,2.2 C18.1,2 18,1.7 17.8,1.6 C17.6,1.5 17.3,1.5 17.2,1.8 L15.6,4.5 C15.6,4.5 15.6,4.6 15.6,4.6 C15.5,4.7 15.5,4.8 15.5,5 L16.2,8.7 L12.2,8.3 L12.2,3.5 L15,1.2 C15.2,1 15.2,0.8 15.1,0.6 C14.9,0.4 14.7,0.4 14.5,0.5 L12.2,2.4 L12.2,0.4 C12.2,0.2 12,0 11.8,0 C11.6,0 11.4,0.2 11.4,0.4 L11.4,5.3 L8.5,4.3 L9.5,0.9 C9.6,0.7 9.4,0.4 9.2,0.4 C8.8,0.3 8.6,0.5 8.5,0.7 L7.7,3.7 L6.4,1.7 C6.3,1.5 6,1.5 5.8,1.6 C5.6,1.7 5.6,2 5.7,2.2 L7.5,4.9 C7.5,4.9 7.5,4.9 7.5,4.9 C7.5,4.9 7.5,4.9 7.5,4.9 C7.5,4.9 7.5,4.9 7.5,4.9 C7.5,4.9 7.5,4.9 7.5,4.9 C7.5,4.9 7.5,4.9 7.5,4.9 C7.5,4.9 7.5,4.9 7.5,4.9 C7.5,4.9 7.5,4.9 7.6,4.9 L11.2,6.1 L11.2,11.4 L9,12.7 L7.1,8.7 C7.1,8.7 7.1,8.7 7.1,8.7 C7.1,8.7 7.1,8.6 7,8.6 C7,8.6 7,8.6 7,8.6 C7,8.6 7,8.6 7,8.6 C7,8.6 6.9,8.6 6.9,8.5 C6.9,8.5 6.9,8.5 6.9,8.5 L4.9,7.3 L4.4,3.5 C4.4,3.3 4.2,3.1 3.9,3.1 C3.7,3.1 3.5,3.3 3.5,3.6 L4,6.8 L2.2,5.8 C2,5.6 1.7,5.7 1.6,5.9 C1.5,6.1 1.6,6.4 1.8,6.5 L6.1,9 L3.7,11.1 L1.3,8.4 C1.1,8.2 0.9,8.2 0.7,8.4 C0.5,8.6 0.5,8.8 0.7,9 L2.8,11.3 L0.4,11.3 C0.2,11.3 0,11.5 0,11.7 C0,11.9 0.2,12.1 0.4,12.1 L3.5,12.1 C3.5,12.1 3.6,12.1 3.6,12.1 C3.7,12.1 3.9,12.1 4,12 L6.8,9.6 L8.5,13.2 L4.4,15.6 L1.3,14.1 C1.1,14 0.8,14.1 0.7,14.3 C0.6,14.5 0.7,14.8 0.9,14.9 L3.5,16.1 L1.9,17 C1.7,17.1 1.6,17.4 1.7,17.6 C1.7,17.9 2,18 2.2,17.9 L4.5,16.5 C4.5,16.5 4.5,16.5 4.5,16.5 L6.5,15.3 L6.9,18.5 L3.4,19.1 C3.2,19.1 3,19.4 3,19.6 C3,19.8 3.3,20 3.5,20 L6.5,19.5 L5.3,21.5 C5.2,21.7 5.2,22 5.5,22.1 C5.7,22.2 6,22.2 6.1,21.9 L7.7,19.1 C7.7,19.1 7.7,19.1 7.7,19.1 C7.7,19.1 7.7,19.1 7.7,19.1 C7.7,19.1 7.7,19.1 7.7,19.1 C7.7,19.1 7.7,19.1 7.7,19.1 C7.7,19.1 7.7,19.1 7.7,19 C7.7,19 7.7,19 7.7,19 C7.7,19 7.7,19 7.7,18.9 L7.2,15 L11.7,12.4 L13.6,13.5 L11.1,17.3 C11.1,17.3 11.1,17.3 11.1,17.3 C11.1,17.3 11.1,17.3 11.1,17.3 C11.1,17.3 11.1,17.3 11.1,17.4 C11.1,17.4 11.1,17.4 11.1,17.4 C11.1,17.4 11.1,17.4 11.1,17.4 C11.1,17.4 11.1,17.5 11.1,17.5 C11.1,17.5 11.1,17.5 11.1,17.5 C11.1,17.5 11.1,17.5 11.1,17.5 L11.2,20 L8.2,22.4 C8,22.6 8,22.8 8.1,23 C8.2,23.2 8.5,23.2 8.7,23.1 L11.2,21.1 L11.3,23.2 C11.3,23.4 11.5,23.6 11.7,23.6 C11.9,23.6 12.1,23.4 12.1,23.2 L12,18 L15,19 L14,22.5 C13.9,22.7 14.1,23 14.3,23 C14.5,23.1 14.8,22.9 14.8,22.7 L15.7,19.7 L16.9,21.7 C17,21.9 17.3,22 17.5,21.8 C17.7,21.7 17.8,21.4 17.6,21.2 L16,18.6 C16,18.6 16,18.5 15.9,18.5 C15.9,18.4 15.8,18.3 15.6,18.2 L12.1,17.1 L14.3,13.7 L18.8,16.3 L19.1,19.9 C19.1,20.1 19.3,20.3 19.6,20.3 C19.8,20.3 20,20.1 20,19.8 L19.8,16.8 L21.4,17.7 C21.6,17.8 21.9,17.7 22,17.5 C22.1,17.3 22,17 21.8,16.9 L19.5,15.5 L17.5,14.3 L19.9,12.2 L22.2,14.9 C22.4,15.1 22.6,15.1 22.8,14.9 C23,14.7 23,14.5 22.8,14.3 L20.8,12 L23.1,11.9 C23.3,11.9 23.5,11.7 23.5,11.5 C23.6,11.6 23.4,11.5 23.2,11.5" id="Fill-1"></path>
                </g>
                <g id="Page-1_1_" transform="translate(36.363636, 2.769231)">
                    <polygon id="Fill-1_1_" points="0 0.4 0 18.4 3.4 18.4 3.4 10.2 10.8 18.4 15.2 18.4 7.3 9.7 14.5 0.5 10.4 0.5 3.4 9.6 3.4 0.4"></polygon>
                    <path d="M28.9,0.5 L19.9,18.4 L23.6,18.4 L25,15.6 L33.3,15.6 L34.7,18.4 L38.4,18.4 L29.4,0.5 L28.9,0.5 Z M29.1,7.2 L31.6,12.6 L26.6,12.6 L29.1,7.2 Z" id="Fill-2"></path>
                    <polygon id="Fill-3" points="62.3 0.5 53.6 10.8 45 0.5 44.8 0.5 44.8 18.4 48.1 18.4 48.1 9.3 53.6 16 59.2 9.3 59.2 18.4 62.5 18.4 62.5 0.5"></polygon>
                    <g id="Group-11" transform="translate(70.000000, 0.347253)">
                        <path d="M10.3,6 C10.4,5.7 10.4,5.5 10.4,5.2 C10.4,4.9 10.4,4.7 10.3,4.4 C10.2,4.1 10,3.9 9.9,3.7 C9.7,3.6 9.5,3.4 9.3,3.3 C9.1,3.2 8.9,3.1 8.6,3.1 L4.2,3.1 L4.2,7.4 L8.3,7.4 C8.6,7.4 8.9,7.3 9.2,7.2 C9.4,7.1 9.7,6.9 9.8,6.7 C10.1,6.5 10.2,6.2 10.3,6 Z M14.2,11.2 C14.4,11.7 14.5,12.2 14.5,12.8 C14.5,13.8 14.4,14.6 14.1,15.3 C13.8,16 13.4,16.5 12.9,16.9 C12.4,17.3 11.8,17.6 11.2,17.8 C10.5,17.9 9.8,18 9,18 L7.7,18 L7.7,15 L9,15 C9.3,15 9.6,14.9 9.8,14.8 C10.1,14.7 10.3,14.5 10.5,14.2 C10.7,14 10.8,13.7 11,13.4 C11.1,13.1 11.2,12.8 11.2,12.5 C11.2,11.9 11,11.4 10.5,11 C10.1,10.6 9.5,10.4 8.7,10.4 L4.2,10.4 L4.2,11.6 L0.9,11.6 L0.9,0.1 L8.7,0.1 C9.4,0.1 10.1,0.2 10.7,0.3 C11.3,0.4 11.9,0.7 12.3,1.1 C12.8,1.5 13.1,2 13.4,2.6 C13.7,3.2 13.8,4.1 13.8,5.1 C13.8,5.5 13.7,5.8 13.6,6.3 C13.4,6.6 13.2,7 13,7.4 C12.7,7.7 12.4,8 12.1,8.3 C11.7,8.5 11.4,8.7 10.9,8.7 C11.3,8.7 11.8,8.9 12.2,9.1 C12.6,9.3 13,9.6 13.3,10 C13.7,10.3 14,10.7 14.2,11.2 Z" id="Fill-4"></path>
                        <path d="M25.4,9.3 L30,9.3 C30.3,9.3 30.6,9.2 30.9,9.1 C31.2,9 31.5,8.8 31.8,8.5 C32.1,8.2 32.3,7.9 32.4,7.6 C32.6,7.2 32.7,6.8 32.7,6.3 C32.7,6 32.7,5.7 32.6,5.4 C32.5,5 32.4,4.7 32.2,4.4 C32,4.1 31.7,3.8 31.4,3.6 C31.1,3.4 30.6,3.3 30,3.3 L25.4,3.3 L25.4,9.3 Z M25.4,18 L22,18 L22,0.1 L30,0.1 C30.9,0.1 31.7,0.3 32.5,0.6 C33.2,0.9 33.9,1.3 34.4,1.9 C34.9,2.4 35.3,3.1 35.6,3.9 C35.9,4.7 36,5.5 36,6.4 C36,7.8 35.7,8.9 35,10 C34.3,11 33.4,11.7 32.3,12.2 C33.8,14.2 35.2,16.2 36.7,18.2 L32.7,18.2 C32,17.3 31.3,16.3 30.6,15.4 C29.9,14.5 29.3,13.5 28.6,12.5 L25.3,12.5 L25.3,18 L25.4,18 Z" id="Fill-6"></path>
                        <polygon id="Fill-8" points="44.3 18 47.7 18 47.7 0.1 44.3 0.1"></polygon>
                        <path d="M61.4,12.2 L66.4,12.2 L63.9,6.8 L61.4,12.2 Z M54.7,18 L63.7,0.1 L64,0.1 L73,18 L69.3,18 L67.9,15.2 L59.6,15.2 L58.4,18 L54.7,18 Z" id="Fill-10"></path>
                    </g>
                </g>
            </g>
            <path d="M38.17,32.628 L38.17,35.414 L41.264,35.414 L41.264,36.38 L38.17,36.38 L38.17,41 L37.12,41 L37.12,31.662 L41.362,31.662 L41.362,32.628 L38.17,32.628 Z M43.546,38.578 C43.546,38.848668 43.5599999,39.0656659 43.588,39.229 C43.6160001,39.3923341 43.6626663,39.5393327 43.728,39.67 C43.8306672,39.8566676 43.9823323,40.0013328 44.183,40.104 C44.3836677,40.2066672 44.6099987,40.258 44.862,40.258 C45.1046679,40.258 45.3263323,40.2066672 45.527,40.104 C45.7276677,40.0013328 45.8793328,39.8566676 45.982,39.67 C46.0473337,39.5393327 46.0939999,39.3923341 46.122,39.229 C46.1500001,39.0656659 46.164,38.848668 46.164,38.578 L46.164,35.19 L47.158,35.19 L47.158,38.69 C47.158,39.1193355 47.1183337,39.4646654 47.039,39.726 C46.9596663,39.9873346 46.822001,40.2253323 46.626,40.44 C46.4113323,40.6826679 46.1523349,40.8646661 45.849,40.986 C45.5456651,41.1073339 45.2166684,41.168 44.862,41.168 C44.4979982,41.168 44.1643349,41.1073339 43.861,40.986 C43.5576651,40.8646661 43.2986677,40.6826679 43.084,40.44 C42.887999,40.2253323 42.7503337,39.9873346 42.671,39.726 C42.5916663,39.4646654 42.552,39.1193355 42.552,38.69 L42.552,35.19 L43.546,35.19 L43.546,38.578 Z M49.594,38.298 C49.6220001,38.8953363 49.8039983,39.3713316 50.14,39.726 C50.4760017,40.0806684 50.9099973,40.258 51.442,40.258 C51.834002,40.258 52.1606654,40.1670009 52.422,39.985 C52.6833346,39.8029991 52.9539986,39.4880022 53.234,39.04 L54.074,39.516 C53.7473317,40.0853362 53.3670022,40.5029987 52.933,40.769 C52.4989978,41.0350013 51.9880029,41.168 51.4,41.168 C50.9799979,41.168 50.5950018,41.0933341 50.245,40.944 C49.8949983,40.7946659 49.5940013,40.5870013 49.342,40.321 C49.0899987,40.0549987 48.8940007,39.7353352 48.754,39.362 C48.6139993,38.9886648 48.544,38.5780022 48.544,38.13 C48.544,37.6726644 48.611666,37.2573352 48.747,36.884 C48.882334,36.5106648 49.0736654,36.188668 49.321,35.918 C49.5683346,35.647332 49.8646649,35.4373341 50.21,35.288 C50.5553351,35.1386659 50.9379979,35.064 51.358,35.064 C51.7780021,35.064 52.1583316,35.1363326 52.499,35.281 C52.8396684,35.4256674 53.1313321,35.633332 53.374,35.904 C53.6166679,36.174668 53.8033327,36.4966648 53.934,36.87 C54.0646673,37.2433352 54.13,37.663331 54.13,38.13 L54.13,38.298 L49.594,38.298 Z M53.08,37.458 C52.9866662,37.0006644 52.7860015,36.636668 52.478,36.366 C52.1699985,36.095332 51.8013355,35.96 51.372,35.96 C50.9519979,35.96 50.5810016,36.0999986 50.259,36.38 C49.9369984,36.6600014 49.738667,37.0193311 49.664,37.458 L53.08,37.458 Z M56.496,41 L55.502,41 L55.502,30.794 L56.496,30.794 L56.496,41 Z M59.282,41 L58.288,41 L58.288,35.19 L59.282,35.19 L59.282,41 Z M58.792,32.278 C58.988001,32.278 59.1559993,32.3479993 59.296,32.488 C59.4360007,32.6280007 59.506,32.795999 59.506,32.992 C59.506,33.188001 59.4360007,33.3559993 59.296,33.496 C59.1559993,33.6360007 58.988001,33.706 58.792,33.706 C58.595999,33.706 58.4280007,33.6360007 58.288,33.496 C58.1479993,33.3559993 58.078,33.1833344 58.078,32.978 C58.078,32.7913324 58.1479993,32.6280007 58.288,32.488 C58.4280007,32.3479993 58.595999,32.278 58.792,32.278 Z M62.082,35.19 L62.082,35.89 C62.3340013,35.5819985 62.5859987,35.3650006 62.838,35.239 C63.0900013,35.1129994 63.3979982,35.05 63.762,35.05 C64.1166684,35.05 64.4433318,35.1223326 64.742,35.267 C65.0406682,35.4116674 65.2693325,35.6053321 65.428,35.848 C65.5400006,36.0346676 65.6216664,36.2446655 65.673,36.478 C65.7243336,36.7113345 65.75,37.0193314 65.75,37.402 L65.75,41 L64.756,41 L64.756,37.57 C64.756,37.2619985 64.7420001,37.0263341 64.714,36.863 C64.6859999,36.6996659 64.634667,36.5573339 64.56,36.436 C64.363999,36.1093317 64.0186691,35.946 63.524,35.946 C63.0199975,35.946 62.6536678,36.1163316 62.425,36.457 C62.1963322,36.7976684 62.082,37.3459962 62.082,38.102 L62.082,41 L61.088,41 L61.088,35.19 L62.082,35.19 Z M72.946,40.874 C72.946,41.4526696 72.9063337,41.907665 72.827,42.239 C72.7476663,42.570335 72.6006677,42.8759986 72.386,43.156 C72.1246654,43.5013351 71.7933353,43.7673324 71.392,43.954 C70.9906647,44.1406676 70.5473358,44.234 70.062,44.234 C69.2219958,44.234 68.5500025,43.9960024 68.046,43.52 C67.5419975,43.0439976 67.2760001,42.3953374 67.248,41.574 L68.228,41.574 C68.2466668,41.8166679 68.2769998,42.0079993 68.319,42.148 C68.3610002,42.2880007 68.4239996,42.4233327 68.508,42.554 C68.6573341,42.7966679 68.8743319,42.985666 69.159,43.121 C69.4436681,43.256334 69.7539983,43.324 70.09,43.324 C70.4073349,43.324 70.6943321,43.2610006 70.951,43.135 C71.207668,43.0089994 71.4153325,42.8340011 71.574,42.61 C71.8260013,42.2646649 71.952,41.7420035 71.952,41.042 L71.952,40.202 C71.3733304,40.8366698 70.6920039,41.154 69.908,41.154 C69.515998,41.154 69.1496684,41.0770008 68.809,40.923 C68.4683316,40.7689992 68.1743346,40.556668 67.927,40.286 C67.6796654,40.015332 67.4860007,39.6933352 67.346,39.32 C67.2059993,38.9466648 67.136,38.5453355 67.136,38.116 C67.136,37.6773311 67.2059993,37.2690019 67.346,36.891 C67.4860007,36.5129981 67.6819987,36.188668 67.934,35.918 C68.1860013,35.647332 68.4846649,35.4350008 68.83,35.281 C69.1753351,35.1269992 69.5486647,35.05 69.95,35.05 C70.7620041,35.05 71.4293307,35.3719968 71.952,36.016 L71.952,35.19 L72.946,35.19 L72.946,40.874 Z M70.062,35.946 C69.7819986,35.946 69.5253345,35.9996661 69.292,36.107 C69.0586655,36.2143339 68.8580008,36.3636657 68.69,36.555 C68.5219992,36.7463343 68.3913338,36.9749987 68.298,37.241 C68.2046662,37.5070013 68.158,37.7939985 68.158,38.102 C68.158,38.4193349 68.2046662,38.7109987 68.298,38.977 C68.3913338,39.2430013 68.5219992,39.4693324 68.69,39.656 C68.8580008,39.8426676 69.0563322,39.9896661 69.285,40.097 C69.5136678,40.2043339 69.7679986,40.258 70.048,40.258 C70.3280014,40.258 70.5869988,40.2043339 70.825,40.097 C71.0630012,39.9896661 71.2683325,39.8426676 71.441,39.656 C71.6136675,39.4693324 71.7489995,39.2453346 71.847,38.984 C71.9450005,38.7226654 71.994,38.4333349 71.994,38.116 C71.994,37.3879964 71.7840021,36.8326686 71.364,36.45 C70.9813314,36.1139983 70.5473358,35.946 70.062,35.946 Z M79.316,41 L78.322,41 L78.322,36.114 L77.72,36.114 L77.72,35.19 L78.322,35.19 L78.322,33.09 L79.316,33.09 L79.316,35.19 L80.352,35.19 L80.352,36.114 L79.316,36.114 L79.316,41 Z M82.326,30.794 L82.326,35.876 C82.5686679,35.5773318 82.8183321,35.3673339 83.075,35.246 C83.3316679,35.1246661 83.6373316,35.064 83.992,35.064 C84.3466684,35.064 84.6733318,35.1363326 84.972,35.281 C85.2706682,35.4256674 85.4993325,35.6193321 85.658,35.862 C85.7793339,36.0486676 85.8656664,36.2563322 85.917,36.485 C85.9683336,36.7136678 85.994,37.0193314 85.994,37.402 L85.994,41 L85,41 L85,37.472 C85,36.9399973 84.9066676,36.5573345 84.72,36.324 C84.5333324,36.0906655 84.2253355,35.974 83.796,35.974 C83.1986637,35.974 82.7880011,36.2026644 82.564,36.66 C82.4799996,36.8280008 82.4193335,37.0239989 82.382,37.248 C82.3446665,37.4720011 82.326,37.7566649 82.326,38.102 L82.326,41 L81.332,41 L81.332,30.794 L82.326,30.794 Z M88.43,38.298 C88.4580001,38.8953363 88.6399983,39.3713316 88.976,39.726 C89.3120017,40.0806684 89.7459973,40.258 90.278,40.258 C90.670002,40.258 90.9966654,40.1670009 91.258,39.985 C91.5193346,39.8029991 91.7899986,39.4880022 92.07,39.04 L92.91,39.516 C92.5833317,40.0853362 92.2030022,40.5029987 91.769,40.769 C91.3349978,41.0350013 90.8240029,41.168 90.236,41.168 C89.8159979,41.168 89.4310018,41.0933341 89.081,40.944 C88.7309982,40.7946659 88.4300013,40.5870013 88.178,40.321 C87.9259987,40.0549987 87.7300007,39.7353352 87.59,39.362 C87.4499993,38.9886648 87.38,38.5780022 87.38,38.13 C87.38,37.6726644 87.447666,37.2573352 87.583,36.884 C87.718334,36.5106648 87.9096654,36.188668 88.157,35.918 C88.4043346,35.647332 88.7006649,35.4373341 89.046,35.288 C89.3913351,35.1386659 89.7739979,35.064 90.194,35.064 C90.6140021,35.064 90.9943316,35.1363326 91.335,35.281 C91.6756684,35.4256674 91.9673321,35.633332 92.21,35.904 C92.4526679,36.174668 92.6393327,36.4966648 92.77,36.87 C92.9006673,37.2433352 92.966,37.663331 92.966,38.13 L92.966,38.298 L88.43,38.298 Z M91.916,37.458 C91.8226662,37.0006644 91.6220015,36.636668 91.314,36.366 C91.0059985,36.095332 90.6373355,35.96 90.208,35.96 C89.7879979,35.96 89.4170016,36.0999986 89.095,36.38 C88.7729984,36.6600014 88.574667,37.0193311 88.5,37.458 L91.916,37.458 Z M99.196,38.354 L98.076,41 L96.942,41 L101.24,31.214 L105.44,41 L104.292,41 L103.186,38.354 L99.196,38.354 Z M101.226,33.65 L99.63,37.388 L102.78,37.388 L101.226,33.65 Z M107.61,41 L106.56,41 L106.56,31.662 L107.61,31.662 L107.61,41 Z M118.614,38.186 C118.772667,38.0273325 118.949999,37.8313345 119.146,37.598 C119.342001,37.3646655 119.519333,37.150001 119.678,36.954 L120.42,37.584 C120.289333,37.7706676 120.112001,37.9946654 119.888,38.256 C119.663999,38.5173346 119.444668,38.7553323 119.23,38.97 L120.826,41 L119.524,41 L118.502,39.698 C117.932664,40.2206693 117.412336,40.5986655 116.941,40.832 C116.469664,41.0653345 115.991336,41.182 115.506,41.182 C115.132665,41.182 114.780335,41.114334 114.449,40.979 C114.117665,40.843666 113.830668,40.6593345 113.588,40.426 C113.345332,40.1926655 113.154001,39.9173349 113.014,39.6 C112.873999,39.2826651 112.804,38.9420018 112.804,38.578 C112.804,37.719329 113.223996,36.9540034 114.064,36.282 C114.194667,36.1793328 114.332333,36.0743339 114.477,35.967 C114.621667,35.8596661 114.866665,35.6986677 115.212,35.484 C115.034666,35.2413321 114.885334,35.0290009 114.764,34.847 C114.642666,34.6649991 114.544667,34.4970008 114.47,34.343 C114.395333,34.1889992 114.344,34.044334 114.316,33.909 C114.288,33.773666 114.274,33.6313341 114.274,33.482 C114.274,33.2019986 114.325333,32.9406679 114.428,32.698 C114.530667,32.4553321 114.672999,32.2453342 114.855,32.068 C115.037001,31.8906658 115.253999,31.7530005 115.506,31.655 C115.758001,31.5569995 116.028665,31.508 116.318,31.508 C116.598001,31.508 116.859332,31.5546662 117.102,31.648 C117.344668,31.7413338 117.554666,31.8719992 117.732,32.04 C117.909334,32.2080008 118.049333,32.4063322 118.152,32.635 C118.254667,32.8636678 118.306,33.113332 118.306,33.384 C118.306,33.925336 118.068002,34.4339976 117.592,34.91 C117.489333,35.0126672 117.372667,35.1176661 117.242,35.225 C117.111333,35.3323339 116.915335,35.483999 116.654,35.68 L118.614,38.186 Z M115.688,36.338 C115.473332,36.4873341 115.305334,36.6016663 115.184,36.681 C115.062666,36.7603337 114.962334,36.8279997 114.883,36.884 C114.803666,36.9400003 114.738334,36.9913331 114.687,37.038 C114.635666,37.0846669 114.568,37.145333 114.484,37.22 C114.045331,37.612002 113.826,38.0506642 113.826,38.536 C113.826,38.7600011 113.870333,38.9746656 113.959,39.18 C114.047667,39.3853344 114.168999,39.5649992 114.323,39.719 C114.477001,39.8730008 114.654332,39.9966662 114.855,40.09 C115.055668,40.1833338 115.267999,40.23 115.492,40.23 C115.828002,40.23 116.184998,40.1273344 116.563,39.922 C116.941002,39.7166656 117.381997,39.3853356 117.886,38.928 L115.814,36.24 L115.688,36.338 Z M116.052,34.924 C116.332001,34.7186656 116.555999,34.548334 116.724,34.413 C116.892001,34.277666 117.018,34.1540006 117.102,34.042 C117.186,33.9299994 117.242,33.8250005 117.27,33.727 C117.298,33.6289995 117.312,33.5100007 117.312,33.37 C117.312,33.0899986 117.216334,32.8590009 117.025,32.677 C116.833666,32.4949991 116.588668,32.404 116.29,32.404 C116.000665,32.404 115.758001,32.501999 115.562,32.698 C115.365999,32.894001 115.268,33.1366652 115.268,33.426 C115.268,33.7153348 115.389332,34.0233317 115.632,34.35 C115.725334,34.4713339 115.795333,34.5669996 115.842,34.637 C115.888667,34.7070004 115.926,34.7583332 115.954,34.791 C115.982,34.8236668 116.003,34.8493332 116.017,34.868 C116.031,34.8866668 116.042667,34.9053332 116.052,34.924 Z M130.822,41 L129.548,41 L126.734,36.912 L126.468,36.912 L126.468,41 L125.418,41 L125.418,31.662 L126.93,31.662 C127.462003,31.662 127.900665,31.699333 128.246,31.774 C128.591335,31.848667 128.899332,31.9793324 129.17,32.166 C129.496668,32.3806677 129.750999,32.6746648 129.933,33.048 C130.115001,33.4213352 130.206,33.8319978 130.206,34.28 C130.206,34.9893369 129.993669,35.5749977 129.569,36.037 C129.144331,36.4990023 128.57267,36.7626663 127.854,36.828 L130.822,41 Z M127.126,35.988 C127.78867,35.988 128.297332,35.8410015 128.652,35.547 C129.006668,35.2529985 129.184,34.8306694 129.184,34.28 C129.184,33.9906652 129.123334,33.7270012 129.002,33.489 C128.880666,33.2509988 128.712668,33.0666673 128.498,32.936 C128.329999,32.8333328 128.134001,32.7563336 127.91,32.705 C127.685999,32.6536664 127.410668,32.628 127.084,32.628 L126.468,32.628 L126.468,35.988 L127.126,35.988 Z M134.434,35.064 C134.863335,35.064 135.264665,35.1433325 135.638,35.302 C136.011335,35.4606675 136.335665,35.675332 136.611,35.946 C136.886335,36.216668 137.103333,36.5386648 137.262,36.912 C137.420667,37.2853352 137.5,37.6866645 137.5,38.116 C137.5,38.5453355 137.420667,38.9466648 137.262,39.32 C137.103333,39.6933352 136.886335,40.015332 136.611,40.286 C136.335665,40.556668 136.009002,40.7713325 135.631,40.93 C135.252998,41.0886675 134.844669,41.168 134.406,41.168 C133.976665,41.168 133.575335,41.0886675 133.202,40.93 C132.828665,40.7713325 132.506668,40.5520014 132.236,40.272 C131.965332,39.9919986 131.750667,39.6630019 131.592,39.285 C131.433333,38.9069981 131.354,38.4986689 131.354,38.06 C131.354,37.6493313 131.435666,37.2620018 131.599,36.898 C131.762334,36.5339982 131.983999,36.216668 132.264,35.946 C132.544001,35.675332 132.870665,35.4606675 133.244,35.302 C133.617335,35.1433325 134.013998,35.064 134.434,35.064 Z M134.42,35.974 C134.130665,35.974 133.860001,36.0276661 133.608,36.135 C133.355999,36.2423339 133.139001,36.3893324 132.957,36.576 C132.774999,36.7626676 132.632667,36.9866654 132.53,37.248 C132.427333,37.5093346 132.376,37.7893318 132.376,38.088 C132.376,38.4053349 132.425,38.6969987 132.523,38.963 C132.621,39.2290013 132.760999,39.4576657 132.943,39.649 C133.125001,39.8403343 133.339665,39.9896661 133.587,40.097 C133.834335,40.2043339 134.107332,40.258 134.406,40.258 C134.704668,40.258 134.982332,40.2043339 135.239,40.097 C135.495668,39.9896661 135.714999,39.8426676 135.897,39.656 C136.079001,39.4693324 136.221333,39.2453346 136.324,38.984 C136.426667,38.7226654 136.478,38.4333349 136.478,38.116 C136.478,37.8079985 136.426667,37.5210013 136.324,37.255 C136.221333,36.9889987 136.079001,36.7626676 135.897,36.576 C135.714999,36.3893324 135.498001,36.2423339 135.246,36.135 C134.993999,36.0276661 134.718668,35.974 134.42,35.974 Z M139.866,36.016 C140.155335,35.6893317 140.460998,35.4490008 140.783,35.295 C141.105002,35.1409992 141.475998,35.064 141.896,35.064 C142.297335,35.064 142.665998,35.1386659 143.002,35.288 C143.338002,35.4373341 143.629665,35.647332 143.877,35.918 C144.124335,36.188668 144.317999,36.5083315 144.458,36.877 C144.598001,37.2456685 144.668,37.6493311 144.668,38.088 C144.668,38.5360022 144.598001,38.9466648 144.458,39.32 C144.317999,39.6933352 144.122001,40.0176653 143.87,40.293 C143.617999,40.5683347 143.321668,40.7829992 142.981,40.937 C142.640332,41.0910008 142.269335,41.168 141.868,41.168 C141.065329,41.168 140.398003,40.8460032 139.866,40.202 L139.866,41 L138.872,41 L138.872,30.794 L139.866,30.794 L139.866,36.016 Z M141.742,35.974 C141.16333,35.974 140.694335,36.1676647 140.335,36.555 C139.975665,36.9423353 139.796,37.4579968 139.796,38.102 C139.796,38.4193349 139.842666,38.7086654 139.936,38.97 C140.029334,39.2313346 140.162332,39.4576657 140.335,39.649 C140.507668,39.8403343 140.712999,39.9896661 140.951,40.097 C141.189001,40.2043339 141.447999,40.258 141.728,40.258 C141.998668,40.258 142.250666,40.2043339 142.484,40.097 C142.717335,39.9896661 142.920332,39.8403343 143.093,39.649 C143.265668,39.4576657 143.401,39.2336679 143.499,38.977 C143.597,38.7203321 143.646,38.4380015 143.646,38.13 C143.646,37.8219985 143.599334,37.5350013 143.506,37.269 C143.412666,37.0029987 143.282001,36.7743343 143.114,36.583 C142.945999,36.3916657 142.745335,36.2423339 142.512,36.135 C142.278666,36.0276661 142.022001,35.974 141.742,35.974 Z M148.728,35.064 C149.157335,35.064 149.558665,35.1433325 149.932,35.302 C150.305335,35.4606675 150.629665,35.675332 150.905,35.946 C151.180335,36.216668 151.397333,36.5386648 151.556,36.912 C151.714667,37.2853352 151.794,37.6866645 151.794,38.116 C151.794,38.5453355 151.714667,38.9466648 151.556,39.32 C151.397333,39.6933352 151.180335,40.015332 150.905,40.286 C150.629665,40.556668 150.303002,40.7713325 149.925,40.93 C149.546998,41.0886675 149.138669,41.168 148.7,41.168 C148.270665,41.168 147.869335,41.0886675 147.496,40.93 C147.122665,40.7713325 146.800668,40.5520014 146.53,40.272 C146.259332,39.9919986 146.044667,39.6630019 145.886,39.285 C145.727333,38.9069981 145.648,38.4986689 145.648,38.06 C145.648,37.6493313 145.729666,37.2620018 145.893,36.898 C146.056334,36.5339982 146.277999,36.216668 146.558,35.946 C146.838001,35.675332 147.164665,35.4606675 147.538,35.302 C147.911335,35.1433325 148.307998,35.064 148.728,35.064 Z M148.714,35.974 C148.424665,35.974 148.154001,36.0276661 147.902,36.135 C147.649999,36.2423339 147.433001,36.3893324 147.251,36.576 C147.068999,36.7626676 146.926667,36.9866654 146.824,37.248 C146.721333,37.5093346 146.67,37.7893318 146.67,38.088 C146.67,38.4053349 146.719,38.6969987 146.817,38.963 C146.915,39.2290013 147.054999,39.4576657 147.237,39.649 C147.419001,39.8403343 147.633665,39.9896661 147.881,40.097 C148.128335,40.2043339 148.401332,40.258 148.7,40.258 C148.998668,40.258 149.276332,40.2043339 149.533,40.097 C149.789668,39.9896661 150.008999,39.8426676 150.191,39.656 C150.373001,39.4693324 150.515333,39.2453346 150.618,38.984 C150.720667,38.7226654 150.772,38.4333349 150.772,38.116 C150.772,37.8079985 150.720667,37.5210013 150.618,37.255 C150.515333,36.9889987 150.373001,36.7626676 150.191,36.576 C150.008999,36.3893324 149.792001,36.2423339 149.54,36.135 C149.287999,36.0276661 149.012668,35.974 148.714,35.974 Z M154.202,41 L153.208,41 L153.208,36.114 L152.606,36.114 L152.606,35.19 L153.208,35.19 L153.208,33.09 L154.202,33.09 L154.202,35.19 L155.238,35.19 L155.238,36.114 L154.202,36.114 L154.202,41 Z M157.17,41 L156.176,41 L156.176,35.19 L157.17,35.19 L157.17,41 Z M156.68,32.278 C156.876001,32.278 157.043999,32.3479993 157.184,32.488 C157.324001,32.6280007 157.394,32.795999 157.394,32.992 C157.394,33.188001 157.324001,33.3559993 157.184,33.496 C157.043999,33.6360007 156.876001,33.706 156.68,33.706 C156.483999,33.706 156.316001,33.6360007 156.176,33.496 C156.035999,33.3559993 155.966,33.1833344 155.966,32.978 C155.966,32.7913324 156.035999,32.6280007 156.176,32.488 C156.316001,32.3479993 156.483999,32.278 156.68,32.278 Z M163.47,36.926 C163.143332,36.5713316 162.847001,36.3240007 162.581,36.184 C162.314999,36.0439993 162.004668,35.974 161.65,35.974 C161.360665,35.974 161.090001,36.0276661 160.838,36.135 C160.585999,36.2423339 160.366668,36.3916657 160.18,36.583 C159.993332,36.7743343 159.848667,37.0006654 159.746,37.262 C159.643333,37.5233346 159.592,37.8079985 159.592,38.116 C159.592,38.4240015 159.643333,38.7086654 159.746,38.97 C159.848667,39.2313346 159.990999,39.4576657 160.173,39.649 C160.355001,39.8403343 160.569665,39.9896661 160.817,40.097 C161.064335,40.2043339 161.332665,40.258 161.622,40.258 C161.986002,40.258 162.310332,40.1833341 162.595,40.034 C162.879668,39.8846659 163.185332,39.6233352 163.512,39.25 L163.512,40.566 C163.157332,40.7900011 162.842335,40.9463329 162.567,41.035 C162.291665,41.1236671 161.986002,41.168 161.65,41.168 C161.220665,41.168 160.817002,41.0886675 160.439,40.93 C160.060998,40.7713325 159.734335,40.556668 159.459,40.286 C159.183665,40.015332 158.966667,39.6956685 158.808,39.327 C158.649333,38.9583315 158.57,38.5593355 158.57,38.13 C158.57,37.6913311 158.649333,37.2853352 158.808,36.912 C158.966667,36.5386648 159.183665,36.216668 159.459,35.946 C159.734335,35.675332 160.060998,35.4606675 160.439,35.302 C160.817002,35.1433325 161.225331,35.064 161.664,35.064 C162.009335,35.064 162.321999,35.1059996 162.602,35.19 C162.882001,35.2740004 163.171332,35.413999 163.47,35.61 L163.47,36.926 Z M167.264,36.548 C167.058666,36.1653314 166.788002,35.974 166.452,35.974 C166.265332,35.974 166.102001,36.0369994 165.962,36.163 C165.821999,36.2890006 165.752,36.4406658 165.752,36.618 C165.752,36.7860008 165.814999,36.9259994 165.941,37.038 C166.067001,37.1500006 166.316665,37.2853325 166.69,37.444 C166.858001,37.5093337 166.997999,37.5676664 167.11,37.619 C167.222001,37.6703336 167.317666,37.7169998 167.397,37.759 C167.476334,37.8010002 167.546333,37.8406665 167.607,37.878 C167.667667,37.9153335 167.730666,37.9573331 167.796,38.004 C168.225335,38.3213349 168.44,38.7459973 168.44,39.278 C168.44,39.548668 168.388667,39.7983322 168.286,40.027 C168.183333,40.2556678 168.043334,40.4539992 167.866,40.622 C167.688666,40.7900008 167.478668,40.9229995 167.236,41.021 C166.993332,41.1190005 166.732001,41.168 166.452,41.168 C165.481328,41.168 164.804669,40.6733383 164.422,39.684 L165.304,39.32 C165.472001,39.6746684 165.639999,39.919666 165.808,40.055 C165.976001,40.190334 166.195332,40.258 166.466,40.258 C166.736668,40.258 166.962999,40.1716675 167.145,39.999 C167.327001,39.8263325 167.418,39.6093346 167.418,39.348 C167.418,39.1239989 167.352667,38.9466673 167.222,38.816 C167.091333,38.6853327 166.844002,38.5406675 166.48,38.382 C166.143998,38.2326659 165.868668,38.0973339 165.654,37.976 C165.439332,37.8546661 165.269001,37.7310006 165.143,37.605 C165.016999,37.4789994 164.928334,37.3436674 164.877,37.199 C164.825666,37.0543326 164.8,36.884001 164.8,36.688 C164.8,36.4546655 164.842,36.240001 164.926,36.044 C165.01,35.847999 165.128999,35.6776674 165.283,35.533 C165.437001,35.3883326 165.616666,35.2740004 165.822,35.19 C166.027334,35.1059996 166.251332,35.064 166.494,35.064 C167.203337,35.064 167.735332,35.4139965 168.09,36.114 L167.264,36.548 Z M174.586,32.628 L174.586,35.414 L177.68,35.414 L177.68,36.38 L174.586,36.38 L174.586,41 L173.536,41 L173.536,31.662 L177.778,31.662 L177.778,32.628 L174.586,32.628 Z M179.962,38.578 C179.962,38.848668 179.976,39.0656659 180.004,39.229 C180.032,39.3923341 180.078666,39.5393327 180.144,39.67 C180.246667,39.8566676 180.398332,40.0013328 180.599,40.104 C180.799668,40.2066672 181.025999,40.258 181.278,40.258 C181.520668,40.258 181.742332,40.2066672 181.943,40.104 C182.143668,40.0013328 182.295333,39.8566676 182.398,39.67 C182.463334,39.5393327 182.51,39.3923341 182.538,39.229 C182.566,39.0656659 182.58,38.848668 182.58,38.578 L182.58,35.19 L183.574,35.19 L183.574,38.69 C183.574,39.1193355 183.534334,39.4646654 183.455,39.726 C183.375666,39.9873346 183.238001,40.2253323 183.042,40.44 C182.827332,40.6826679 182.568335,40.8646661 182.265,40.986 C181.961665,41.1073339 181.632668,41.168 181.278,41.168 C180.913998,41.168 180.580335,41.1073339 180.277,40.986 C179.973665,40.8646661 179.714668,40.6826679 179.5,40.44 C179.303999,40.2253323 179.166334,39.9873346 179.087,39.726 C179.007666,39.4646654 178.968,39.1193355 178.968,38.69 L178.968,35.19 L179.962,35.19 L179.962,38.578 Z M186.444,41 L185.45,41 L185.45,36.114 L184.848,36.114 L184.848,35.19 L185.45,35.19 L185.45,33.09 L186.444,33.09 L186.444,35.19 L187.48,35.19 L187.48,36.114 L186.444,36.114 L186.444,41 Z M189.412,38.578 C189.412,38.848668 189.426,39.0656659 189.454,39.229 C189.482,39.3923341 189.528666,39.5393327 189.594,39.67 C189.696667,39.8566676 189.848332,40.0013328 190.049,40.104 C190.249668,40.2066672 190.475999,40.258 190.728,40.258 C190.970668,40.258 191.192332,40.2066672 191.393,40.104 C191.593668,40.0013328 191.745333,39.8566676 191.848,39.67 C191.913334,39.5393327 191.96,39.3923341 191.988,39.229 C192.016,39.0656659 192.03,38.848668 192.03,38.578 L192.03,35.19 L193.024,35.19 L193.024,38.69 C193.024,39.1193355 192.984334,39.4646654 192.905,39.726 C192.825666,39.9873346 192.688001,40.2253323 192.492,40.44 C192.277332,40.6826679 192.018335,40.8646661 191.715,40.986 C191.411665,41.1073339 191.082668,41.168 190.728,41.168 C190.363998,41.168 190.030335,41.1073339 189.727,40.986 C189.423665,40.8646661 189.164668,40.6826679 188.95,40.44 C188.753999,40.2253323 188.616334,39.9873346 188.537,39.726 C188.457666,39.4646654 188.418,39.1193355 188.418,38.69 L188.418,35.19 L189.412,35.19 L189.412,38.578 Z M195.81,35.19 L195.81,35.82 C195.940667,35.6613325 196.057333,35.5330005 196.16,35.435 C196.262667,35.3369995 196.363,35.2600003 196.461,35.204 C196.559,35.1479997 196.659333,35.1083335 196.762,35.085 C196.864667,35.0616665 196.985999,35.05 197.126,35.05 C197.284667,35.05 197.426999,35.0663332 197.553,35.099 C197.679001,35.1316668 197.830666,35.1993328 198.008,35.302 L197.546,36.198 C197.415333,36.123333 197.310334,36.0720001 197.231,36.044 C197.151666,36.0159999 197.060667,36.002 196.958,36.002 C196.771332,36.002 196.591668,36.0509995 196.419,36.149 C196.246332,36.2470005 196.118,36.3753325 196.034,36.534 C195.959333,36.6740007 195.903334,36.8536656 195.866,37.073 C195.828666,37.2923344 195.81,37.5793316 195.81,37.934 L195.81,41 L194.816,41 L194.816,35.19 L195.81,35.19 Z M199.268,38.298 C199.296,38.8953363 199.477998,39.3713316 199.814,39.726 C200.150002,40.0806684 200.583997,40.258 201.116,40.258 C201.508002,40.258 201.834665,40.1670009 202.096,39.985 C202.357335,39.8029991 202.627999,39.4880022 202.908,39.04 L203.748,39.516 C203.421332,40.0853362 203.041002,40.5029987 202.607,40.769 C202.172998,41.0350013 201.662003,41.168 201.074,41.168 C200.653998,41.168 200.269002,41.0933341 199.919,40.944 C199.568998,40.7946659 199.268001,40.5870013 199.016,40.321 C198.763999,40.0549987 198.568001,39.7353352 198.428,39.362 C198.287999,38.9886648 198.218,38.5780022 198.218,38.13 C198.218,37.6726644 198.285666,37.2573352 198.421,36.884 C198.556334,36.5106648 198.747665,36.188668 198.995,35.918 C199.242335,35.647332 199.538665,35.4373341 199.884,35.288 C200.229335,35.1386659 200.611998,35.064 201.032,35.064 C201.452002,35.064 201.832332,35.1363326 202.173,35.281 C202.513668,35.4256674 202.805332,35.633332 203.048,35.904 C203.290668,36.174668 203.477333,36.4966648 203.608,36.87 C203.738667,37.2433352 203.804,37.663331 203.804,38.13 L203.804,38.298 L199.268,38.298 Z M202.754,37.458 C202.660666,37.0006644 202.460002,36.636668 202.152,36.366 C201.843998,36.095332 201.475335,35.96 201.046,35.96 C200.625998,35.96 200.255002,36.0999986 199.933,36.38 C199.610998,36.6600014 199.412667,37.0193311 199.338,37.458 L202.754,37.458 Z" id="Fueling-the-AI-&amp;-Rob" fill="#1AEEC2"></path>
        </g>
    </g>
</svg>