<svg width="64" height="64" viewBox="0 0 64 64" fill="none" xmlns="http://www.w3.org/2000/svg">
<circle cx="32" cy="32" r="32" fill="#1AEEC2"/>
<path d="M16.655 7.35588C16.186 3.52877 13.1655 0.515883 9.33718 0.056531C9.00755 0.0189138 8.6761 7.00035e-05 8.34429 -3.0899e-07C4.961 0.00520282 1.91464 2.04989 0.628059 5.17901C-0.658519 8.30812 0.068583 11.9043 2.46975 14.2879C3.74663 15.5107 4.47788 17.1958 4.49876 18.9636V19.9292H12.213V18.9586C12.2189 17.2242 12.9245 15.5656 14.1699 14.3585C16.051 12.5435 16.9711 9.95091 16.655 7.35616V7.35588H16.655Z" transform="translate(23.644 23.6421)" fill="#1F4250"/>
<path d="M1.81835 1.28573C2.63538 1.28482 3.36347 0.769991 3.63677 -7.5531e-07H5.3215e-07C0.273235 0.769991 1.00132 1.28482 1.81835 1.28573Z" transform="translate(30.1817 48.7142)" fill="#1F4250"/>
<path d="M-3.17574e-07 1.9286C0.00049187 2.28347 0.288 2.57098 0.642867 2.57147H5.78573C6.1406 2.57098 6.42811 2.28347 6.4286 1.9286V-3.77655e-07H-3.17574e-07V1.9286Z" transform="translate(28.7857 44.8572)" fill="#1F4250"/>
<path d="M1.28573 5.78573C1.99582 5.78573 2.57147 5.21009 2.57147 4.5V1.28573C2.57147 0.575648 1.99582 0 1.28573 0C0.575648 0 3.17574e-07 0.575648 3.17574e-07 1.28573V4.5C3.17574e-07 5.21009 0.575648 5.78573 1.28573 5.78573Z" transform="translate(30.7143 14)" fill="#1F4250"/>
<path d="M2.6493 4.46766C3.15809 4.95359 3.95895 4.95359 4.46773 4.46766C4.7089 4.22655 4.84439 3.89946 4.84439 3.55845C4.84439 3.21743 4.7089 2.89034 4.46773 2.64923L2.19473 0.376664C1.9537 0.135492 1.62668 0 1.28573 0C0.944789 0 0.617766 0.135492 0.376664 0.376664C0.135492 0.617696 0 0.944719 0 1.28573C0 1.62675 0.135492 1.9537 0.376664 2.1948L2.6493 4.46766Z" transform="translate(18.5 18.5)" fill="#1F4250"/>
<path d="M5.78573 1.28573C5.78573 0.575648 5.21009 3.17574e-07 4.5 3.17574e-07H1.28573C0.57593 0.000703443 0.000703125 0.57593 0 1.28573C0.000703125 1.99554 0.57593 2.57077 1.28573 2.57147H4.5C5.21009 2.57147 5.78573 1.99582 5.78573 1.28573Z" transform="translate(14 30.7142)" fill="#1F4250"/>
<path d="M3.89215 0.0436314C3.44777 -0.0751265 2.97387 0.0524898 2.64923 0.378388L0.376664 2.65131C0.135492 2.89234 -3.86238e-08 3.21936 -3.86238e-08 3.56038C-3.86238e-08 3.9014 0.135492 4.22835 0.376664 4.46945C0.885305 4.95538 1.68609 4.95538 2.19473 4.46945L4.46766 2.19688C4.79348 1.87225 4.92117 1.39834 4.80241 0.953967C4.68366 0.509592 4.33652 0.162389 3.89215 0.0436314Z" transform="translate(18.5001 40.6539)" fill="#1F4250"/>
<path d="M2.19674 0.378379C1.87211 0.0525504 1.3982 -0.0751361 0.953827 0.0436217C0.509452 0.162379 0.162389 0.509443 0.0436314 0.953818C-0.0751265 1.39819 0.0524898 1.8721 0.378388 2.19673L2.65131 4.4693C3.15995 4.95523 3.96074 4.95523 4.46938 4.4693C4.71055 4.22827 4.84605 3.90125 4.84605 3.56023C4.84605 3.21922 4.71055 2.89226 4.46938 2.65116L2.19674 0.378379Z" transform="translate(40.654 40.6539)" fill="#1F4250"/>
<path d="M4.5 3.17574e-07H1.28573C0.575648 3.17574e-07 -7.5531e-07 0.575648 -7.5531e-07 1.28573C-7.5531e-07 1.99582 0.575648 2.57147 1.28573 2.57147H4.5C5.21009 2.57147 5.78573 1.99582 5.78573 1.28573C5.78573 0.575648 5.21009 3.17574e-07 4.5 3.17574e-07Z" transform="translate(44.2143 30.7142)" fill="#1F4250"/>
<path d="M2.19516 4.46763L4.46773 2.19471C4.7925 1.86993 4.91934 1.39659 4.80045 0.952918C4.68155 0.509246 4.33505 0.162746 3.89138 0.0438474C3.4477 -0.075051 2.97436 0.0517929 2.64959 0.376566L0.376665 2.64914C0.135493 2.89024 9.26971e-07 3.21733 9.26971e-07 3.55835C9.26971e-07 3.89936 0.135493 4.22646 0.376665 4.46756C0.885516 4.95356 1.68645 4.95356 2.19516 4.46763Z" transform="translate(40.6555 18.5)" fill="#1F4250"/>
</svg>
