<svg width="64" height="64" viewBox="0 0 64 64" fill="none" xmlns="http://www.w3.org/2000/svg">
<circle cx="32" cy="32" r="32" fill="#1AEEC2"/>
<path d="M17.2118 20.2667L16.3129 18.2622C17.1698 17.6303 17.9057 16.8443 18.4807 15.9472L20.5273 16.7262C20.9187 16.8752 21.356 16.6772 21.5041 16.2842L22.2563 14.2897C22.3275 14.101 22.3211 13.8915 22.2386 13.7075C22.156 13.5235 22.0042 13.3799 21.8161 13.3084L19.7696 12.5294C19.9308 11.4745 19.898 10.3962 19.673 9.35249L21.6684 8.44956C21.8516 8.3666 21.9945 8.21408 22.0657 8.02519C22.1369 7.83644 22.1305 7.627 22.0479 7.44297L21.176 5.49843C21.0041 5.11516 20.5553 4.94468 20.1741 5.11714L18.1788 6.02007C17.5498 5.1593 16.7673 4.42 15.8743 3.84235L16.6498 1.78639C16.798 1.39338 16.601 0.953934 16.2098 0.805068L14.2246 0.0493261C14.0368 -0.0220622 13.8283 -0.0158215 13.645 0.0671351C13.4618 0.150092 13.3189 0.30261 13.2477 0.491508L12.4724 2.54731C11.4213 2.38444 10.3461 2.41808 9.30988 2.64412L8.41121 0.639764C8.32864 0.455737 8.17682 0.3122 7.98878 0.240659C7.80105 0.169271 7.59241 0.175512 7.40922 0.258468L5.47341 1.13446C5.09188 1.30707 4.92203 1.75762 5.09385 2.1409L5.99266 4.1454C5.13582 4.77724 4.3999 5.56328 3.82488 6.46043L1.77831 5.6814C1.59058 5.61001 1.38209 5.6164 1.19875 5.6992C1.01556 5.78216 0.872679 5.93468 0.801465 6.12358L0.0493237 8.11788C-0.0988621 8.5109 0.0981129 8.95034 0.489336 9.09921L2.53591 9.87824C2.37469 10.9329 2.40742 12.0115 2.63242 13.0551L0.636915 13.958C0.453729 14.041 0.310846 14.1935 0.239632 14.3824C0.168418 14.5711 0.174782 14.7806 0.25736 14.9646L1.12935 16.9092C1.21178 17.0932 1.36375 17.2367 1.55164 17.3083C1.73967 17.3798 1.94801 17.3736 2.1312 17.2905L4.12655 16.3875C4.75551 17.2484 5.5378 17.9876 6.43101 18.5652L5.65553 20.6212C5.50735 21.0142 5.70432 21.4537 6.09555 21.6025L8.0809 22.3581C8.16742 22.391 8.25848 22.4074 8.34924 22.4074C8.45546 22.4074 8.56167 22.3851 8.66046 22.3403C8.84365 22.2573 8.98653 22.1048 9.05775 21.9159L9.83307 19.8601C10.8842 20.0228 11.9595 19.9894 12.9956 19.7633L13.8942 21.7677C13.9768 21.9517 14.1286 22.0952 14.3167 22.1668C14.5046 22.2383 14.7132 22.2321 14.8962 22.149L16.8319 21.2731C17.2136 21.1005 17.3836 20.65 17.2118 20.2667ZM15.9563 13.0321C15.2043 15.0261 13.2735 16.3658 11.1517 16.3658C10.5311 16.3658 9.91913 16.2525 9.33276 16.0294C8.04969 15.5411 7.03269 14.58 6.46919 13.3231C5.90569 12.0665 5.86312 10.6644 6.34919 9.37548C7.10118 7.38147 9.03199 6.04184 11.1537 6.04184C11.7743 6.04184 12.3863 6.15509 12.9727 6.37823C14.2558 6.86653 15.2728 7.82761 15.8363 9.08429C16.3999 10.3411 16.4425 11.7432 15.9563 13.0321ZM32.8005 23.4247C32.6647 23.276 32.4755 23.1875 32.2749 23.1789L30.8479 23.1174C30.7165 22.4408 30.4792 21.7876 30.1459 21.1847L31.1982 20.2145C31.5065 19.9303 31.527 19.4488 31.2441 19.1392L30.1992 17.9955C30.0635 17.8468 29.8742 17.7584 29.6735 17.7497C29.4731 17.7422 29.2768 17.813 29.1287 17.9494L28.0766 18.9196C27.507 18.5343 26.8796 18.241 26.2199 18.0517L26.2811 16.6181C26.299 16.1982 25.9746 15.8432 25.5565 15.8252L24.0127 15.7587C23.5968 15.7429 23.2413 16.0667 23.2234 16.4865L23.1622 17.92C22.4889 18.052 21.8387 18.2903 21.2384 18.6251L20.2726 17.5679C20.1368 17.4192 19.9476 17.3308 19.747 17.3221C19.5464 17.3139 19.3503 17.3854 19.2023 17.5218L18.0637 18.5715C17.7554 18.8557 17.735 19.3371 18.0178 19.6467L18.9836 20.7039C18.6001 21.276 18.3081 21.9062 18.1197 22.5691L16.6928 22.5076C16.2766 22.4907 15.9213 22.8154 15.9034 23.2353L15.8372 24.7862C15.8285 24.9879 15.9001 25.1847 16.036 25.3334C16.1717 25.4822 16.361 25.5706 16.5617 25.5793L17.9886 25.6406C18.12 26.3172 18.3572 26.9703 18.6904 27.5734L17.6383 28.5436C17.4902 28.68 17.4022 28.8701 17.3936 29.0717C17.3849 29.2733 17.4565 29.4702 17.5924 29.6189L18.6372 30.7626C18.773 30.9113 18.9623 30.9998 19.163 31.0084C19.3629 31.0165 19.5597 30.9451 19.7077 30.8087L20.7599 29.8385C21.3294 30.2238 21.9569 30.5171 22.6166 30.7064L22.5554 32.14C22.5375 32.5599 22.8618 32.9149 23.2798 32.9329L24.8236 32.9994C24.8345 32.9998 24.8453 33 24.8561 33C25.0455 33 25.2283 32.9288 25.3683 32.7997C25.5164 32.6633 25.6044 32.4732 25.613 32.2717L25.6743 30.8381C26.3476 30.7061 26.9978 30.4678 27.5981 30.133L28.5639 31.1902C28.6996 31.3389 28.8889 31.4273 29.0895 31.436C29.291 31.4448 29.4863 31.3727 29.6342 31.2363L30.7727 30.1866C31.0811 29.9024 31.1015 29.421 30.8186 29.1114L29.8529 28.0543C30.2363 27.4821 30.5283 26.8519 30.7168 26.189L32.1437 26.2505C32.5613 26.2667 32.9151 25.9428 32.9331 25.5228L32.9993 23.9719C33.0079 23.7702 32.9364 23.5734 32.8005 23.4247ZM24.2668 27.9247C22.3207 27.841 20.8052 26.1822 20.8887 24.2271C20.9699 22.3223 22.5189 20.8302 24.415 20.8302C24.4662 20.8302 24.5177 20.8313 24.5694 20.8335C26.5155 20.9174 28.031 22.5761 27.9475 24.5311C27.864 26.4875 26.2288 28.0075 24.2668 27.9247Z" transform="translate(50 15) scale(-1 1)" fill="#1F4250"/>
</svg>
