<svg width="64" height="64" viewBox="0 0 64 64" fill="none" xmlns="http://www.w3.org/2000/svg">
<circle cx="32" cy="32" r="32" fill="#1AEEC2"/>
<ellipse cx="4.08389" cy="4.08006" rx="4.08389" ry="4.08006" transform="translate(25.6136 31.4753)" fill="#1F4250"/>
<path d="M2.12554 0.93789C2.06568 0.449926 1.6802 0.0657761 1.19163 0.00720781C1.14956 0.00241155 1.10726 8.92559e-06 1.06491 -3.93969e-08C0.63313 0.000663369 0.244349 0.261365 0.0801539 0.660334C-0.0840412 1.0593 0.00875267 1.51783 0.315194 1.82173C0.478151 1.97764 0.571474 2.19249 0.574139 2.4179V2.54102H1.55865V2.41726C1.55939 2.19613 1.64944 1.98465 1.80838 1.83074C2.04846 1.59933 2.16588 1.26876 2.12553 0.937925V0.93789H2.12554Z" transform="translate(28.6312 34.488)" fill="#1F4250"/>
<path d="M0.232061 0.163934C0.336332 0.163817 0.429251 0.0981754 0.464131 -9.63035e-08H6.79139e-08C0.0348707 0.0981754 0.12779 0.163817 0.232061 0.163934Z" transform="translate(29.4655 37.6848)" fill="#1F4250"/>
<path d="M-4.05292e-08 0.245901C6.27732e-05 0.291147 0.036755 0.327805 0.0820437 0.327867H0.738385C0.783673 0.327805 0.820366 0.291147 0.820428 0.245901V-4.81518e-08H-4.05292e-08V0.245901Z" transform="translate(29.2874 37.1936)" fill="#1F4250"/>
<path d="M0.164087 0.737693C0.25471 0.737693 0.328175 0.664296 0.328175 0.573759V0.163934C0.328175 0.0733963 0.25471 0 0.164087 0C0.0734652 0 4.05292e-08 0.0733963 4.05292e-08 0.163934V0.573759C4.05292e-08 0.664296 0.0734652 0.737693 0.164087 0.737693Z" transform="translate(29.5334 33.2593)" fill="#1F4250"/>
<path d="M0.338109 0.569635C0.40304 0.631592 0.505247 0.631592 0.570178 0.569635C0.600957 0.538894 0.618249 0.497189 0.618249 0.453709C0.618249 0.410229 0.600957 0.368524 0.570178 0.337783L0.280095 0.0480254C0.249335 0.0172755 0.2076 0 0.164088 0C0.120576 0 0.0788403 0.0172755 0.0480705 0.0480254C0.0172918 0.0787574 0 0.120454 0 0.163934C0 0.207414 0.0172918 0.249101 0.0480705 0.279842L0.338109 0.569635Z" transform="translate(27.9745 33.833)" fill="#1F4250"/>
<path d="M0.738385 0.163934C0.738385 0.0733963 0.66492 4.04913e-08 0.574297 4.04913e-08H0.164087C0.0735011 8.96903e-05 8.97339e-05 0.0734322 0 0.163934C8.97339e-05 0.254435 0.0735011 0.327778 0.164087 0.327867H0.574297C0.66492 0.327867 0.738385 0.254471 0.738385 0.163934Z" transform="translate(27.4003 35.3904)" fill="#1F4250"/>
<path d="M0.496722 0.00556309C0.44001 -0.00957877 0.37953 0.00669255 0.3381 0.0482453L0.0480705 0.338047C0.0172917 0.368779 -4.92923e-09 0.410475 -4.92923e-09 0.453956C-4.92923e-09 0.497436 0.0172917 0.539123 0.0480705 0.569864C0.112984 0.631821 0.215182 0.631821 0.280095 0.569864L0.570169 0.280107C0.611752 0.238715 0.628048 0.178291 0.612892 0.121633C0.597736 0.064974 0.553434 0.0207049 0.496722 0.00556309Z" transform="translate(27.9745 36.658)" fill="#1F4250"/>
<path d="M0.280352 0.048244C0.238921 0.00670028 0.178441 -0.00958001 0.121729 0.00556185C0.0650171 0.0207037 0.0207244 0.0649549 0.0055683 0.121614C-0.00958776 0.178272 0.00669883 0.238696 0.0482905 0.280088L0.338365 0.569845C0.403278 0.631802 0.505476 0.631802 0.57039 0.569845C0.601168 0.539113 0.61846 0.497417 0.61846 0.453937C0.61846 0.410456 0.601168 0.368769 0.57039 0.338028L0.280352 0.048244Z" transform="translate(30.8019 36.658)" fill="#1F4250"/>
<path d="M0.574297 4.04913e-08H0.164087C0.0734652 4.04913e-08 -9.63939e-08 0.0733963 -9.63939e-08 0.163934C-9.63939e-08 0.254471 0.0734652 0.327867 0.164087 0.327867H0.574297C0.664919 0.327867 0.738385 0.254471 0.738385 0.163934C0.738385 0.0733963 0.664919 4.04913e-08 0.574297 4.04913e-08Z" transform="translate(31.2562 35.3904)" fill="#1F4250"/>
<path d="M0.280149 0.569631L0.570178 0.279829C0.611626 0.23842 0.627814 0.178068 0.61264 0.121499C0.597466 0.0649299 0.553246 0.0207504 0.496624 0.00559063C0.440001 -0.00956916 0.379592 0.00660369 0.338144 0.0480129L0.0480705 0.33777C0.0172918 0.368511 1.18302e-07 0.410216 1.18302e-07 0.453696C1.18302e-07 0.497176 0.0172918 0.538882 0.0480705 0.569623C0.113011 0.631588 0.215227 0.631588 0.280149 0.569631Z" transform="translate(30.8021 33.833)" fill="#1F4250"/>
<path d="M1.30289 0.0652806C0.585528 0.19954 2.37577e-07 0.64822 2.37577e-07 1.36695C2.37577e-07 2.08593 0.583358 2.66849 1.30289 2.66849C1.65883 2.66849 2.00174 2.61315 2.32501 2.51243C2.02204 1.71618 1.79028 0.874154 1.62896 4.12451e-07C1.62896 4.12451e-07 1.38469 0.0499803 1.30289 0.0652806Z" transform="translate(20.4489 33.7234)" fill="#1F4250"/>
<path d="M8.85594 2.45637C8.48839 1.49628 8.35566 0.68333 8.35566 0.68333C8.27488 0.188877 7.81429 -0.103486 7.33201 0.0339615C7.33201 0.0339615 5.8978 0.442222 4.65961 0.442222C3.42206 0.442222 1.98926 0.0344713 1.98926 0.0344713C1.50685 -0.102721 1.04601 0.189641 0.965477 0.684094C0.965477 0.684094 0.840024 1.4528 0.484087 2.40129C0.246967 3.03306 0.114751 3.25084 0.114751 3.25084C-0.14547 3.67924 0.0520891 4.02975 0.553642 4.02975H8.76545C9.26713 4.02975 9.46405 3.67975 9.20307 3.2516C9.20294 3.2516 9.08872 3.06443 8.85594 2.45637Z" transform="translate(27.8406 42.9705)" fill="#1F4250"/>
<path d="M16.5613 0H1.16659C0.522482 0 -3.03787e-07 0.522503 -3.03787e-07 1.16703V10.7951C-3.03787e-07 13.8088 0.895903 16.5521 2.52244 18.5194C4.1597 20.4995 6.41209 21.5902 8.86409 21.5902C11.3162 21.5902 13.5685 20.4995 15.2056 18.5194C16.8321 16.5521 17.728 13.8088 17.728 10.7951V1.16703C17.7279 0.522503 17.2054 0 16.5613 0Z" transform="translate(23.6361 20)" fill="#1F4250"/>
<path d="M7.81223 8.59045H5.60221C3.94989 8.59045 2.60565 7.24772 2.60565 5.59683C2.60565 3.94619 3.94989 2.60321 5.60221 2.60321C6.47629 2.60321 7.26397 2.97908 7.8121 3.57758V0.454672C7.13366 0.162437 6.38657 -2.82101e-08 5.60221 -2.82101e-08C2.51312 -2.82101e-08 -1.41183e-08 2.5109 -1.41183e-08 5.59683C-1.41183e-08 8.68301 2.51312 11.1937 5.60221 11.1937H7.86417C7.82997 10.7624 7.81223 10.3339 7.81223 9.89211V8.59045Z" transform="translate(14 20.9028)" fill="#1F4250"/>
<path d="M-4.67364e-07 11.1937H2.26196C5.35092 11.1937 7.86404 8.68314 7.86404 5.59683C7.86404 2.5109 5.35105 -2.82101e-08 2.26196 -2.82101e-08C1.4776 -2.82101e-08 0.730505 0.162437 0.0521963 0.454672V3.57745C0.600331 2.97908 1.38801 2.60308 2.26196 2.60308C3.91415 2.60308 5.25839 3.94606 5.25839 5.5967C5.25839 7.24747 3.91428 8.59032 2.26196 8.59032H0.0521963V9.89199C0.0520687 10.3339 0.0340745 10.7624 -4.67364e-07 11.1937Z" transform="translate(43.1359 20.9028)" fill="#1F4250"/>
<path d="M0.696047 4.12451e-07C0.534734 0.874282 0.302974 1.71618 -1.86946e-07 2.51243C0.323265 2.61303 0.666185 2.66849 1.02212 2.66849C1.74165 2.66849 2.32501 2.08593 2.32501 1.36695C2.32501 0.64822 1.78479 0.207955 1.02212 0.0652806C0.932404 0.0485778 0.696047 4.12451e-07 0.696047 4.12451e-07Z" transform="translate(42.2261 33.7234)" fill="#1F4250"/>
</svg>
