<svg width="64" height="64" viewBox="0 0 64 64" fill="none" xmlns="http://www.w3.org/2000/svg">
<circle cx="32" cy="32" r="32" fill="#1AEEC2"/>
<path d="M2.99114 5.99995C4.64309 5.99995 5.98227 4.65682 5.98227 2.99998C5.98227 1.34314 4.64309 0 2.99114 0C1.33918 0 0 1.34314 0 2.99998C0 4.65682 1.33918 5.99995 2.99114 5.99995Z" transform="translate(33.9915 15) scale(-1 1)" fill="#1F4250"/>
<path d="M12.8307 4.4716e-08C12.3279 2.22719 10.3468 3.89878 7.97638 3.89878C5.60595 3.89878 3.62485 2.22719 3.12209 4.4716e-08C1.33901 0.398483 1.05381e-07 1.99181 1.05381e-07 3.89878V7.89879C1.05381e-07 9.00133 0.894823 9.8988 1.99411 9.8988C3.0934 9.8988 3.98822 9.00133 3.98822 7.89879V5.89878H11.9646V7.89879C11.9646 9.00133 12.8594 9.8988 13.9587 9.8988C15.058 9.8988 15.9528 9.00133 15.9528 7.89879V3.89878C15.9528 1.99181 14.6137 0.398483 12.8307 4.4716e-08Z" transform="translate(38.9764 19.1011) scale(-1 1)" fill="#1F4250"/>
<path d="M4.48727 0.402475C3.05655 -0.425993 1.22725 0.0655347 0.401227 1.50049C-0.424733 2.9353 0.0654113 4.77014 1.49613 5.59847C2.92672 6.42694 4.82262 5.93528 5.64851 4.50046C6.47454 3.06558 5.91786 1.23088 4.48727 0.402475Z" transform="translate(20.0334 39.0374) scale(-1 1)" fill="#1F4250"/>
<path d="M12.4267 2.26746L8.97291 0.267449C8.02085 -0.28382 6.79858 0.0446638 6.24893 0.999544C5.69929 1.95442 6.0268 3.18031 6.97887 3.73158L8.70583 4.73155L4.7176 11.6597L2.99064 10.6598C2.03858 10.1085 0.816305 10.437 0.266661 11.3919C-0.282983 12.3467 0.0445324 13.5726 0.996598 14.1239L4.45038 16.1239C6.09713 17.0774 8.14244 16.7109 9.37792 15.3614C7.70621 13.8112 7.25332 11.2547 8.43854 9.19565C9.62376 7.13663 12.0577 6.25182 14.2322 6.92863C14.7797 5.18078 14.0734 3.22094 12.4267 2.26746Z" transform="translate(29.7978 30.3425) scale(-1 1)" fill="#1F4250"/>
<path d="M5.63223 1.50052C4.80621 0.0655646 2.97692 -0.42603 1.54619 0.402505C0.115604 1.23091 -0.441146 3.06561 0.384948 4.50056C1.21084 5.93538 3.10674 6.42704 4.53733 5.59857C5.96805 4.7701 6.45819 2.93533 5.63223 1.50052Z" transform="translate(48 39.0374) scale(-1 1)" fill="#1F4250"/>
<path d="M14.1483 11.3918C13.5986 10.437 12.3763 10.1085 11.4243 10.6597L9.69731 11.6597L5.70908 4.73152L7.43604 3.73155C8.38811 3.18028 8.71556 1.95433 8.16598 0.999514C7.61634 0.0446342 6.394 -0.283783 5.442 0.267419L1.98821 2.26743C0.341469 3.22091 -0.364828 5.18075 0.182758 6.92867C2.35723 6.25179 4.79122 7.13667 5.97643 9.19569C7.16165 11.2547 6.70876 13.8112 5.03705 15.3615C6.27254 16.7109 8.31785 17.0774 9.96459 16.1239L13.4184 14.1239C14.3704 13.5726 14.6979 12.3467 14.1483 11.3918Z" transform="translate(46.6172 30.3425) scale(-1 1)" fill="#1F4250"/>
</svg>
