<svg width="26" height="42" viewBox="0 0 26 42" fill="none" xmlns="http://www.w3.org/2000/svg">
<path d="M26 13.0345C26 5.83587 20.1796 0 13 0C5.82041 0 0 5.83587 0 13.0345C0 20.2332 5.82041 26.069 13 26.069C20.1796 26.069 26 20.2333 26 13.0345Z" transform="translate(0 3.62061)" fill="#F3A240"/>
<path d="M8.65827 1.64649C8.32529 1.64649 8.0256 1.41401 7.95262 1.07366C7.86958 0.682622 8.11732 0.298142 8.50798 0.214142C8.9969 0.109142 9.49956 0.0374463 10.003 0.00127052C10.4045 -0.0218623 10.7468 0.273532 10.775 0.671794C10.8039 1.07079 10.5042 1.41762 10.1063 1.44592C9.67006 1.47775 9.23383 1.53936 8.80987 1.63058C8.75939 1.6414 8.7081 1.64649 8.65827 1.64649ZM14.2165 2.02523C14.1348 2.02523 14.051 2.01071 13.9702 1.98109C13.5621 1.83336 13.1382 1.71244 12.7114 1.62196C12.3207 1.54009 12.0708 1.15635 12.1531 0.764571C12.2354 0.373528 12.619 0.121529 13.0082 0.20479C13.5015 0.309052 13.9905 0.448833 14.4628 0.620442C14.8377 0.756614 15.0312 1.17153 14.8954 1.54731C14.7885 1.84205 14.5112 2.02523 14.2165 2.02523ZM4.82692 3.36997C4.60447 3.36997 4.38496 3.2671 4.24334 3.07309C4.00788 2.75014 4.07791 2.29757 4.4001 2.06149C4.80598 1.76461 5.23575 1.49301 5.6777 1.25553C6.03016 1.06727 6.46778 1.19975 6.65563 1.55166C6.84413 1.90358 6.712 2.34318 6.36028 2.53218C5.97747 2.73783 5.60415 2.97318 5.25235 3.231C5.12374 3.32509 4.97492 3.36997 4.82692 3.36997ZM17.7828 4.2541C17.603 4.2541 17.4224 4.18675 17.2823 4.05132C16.9689 3.74936 16.6309 3.46619 16.2777 3.20918C15.9549 2.97384 15.8826 2.52127 16.1166 2.19758C16.3513 1.87388 16.8034 1.80292 17.1255 2.03679C17.5329 2.33227 17.9222 2.65958 18.2833 3.00788C18.5714 3.28523 18.5801 3.74362 18.3035 4.03106C18.1619 4.17953 17.9721 4.2541 17.7828 4.2541ZM2.01743 6.50405C1.89463 6.50405 1.77043 6.47362 1.6563 6.40701C1.31105 6.20718 1.1934 5.7647 1.3927 5.41788C1.64329 4.98336 1.92711 4.56122 2.23694 4.16296C2.4832 3.84796 2.93604 3.79144 3.25094 4.03696C3.5651 4.28314 3.62147 4.73866 3.37587 5.05366C3.10645 5.39983 2.86019 5.76552 2.64281 6.14205C2.50929 6.37444 2.26663 6.50405 2.01743 6.50405ZM20.1445 7.73723C19.8599 7.73723 19.5905 7.56709 19.4757 7.28679C19.311 6.88271 19.1168 6.48732 18.8979 6.11006C18.6964 5.76462 18.8134 5.32149 19.158 5.12018C19.5017 4.91888 19.9444 5.03545 20.1452 5.38088C20.398 5.81606 20.6226 6.27231 20.8132 6.73866C20.9642 7.1087 20.7865 7.53158 20.4174 7.68292C20.3279 7.7191 20.2354 7.73723 20.1445 7.73723ZM0.723213 10.5114C0.698668 10.5114 0.673388 10.51 0.648844 10.5071C0.251637 10.4666 -0.0372485 10.111 0.00390397 9.71344C0.0552013 9.21018 0.142579 8.70757 0.263172 8.22031C0.359958 7.83214 0.751357 7.59466 1.1385 7.69244C1.5263 7.78874 1.76176 8.18126 1.66571 8.57009C1.56099 8.99157 1.48515 9.426 1.44039 9.86126C1.40284 10.2334 1.08868 10.5114 0.723213 10.5114ZM20.8862 11.8822H20.8645C20.4658 11.8706 20.1524 11.5368 20.1639 11.1364C20.1668 11.0364 20.169 10.9365 20.169 10.8359C20.169 10.4991 20.1509 10.1581 20.1149 9.82353C20.0722 9.42601 20.359 9.06901 20.7555 9.02627C21.1433 8.98279 21.508 9.27031 21.5513 9.66857C21.5925 10.0553 21.6134 10.4484 21.6127 10.8366C21.6127 10.951 21.6112 11.0655 21.6076 11.1798C21.5961 11.5723 21.2755 11.8822 20.8862 11.8822ZM1.16525 14.7005C0.860497 14.7005 0.578074 14.5057 0.478425 14.2001C0.322406 13.7208 0.198948 13.2262 0.111571 12.7309C0.0422743 12.337 0.304407 11.9618 0.697277 11.8916C1.09015 11.8243 1.46428 12.0857 1.53432 12.4789C1.60942 12.9083 1.71635 13.3363 1.85135 13.7512C1.97554 14.1313 1.76757 14.5405 1.3891 14.6644C1.31473 14.689 1.23889 14.7005 1.16525 14.7005ZM19.8816 15.9728C19.7761 15.9728 19.6686 15.949 19.5667 15.9004C19.2078 15.7252 19.0582 15.2921 19.2323 14.9323C19.4223 14.5391 19.5869 14.1292 19.7199 13.7143C19.8419 13.3334 20.2499 13.1234 20.6291 13.2472C21.009 13.3696 21.217 13.778 21.095 14.1581C20.9412 14.6375 20.7519 15.1104 20.5316 15.5644C20.4073 15.8222 20.1495 15.9728 19.8816 15.9728ZM3.2727 18.3437C3.07553 18.3437 2.87909 18.2633 2.73608 18.1047C2.40024 17.7311 2.08681 17.3306 1.80512 16.9136C1.5812 16.5827 1.66718 16.1322 1.99722 15.9077C2.32726 15.6832 2.7765 15.7701 3.00042 16.1011C3.24529 16.4624 3.51683 16.8107 3.80858 17.1344C4.07579 17.4313 4.05271 17.8897 3.75589 18.1576C3.61787 18.2821 3.44459 18.3437 3.2727 18.3437ZM17.304 19.2995C17.0989 19.2995 16.8952 19.2127 16.7522 19.0432C16.4944 18.7384 16.532 18.2814 16.8367 18.0229C17.1704 17.7397 17.486 17.432 17.7756 17.1076C18.0407 16.8092 18.4985 16.7839 18.7954 17.0504C19.0923 17.3169 19.1183 17.7746 18.8525 18.0729C18.5188 18.4473 18.1548 18.8021 17.7698 19.1287C17.6347 19.2438 17.4687 19.2995 17.304 19.2995ZM6.67003 20.8224C6.57111 20.8224 6.47138 20.8022 6.37607 20.7594C5.91889 20.5553 5.46965 20.3156 5.04209 20.0469C4.70412 19.834 4.60152 19.3872 4.81318 19.0484C5.02475 18.7095 5.47039 18.6074 5.8091 18.8188C6.17963 19.052 6.56817 19.2598 6.9639 19.4373C7.32863 19.5994 7.49185 20.0281 7.32937 20.3931C7.21024 20.6624 6.9459 20.8224 6.67003 20.8224ZM13.6033 21.296C13.2906 21.296 13.0023 21.0904 12.9106 20.7739C12.7987 20.3901 13.019 19.9882 13.4018 19.876C13.8192 19.7543 14.2316 19.6008 14.6295 19.4212C14.9921 19.2575 15.4204 19.4183 15.5843 19.784C15.7483 20.1482 15.5864 20.5777 15.2232 20.7421C14.7645 20.9492 14.2879 21.1259 13.8054 21.2663C13.7383 21.2866 13.6704 21.296 13.6033 21.296ZM10.8206 21.6979H10.7802C10.2761 21.6979 9.76906 21.6631 9.27433 21.5929C8.87851 21.5378 8.60337 21.1721 8.65827 20.776C8.7139 20.3799 9.07929 20.0982 9.47363 20.1591C9.90332 20.2192 10.3425 20.2495 10.7801 20.2495C11.1788 20.2495 11.5226 20.574 11.5226 20.9737C11.5226 21.3734 11.2193 21.6979 10.8206 21.6979Z" transform="translate(2.22021 5.81946)" fill="#B17208"/>
<path d="M7.94439 3.6207C10.9394 3.6207 13.6903 4.64682 15.8888 6.35357V0H0V6.35357C2.19842 4.64682 4.94934 3.6207 7.94439 3.6207Z" transform="translate(5.05615)" fill="#F0C419"/>
<path d="M7.94439 2.73287C4.94934 2.73287 2.19842 1.70674 0 0V15.0432L7.94439 7.07774L15.8888 15.0432V0C13.6903 1.70674 10.9394 2.73287 7.94439 2.73287Z" transform="translate(5.05566 26.9568)" fill="#F0C419"/>
<path d="M3.61111 13.0346C1.61992 13.0346 0 11.4104 0 9.41391C0 9.01417 0.323575 8.68973 0.722254 8.68973C1.12093 8.68973 1.44451 9.01417 1.44451 9.41391C1.44451 10.6116 2.41662 11.5863 3.61119 11.5863C4.80576 11.5863 5.77787 10.6116 5.77787 9.41391C5.77787 8.21617 4.80576 7.24147 3.61119 7.24147C3.21251 7.24147 2.88893 6.91704 2.88893 6.5173C2.88893 6.11756 3.21251 5.79313 3.61119 5.79313C4.80576 5.79313 5.77787 4.81843 5.77787 3.6207C5.77787 2.42296 4.80576 1.44826 3.61119 1.44826C2.41662 1.44826 1.44451 2.42296 1.44451 3.6207C1.44451 4.02043 1.12093 4.34487 0.722254 4.34487C0.323575 4.34487 0 4.02043 0 3.6207C0 1.62422 1.61992 0 3.61111 0C5.6023 0 7.22221 1.62422 7.22221 3.6207C7.22221 4.80391 6.65311 5.85613 5.77558 6.51722C6.65311 7.17839 7.22221 8.23052 7.22221 9.41374C7.22221 11.4103 5.6023 13.0346 3.61111 13.0346Z" transform="translate(9.38867 10.1378)" fill="#B17208"/>
</svg>
