<?xml version="1.0" encoding="UTF-8"?>
<svg width="54px" height="53px" viewBox="0 0 54 53" version="1.1" xmlns="http://www.w3.org/2000/svg" xmlns:xlink="http://www.w3.org/1999/xlink">
    <!-- Generator: Sketch 49.1 (51147) - http://www.bohemiancoding.com/sketch -->
    <title>ic-consumer</title>
    <desc>Created with Sketch.</desc>
    <defs></defs>
    <g id="Page-1" stroke="none" stroke-width="1" fill="none" fill-rule="evenodd">
        <g id="Landing_horizontal" transform="translate(-921.000000, -369.000000)" fill="#1AEEC2" fill-rule="nonzero">
            <g id="Group-20" transform="translate(865.333333, 236.000000)">
                <g id="Group-14" transform="translate(0.000000, 103.000000)">
                    <g id="Group-8" transform="translate(41.000000, 30.000000)">
                        <g id="ic-consumer" transform="translate(15.000000, 0.000000)">
                            <path d="M49.6169398,12.1223133 C49.614125,9.78814078 47.7226062,7.89662203 45.3884337,7.89380723 C43.0540119,7.89627023 41.1621047,9.78789182 41.1592892,12.1223133 C41.1621047,14.4567347 43.0540119,16.3483563 45.3884337,16.3508193 C47.7226062,16.3480045 49.614125,14.4564857 49.6169398,12.1223133 Z M45.3884337,14.6592892 C43.9877806,14.6578819 42.8525791,13.522966 42.8508193,12.1223133 C42.8525791,10.7216605 43.9877806,9.58674464 45.3884337,9.58533735 C46.7888376,9.58709643 47.9236506,10.7219094 47.9254096,12.1223133 C47.9236506,13.5227171 46.7888376,14.6575301 45.3884337,14.6592892 Z M53,20.6201928 C53,18.2658434 51.103494,16.3508193 48.771494,16.3508193 L42.0053735,16.3508193 C39.6733735,16.3508193 37.7768675,18.2664819 37.7768675,20.6201928 L37.7768675,31.7195422 L39.6203735,31.7195422 L38.436494,37.6964096 L41.1592892,37.6964096 L41.1592892,46.2338795 L49.6169398,46.2338795 L49.6169398,37.6964096 L52.3403735,37.6964096 L51.156494,31.7195422 L53,31.7195422 L53,20.6201928 Z M44.5423494,44.5263855 L42.8508193,44.5263855 L42.8508193,42.8188916 L44.542988,42.8188916 L44.542988,44.5263855 L44.5423494,44.5263855 Z M44.5423494,41.1113976 L42.8508193,41.1113976 L42.8508193,37.6957711 L44.542988,37.6957711 L44.542988,41.1113976 L44.5423494,41.1113976 Z M47.9254096,44.5263855 L46.2338795,44.5263855 L46.2338795,42.8188916 L47.9260482,42.8188916 L47.9260482,44.5263855 L47.9254096,44.5263855 Z M47.9254096,41.1113976 L46.2338795,41.1113976 L46.2338795,37.6957711 L47.9260482,37.6957711 L47.9260482,41.1113976 L47.9254096,41.1113976 Z M51.3084699,30.0120482 L50.8180602,30.0120482 L49.6175783,23.9508916 L49.6175783,20.6201928 L47.9254096,20.6201928 L47.9254096,24.0351807 L50.2765663,35.9889157 L40.4996627,35.9889157 L42.8348554,24.2024819 L42.8508193,20.6201928 L41.1592892,20.6201928 L41.1592892,23.9508916 L39.9588072,30.0120482 L39.4683976,30.0120482 L39.4683976,20.6201928 C39.4683976,19.2077108 40.6063012,18.0589518 42.0053735,18.0589518 L48.771494,18.0589518 C50.1699277,18.0589518 51.3084699,19.2083494 51.3084699,20.6195542 L51.3084699,30.0120482 Z M11.8407108,12.1223133 C11.8378953,9.78789182 9.9459881,7.89627023 7.61156627,7.89380723 C5.2773938,7.89662203 3.38587504,9.78814078 3.38306024,12.1223133 C3.38587504,14.4564857 5.2773938,16.3480045 7.61156627,16.3508193 C9.9459881,16.3483563 11.8378953,14.4567347 11.8407108,12.1223133 Z M7.61156627,14.6592892 C6.21116245,14.6575301 5.07634944,13.5227171 5.07459036,12.1223133 C5.07634944,10.7219094 6.21116245,9.58709643 7.61156627,9.58533735 C9.01221945,9.58674464 10.1474209,10.7216605 10.1491807,12.1223133 C10.1474209,13.522966 9.01221945,14.6578819 7.61156627,14.6592892 Z M15.2231325,20.6201928 C15.2231325,18.2658434 13.3266265,16.3508193 10.9946265,16.3508193 L4.22850602,16.3508193 C1.89714458,16.3508193 0,18.2664819 0,20.6201928 L0,31.7195422 L3.38306024,31.7195422 L3.38306024,46.2338795 L11.8407108,46.2338795 L11.8407108,31.7195422 L15.2231325,31.7195422 L15.2231325,20.6201928 Z M6.76612048,44.5263855 L5.07395181,44.5263855 L5.07395181,42.8188916 L6.76612048,42.8188916 L6.76612048,44.5263855 Z M10.1491807,44.5263855 L8.45701205,44.5263855 L8.45701205,42.8188916 L10.1491807,42.8188916 L10.1491807,44.5263855 Z M10.1491807,30.0120482 L10.1491807,41.1113976 L8.45701205,41.1113976 L8.45701205,32.5726506 L6.76612048,32.5726506 L6.76612048,41.1101205 L5.07395181,41.1101205 L5.07395181,28.3051928 L10.1491807,28.3051928 L10.1491807,30.0120482 Z M13.5316024,30.0120482 L11.8407108,30.0120482 L11.8407108,20.6201928 L10.1485422,20.6201928 L10.1485422,26.5970602 L5.07522892,26.5970602 L5.07522892,20.6201928 L3.38306024,20.6201928 L3.38306024,30.0120482 L1.69216867,30.0120482 L1.69216867,20.6201928 C1.69216867,19.2077108 2.83071084,18.0589518 4.22914458,18.0589518 L10.9952651,18.0589518 C12.3936988,18.0589518 13.532241,19.2083494 13.532241,20.6195542 L13.532241,30.0120482 L13.5316024,30.0120482 Z M35.521494,24.6418072 C35.521494,19.4484458 31.3472651,15.2231325 26.217759,15.2231325 C21.0888916,15.2231325 16.9146627,19.4484458 16.9146627,24.6418072 C16.9146627,27.476988 18.1419639,30.0963373 20.2977229,31.8951446 L20.2977229,32.347241 L18.6061928,32.347241 L18.6061928,34.0592048 L20.2983614,34.0592048 L20.2983614,38.3407108 L32.1384337,38.3407108 L32.1384337,34.0592048 L33.8299639,34.0592048 L33.8299639,32.347241 L32.1377952,32.347241 L32.1377952,31.8951446 C34.2941928,30.0963373 35.521494,27.476988 35.521494,24.6411687 L35.521494,24.6418072 Z M30.4462651,36.6274699 L21.989253,36.6274699 L21.989253,34.0592048 L30.4469036,34.0592048 L30.4469036,36.6281084 L30.4462651,36.6274699 Z M25.3716747,24.6418072 C25.3716747,24.1692771 25.7503373,23.785506 26.217759,23.785506 C26.6839036,23.785506 27.0632048,24.1686386 27.0632048,24.6411687 C27.0632048,25.1136988 26.6845422,25.4974699 26.217759,25.4974699 C25.7503373,25.4974699 25.3716747,25.1143373 25.3716747,24.6418072 Z M30.7827831,30.7955542 L30.4462651,31.0516145 L30.4462651,32.347241 L27.0632048,32.347241 L27.0632048,27.0523494 C28.0786449,26.6851558 28.7550629,25.7209601 28.7547349,24.6411687 C28.7547349,23.225494 27.6161928,22.0729036 26.217759,22.0729036 C24.8186867,22.0729036 23.6801446,23.225494 23.6801446,24.6411687 C23.6798167,25.7209601 24.3562347,26.6851558 25.3716747,27.0523494 L25.3716747,32.347241 L21.9886145,32.347241 L21.9886145,31.0516145 L21.6520964,30.7949157 C19.7244223,29.3377408 18.595831,27.0576079 18.6061928,24.6411687 C18.6061928,20.3922289 22.0199036,16.9357349 26.217759,16.9357349 C30.4149759,16.9357349 33.8293253,20.3922289 33.8293253,24.6411687 C33.8393346,27.057851 32.7105595,29.338114 30.7827831,30.7955542 Z M19.4593012,9.01127711 L19.4593012,9.30309639 L20.8794458,9.30309639 C21.4603397,10.5358047 22.4517969,11.5281649 23.6839759,12.1101807 L23.6839759,13.5316024 L28.7534578,13.5316024 L28.7534578,12.1101807 C29.9853979,11.5280446 30.9766157,10.5356981 31.5573494,9.30309639 L32.977494,9.30309639 L32.977494,9.01255422 C34.9444503,9.84046571 36.7508588,11.0071315 38.3145301,12.4594699 L39.4683976,11.2219518 C37.607012,9.48316867 35.3720723,8.1019759 32.977494,7.19139759 L32.977494,4.22850602 L31.5573494,4.22850602 C30.9766157,2.99590427 29.9853979,2.00355778 28.7534578,1.42142169 L28.7534578,0 L23.6833373,0 L23.6833373,1.42142169 C22.4516362,2.00367798 21.4606578,2.99601078 20.8800843,4.22850602 L19.4593012,4.22850602 L19.4593012,7.19139759 C17.0647229,8.1019759 14.8297831,9.48380723 12.9683976,11.2213133 L14.1222651,12.4588313 C15.6675663,11.0150602 17.4963855,9.84075904 19.4593012,9.01127711 Z M21.1489157,5.9206747 L22.0416145,5.9206747 L22.2395663,5.35683133 C22.6620899,4.15344999 23.6079577,3.20687745 24.8110241,2.78345783 L25.3735904,2.58486747 L25.3735904,1.69089157 L27.0632048,1.69089157 L27.0632048,2.58486747 L27.6264096,2.78281928 C28.8295095,3.2066734 29.7751669,4.1537402 30.1972289,5.35746988 L30.3951807,5.9206747 L31.2878795,5.9206747 L31.2878795,7.61284337 L30.3958193,7.61284337 L30.1972289,8.17540964 C29.7748413,9.3786527 28.8292327,10.3252008 27.6264096,10.7487831 L27.0632048,10.948012 L27.0632048,11.8413494 L25.3735904,11.8413494 L25.3735904,10.9473735 L24.8110241,10.7494217 C23.6082011,10.3258394 22.6625925,9.37929126 22.2402048,8.17604819 L22.0416145,7.61220482 L21.1489157,7.61220482 L21.1489157,5.92003614 L21.1489157,5.9206747 Z M38.3164458,40.2646747 C36.5339329,41.9681931 34.4235013,43.2912864 32.1135301,44.1534699 C31.1876265,41.7435663 28.8977711,40.0316024 26.2183976,40.0316024 C23.5383855,40.0316024 21.2485301,41.7435663 20.3226265,44.1528313 C18.0125602,43.2908405 15.9020918,41.9677241 14.1197108,40.2640361 L12.9683976,41.529012 C14.9747349,43.4446747 17.3661205,44.9197349 19.9158675,45.8379759 C19.8935181,46.0608313 19.880747,46.2875181 19.880747,46.5161205 C19.880747,50.0920241 22.7235904,53 26.2183976,53 C29.7132048,53 32.5554096,50.0920241 32.5554096,46.5161205 C32.5554096,46.2875181 32.5426386,46.0608313 32.5196506,45.8379759 C35.1098291,44.8994383 37.4762748,43.4319897 39.4683976,41.529012 L38.3164458,40.2646747 Z M26.2183976,51.2695181 C23.6558795,51.2695181 21.571,49.1361084 21.571,46.5148434 C21.571,43.8935783 23.6558795,41.7601687 26.2183976,41.7601687 C28.7802771,41.7601687 30.8651566,43.8935783 30.8651566,46.5148434 C30.8651566,49.1361084 28.7802771,51.2695181 26.2183976,51.2695181 Z" id="Shape"></path>
                            <path d="M26.2183976,9.5846988 C27.6188014,9.58293971 28.7536144,8.44812671 28.7553735,7.04772289 C28.7536144,5.64731907 27.6188014,4.51250607 26.2183976,4.51074699 C24.8177444,4.51215428 23.6825429,5.64707011 23.6807831,7.04772289 C23.6821911,8.44862505 24.8174954,9.58392941 26.2183976,9.58533735 L26.2183976,9.5846988 Z M26.2183976,6.20227711 C26.6856771,6.20245344 27.064339,6.58140125 27.0641627,7.04868072 C27.0639863,7.5159602 26.6850385,7.89462212 26.217759,7.89444578 C25.7504796,7.89444578 25.3716747,7.51564092 25.3716747,7.04836145 C25.3716747,6.58108197 25.7504796,6.20227711 26.217759,6.20227711 L26.2183976,6.20227711 Z M27.1973012,43.4153012 L25.3723133,43.4153012 L25.3723133,47.1253012 L27.4648554,49.0537349 L28.7547349,47.864747 L27.1973012,46.4292771 L27.1973012,43.4153012 Z" id="Shape"></path>
                        </g>
                    </g>
                </g>
            </g>
        </g>
    </g>
</svg>