<?xml version="1.0" encoding="UTF-8"?>
<svg width="67px" height="33px" viewBox="0 0 67 33" version="1.1" xmlns="http://www.w3.org/2000/svg" xmlns:xlink="http://www.w3.org/1999/xlink">
    <!-- Generator: Sketch 49.1 (51147) - http://www.bohemiancoding.com/sketch -->
    <title>ic-drone</title>
    <desc>Created with Sketch.</desc>
    <defs></defs>
    <g id="Page-1" stroke="none" stroke-width="1" fill="none" fill-rule="evenodd">
        <g id="Landing_horizontal" transform="translate(-200.000000, -575.000000)" fill="#BFD4DB" fill-rule="nonzero">
            <g id="Group-21" transform="translate(150.000000, 235.000000)">
                <g id="ic-drone" transform="translate(50.000000, 340.000000)">
                    <path d="M44.8884297,8.15969767 L43.7017969,6.58567442 C43.3894355,6.17138372 42.7923242,6.08312791 42.3684707,6.38818605 C41.9444863,6.69362791 41.8540625,7.27713953 42.1664238,7.69143023 L43.3530566,9.26545349 C43.5400547,9.51333721 43.8288613,9.64469767 44.1214629,9.64469767 C44.3178828,9.64469767 44.5161348,9.58547674 44.6863828,9.46294186 C45.1103672,9.1575 45.200791,8.57411628 44.8884297,8.15969767 Z" id="Shape"></path>
                    <path d="M48.0980176,8.15969767 L46.9115156,6.58567442 C46.5991543,6.17138372 46.0024355,6.08312791 45.5781895,6.38818605 C45.1543359,6.6935 45.0637812,7.27701163 45.3761426,7.69143023 L46.5626445,9.26545349 C46.7496426,9.51333721 47.0384492,9.64469767 47.3310508,9.64469767 C47.5274707,9.64469767 47.7255918,9.58547674 47.8959707,9.46294186 C48.3198242,9.15762791 48.4103789,8.57411628 48.0980176,8.15969767 Z" id="Shape"></path>
                    <path d="M41.4575586,8.15969767 L40.2709258,6.58567442 C39.9584336,6.17138372 39.3614531,6.08312791 38.9375996,6.38818605 C38.5136152,6.69362791 38.4231914,7.27713953 38.7355527,7.69143023 L39.9221855,9.26545349 C40.1091836,9.51333721 40.3979902,9.64469767 40.6905918,9.64469767 C40.8870117,9.64469767 41.0852637,9.58547674 41.2555117,9.46294186 C41.6794961,9.1575 41.7699199,8.57411628 41.4575586,8.15969767 Z" id="Shape"></path>
                    <path d="M24.6315293,6.38831395 C24.2078066,6.08325581 23.6108262,6.17151163 23.2982031,6.58580233 L22.1115703,8.15969767 C21.799209,8.57398837 21.8896328,9.1575 22.3136172,9.46294186 C22.4838652,9.58547674 22.6821172,9.64469767 22.8785371,9.64469767 C23.1711387,9.64469767 23.4599453,9.51333721 23.6469434,9.26545349 L24.8335762,7.69143023 C25.1458066,7.27726744 25.0555137,6.69375581 24.6315293,6.38831395 Z" id="Shape"></path>
                    <path d="M21.4218105,6.38831395 C20.9978262,6.08325581 20.4009766,6.17151163 20.0884844,6.58580233 L18.9019824,8.15969767 C18.5896211,8.57411628 18.6801758,9.15762791 19.1040293,9.46294186 C19.2744082,9.58547674 19.4725293,9.64469767 19.6689492,9.64469767 C19.9615508,9.64469767 20.2503574,9.51333721 20.4373555,9.26545349 L21.6238574,7.69143023 C21.9362187,7.27701163 21.8456641,6.6935 21.4218105,6.38831395 Z" id="Shape"></path>
                    <path d="M28.0624004,6.38831395 C27.6386777,6.08325581 27.0415664,6.17151163 26.7290742,6.58580233 L25.5424414,8.15969767 C25.2300801,8.57398837 25.3205039,9.1575 25.7444883,9.46294186 C25.9147363,9.58547674 26.1129883,9.64469767 26.3094082,9.64469767 C26.6020098,9.64469767 26.8908164,9.51333721 27.0778145,9.26545349 L28.2644473,7.69143023 C28.5768086,7.27726744 28.4863848,6.69375581 28.0624004,6.38831395 Z" id="Shape"></path>
                    <path d="M33.5,21.8220814 C32.027832,21.8220814 30.830207,22.992814 30.830207,24.4316395 C30.830207,25.8704651 32.027832,27.0411977 33.5,27.0411977 C34.972168,27.0411977 36.169793,25.8704651 36.169793,24.4316395 C36.169793,22.992686 34.9720371,21.8220814 33.5,21.8220814 Z M33.5,25.1772093 C33.079418,25.1772093 32.7372207,24.8427326 32.7372207,24.4316395 C32.7372207,24.0205465 33.079418,23.6860698 33.5,23.6860698 C33.920582,23.6860698 34.2627793,24.0205465 34.2627793,24.4316395 C34.2627793,24.8427326 33.920582,25.1772093 33.5,25.1772093 Z" id="Shape"></path>
                    <path d="M64.7115312,4.77016279 C65.9732773,4.77016279 67,3.76673256 67,2.53332558 C67,1.2999186 65.9734082,0.296488372 64.7115312,0.296488372 L57.5403066,0.296488372 C56.2785605,0.296488372 55.2518379,1.2999186 55.2518379,2.53332558 C55.2518379,3.76673256 56.2784297,4.77016279 57.5403066,4.77016279 L60.1724121,4.77016279 L60.1724121,5.39665116 L55.8168887,5.39665116 L40.4737578,0.4235 C39.8012715,0.205290698 39.1006504,0.0947790698 38.3913926,0.0947790698 L28.6084766,0.0947790698 C27.8994805,0.0947790698 27.1989902,0.205290698 26.526373,0.423372093 L11.1831113,5.39665116 L6.82758789,5.39665116 L6.82758789,4.77016279 L9.45969336,4.77016279 C10.7214395,4.77016279 11.7481621,3.76673256 11.7481621,2.53332558 C11.7481621,1.2999186 10.7215703,0.296488372 9.45969336,0.296488372 L2.28846875,0.296488372 C1.0265918,0.296744186 0,1.30004651 0,2.53345349 C0,3.76686047 1.0265918,4.7702907 2.28846875,4.7702907 L4.92057422,4.7702907 L4.92057422,5.39677907 L4.24664844,5.39677907 C2.70905078,5.39677907 1.45829688,6.61944186 1.45829688,8.12222093 L1.45829688,9.51730233 C1.45829688,11.2652791 2.91319141,12.6873488 4.70151563,12.6873488 L14.6146367,12.6873488 L14.6146367,18.5348721 C14.6146367,19.0496977 15.0415,19.4669302 15.568209,19.4669302 C16.094918,19.4669302 16.5217813,19.0496977 16.5217813,18.5348721 L16.5217813,12.6873488 L18.2118301,12.6873488 L17.093375,31.0412326 L16.7800977,31.0412326 C16.6377227,31.0412326 16.5219121,30.9280349 16.5219121,30.7888721 L16.5219121,23.288407 C16.5219121,22.7735814 16.0950488,22.3563488 15.5683398,22.3563488 C15.0416309,22.3563488 14.6147676,22.7735814 14.6147676,23.288407 L14.6147676,30.7888721 C14.6147676,31.9557674 15.5861367,32.9052209 16.7799668,32.9052209 L17.9915937,32.9052209 C18.4961875,32.9052209 18.913498,32.5209884 18.943334,32.0286744 L20.1219844,12.6873488 L20.7580918,12.6873488 C21.2352051,12.6873488 21.6565723,12.9678488 21.8315312,13.4015814 C22.2954277,14.553 23.4132285,15.296907 24.6794238,15.296907 L26.316998,15.296907 L26.316998,15.599407 C26.316998,17.1012907 27.5669668,18.3230581 29.1035176,18.3230581 L29.6437051,18.3230581 L29.6437051,19.6887209 L28.9026484,19.6887209 C27.9208105,19.6887209 27.1221758,20.4693372 27.1221758,21.4290233 L27.1221758,27.4341279 C27.1221758,28.393814 27.9208105,29.1744302 28.9026484,29.1744302 L38.0976133,29.1744302 C39.0794512,29.1744302 39.8780859,28.393814 39.8780859,27.4341279 L39.8780859,21.4290233 C39.8780859,20.4693372 39.0794512,19.6887209 38.0976133,19.6887209 L37.3565566,19.6887209 L37.3565566,18.3230581 L37.8967441,18.3230581 C39.4332949,18.3230581 40.6832637,17.1012907 40.6832637,15.599407 L40.6832637,15.296907 L42.3208379,15.296907 C43.5870332,15.296907 44.704834,14.553 45.1685996,13.4017093 C45.3436895,12.9677209 45.7650566,12.6873488 46.2421699,12.6873488 L46.8782773,12.6873488 L48.0569277,32.0286744 C48.0868945,32.5209884 48.5040742,32.9052209 49.008668,32.9052209 L50.2202949,32.9052209 C51.414125,32.9052209 52.3854941,31.9557674 52.3854941,30.7888721 L52.3854941,23.3139884 C52.3854941,22.7991628 51.9586309,22.3819302 51.4319219,22.3819302 C50.9052129,22.3819302 50.4783496,22.7991628 50.4783496,23.3139884 L50.4783496,30.7888721 C50.4783496,30.9280349 50.3625391,31.0412326 50.2201641,31.0412326 L49.9068867,31.0412326 L48.7884316,12.6873488 L50.4784805,12.6873488 L50.4784805,18.5348721 C50.4784805,19.0496977 50.9053438,19.4669302 51.4320527,19.4669302 C51.9587617,19.4669302 52.385625,19.0496977 52.385625,18.5348721 L52.385625,12.6873488 L62.2987461,12.6873488 C64.0870703,12.6873488 65.5419648,11.2652791 65.5419648,9.51730233 L65.5419648,8.12209302 C65.5419648,6.61918605 64.2910801,5.39665116 62.7536133,5.39665116 L62.0796875,5.39665116 L62.0796875,4.77016279 L64.7115312,4.77016279 Z M2.28846875,2.90617442 C2.07817773,2.90617442 1.90701367,2.739 1.90701367,2.53332558 C1.90701367,2.32765116 2.07804687,2.16047674 2.28846875,2.16047674 L9.45969336,2.16047674 C9.66998437,2.16047674 9.84114844,2.32765116 9.84114844,2.53332558 C9.84114844,2.739 9.67011523,2.90617442 9.45969336,2.90617442 L2.28846875,2.90617442 Z M37.9709414,21.5527093 L37.9709414,27.3104419 L29.0290586,27.3104419 L29.0290586,21.5527093 L37.9709414,21.5527093 Z M31.5505879,19.6887209 L31.5505879,18.3230581 L35.4492812,18.3230581 L35.4492812,19.6887209 L31.5505879,19.6887209 Z M38.77625,15.5992791 C38.7761191,16.0733023 38.3815781,16.4589419 37.8966133,16.4589419 L29.1035176,16.4589419 C28.6185527,16.4589419 28.2240117,16.0733023 28.2240117,15.5992791 L28.2240117,15.2967791 L38.77625,15.2967791 L38.77625,15.5992791 Z M62.7533516,7.26076744 C63.2392324,7.26076744 63.6346895,7.64730233 63.6346895,8.12222093 L63.6346895,9.51730233 C63.6346895,10.2374186 63.0352227,10.8233605 62.2984844,10.8233605 L46.2420391,10.8233605 C44.9761055,10.8233605 43.8584355,11.5672674 43.3941465,12.718686 C43.2193184,13.1526744 42.7979512,13.4329186 42.320707,13.4329186 L24.679293,13.4329186 C24.2020488,13.4329186 23.7806816,13.1525465 23.6057227,12.7185581 C23.1416953,11.5672674 22.0238945,10.8233605 20.7579609,10.8233605 L4.70138477,10.8233605 C3.96464648,10.8233605 3.36517969,10.2374186 3.36517969,9.51730233 L3.36517969,8.12209302 C3.36517969,7.64717442 3.76063672,7.26063953 4.24651758,7.26063953 L11.3368711,7.26063953 C11.4388105,7.26063953 11.5402266,7.24465116 11.6369316,7.21331395 L27.1264941,2.1925814 C27.6050469,2.03743023 28.103752,1.95876744 28.6083457,1.95876744 L38.3915234,1.95876744 C38.896248,1.95876744 39.3946914,2.03743023 39.873375,2.1927093 L55.3628066,7.21331395 C55.4595117,7.24465116 55.5609277,7.26063953 55.6628672,7.26063953 L62.7533516,7.26063953 L62.7533516,7.26076744 Z M57.5404375,2.90617442 C57.3301465,2.90617442 57.1589824,2.739 57.1589824,2.53332558 C57.1589824,2.32765116 57.3300156,2.16047674 57.5404375,2.16047674 L64.7116621,2.16047674 C64.9219531,2.16047674 65.0931172,2.32765116 65.0931172,2.53332558 C65.0931172,2.739 64.922084,2.90617442 64.7116621,2.90617442 L57.5404375,2.90617442 Z" id="Shape"></path>
                </g>
            </g>
        </g>
    </g>
</svg>