<?xml version="1.0" encoding="UTF-8"?>
<svg width="58px" height="55px" viewBox="0 0 58 55" version="1.1" xmlns="http://www.w3.org/2000/svg" xmlns:xlink="http://www.w3.org/1999/xlink">
    <!-- Generator: Sketch 49.1 (51147) - http://www.bohemiancoding.com/sketch -->
    <title>ic-electric-car</title>
    <desc>Created with Sketch.</desc>
    <defs></defs>
    <g id="Page-1" stroke="none" stroke-width="1" fill="none" fill-rule="evenodd">
        <g id="Landing_horizontal" transform="translate(-398.000000, -364.000000)" fill="#BFD4DB" fill-rule="nonzero" stroke="#29303A" stroke-width="0.3">
            <g id="Group-21" transform="translate(150.000000, 235.000000)">
                <g id="ic-electric-car" transform="translate(249.000000, 130.000000)">
                    <path d="M10.4844315,43.8133728 C9.00449793,43.7064263 7.71975104,44.8414308 7.61472199,46.3483817 C7.50969295,47.8553326 8.62434855,49.1635335 10.1042822,49.2704799 C10.1693444,49.2752121 10.2344066,49.2771049 10.2985394,49.2771049 C11.7820747,49.2765134 12.9842158,48.0515982 12.983751,46.5409799 C12.9831701,45.1045379 11.8916349,43.913221 10.4844315,43.8133728 Z M11.1232033,46.5953996 C11.1230871,46.5964643 11.1230871,46.597529 11.122971,46.5985938 L11.1192531,46.601433 C11.1056598,46.8240804 11.005278,47.0319397 10.8404149,47.1787545 C10.6759004,47.3271071 10.4589876,47.4005737 10.2399834,47.3822366 C9.78419917,47.3511228 9.43936929,46.9496004 9.47004149,46.4853772 C9.49920332,46.0422121 9.86146058,45.6981853 10.29761,45.6994866 L10.356166,45.6994866 C10.8109046,45.7313103 11.1543402,46.1323594 11.1232033,46.5953996 Z" id="Shape"></path>
                    <path d="M40.2271701,43.8133728 C38.7472365,43.7064263 37.4624896,44.8414308 37.3574606,46.3483817 C37.2524315,47.8553326 38.3670871,49.1635335 39.8470207,49.2704799 C39.912083,49.2752121 39.9771452,49.2771049 40.041278,49.2771049 C41.5248133,49.2765134 42.7269544,48.0515982 42.7264896,46.5409799 C42.7259087,45.1045379 41.6343734,43.913221 40.2271701,43.8133728 Z M40.8659419,46.5953996 C40.8658257,46.5964643 40.8658257,46.597529 40.8657095,46.5985938 L40.8619917,46.601433 C40.8483983,46.8240804 40.7480166,47.0319397 40.5831535,47.1787545 C40.4188714,47.3274621 40.2018423,47.4010469 39.982722,47.3822366 C39.5269378,47.3511228 39.1821079,46.9496004 39.2127801,46.4853772 C39.2419419,46.0422121 39.6041992,45.6981853 40.0403485,45.6994866 L40.0989046,45.6994866 C40.5536432,45.7313103 40.8970788,46.1323594 40.8659419,46.5953996 Z" id="Shape"></path>
                    <path d="M26.141195,37.8584442 L22.4233527,37.8584442 C21.9100581,37.8584442 21.4938921,38.2822076 21.4938921,38.8048728 C21.4938921,39.3275379 21.9100581,39.7513013 22.4233527,39.7513013 L26.141195,39.7513013 C26.6544896,39.7513013 27.0706556,39.3275379 27.0706556,38.8048728 C27.0706556,38.2822076 26.6544896,37.8584442 26.141195,37.8584442 Z" id="Shape"></path>
                    <path d="M6.25073859,3.97630134 C6.08982573,3.85338393 5.89417427,3.78701563 5.69306224,3.78701563 L4.76360166,3.78701563 L6.43663071,1.51558705 C6.74463071,1.09738393 6.66144398,0.504209821 6.25073859,0.190587054 C5.8400332,-0.123035714 5.25749378,-0.0383303571 4.94949378,0.379872768 L2.16111203,4.16558705 C1.85311203,4.58379018 1.93629876,5.17696429 2.34700415,5.49058705 C2.50791701,5.61350446 2.70356846,5.67987277 2.9046805,5.67987277 L3.83414108,5.67987277 L2.16111203,7.95130134 C1.85299585,8.36926786 1.93595021,8.96256027 2.34642324,9.27641964 C2.75689627,9.59027902 3.33955187,9.50569196 3.64778423,9.08772545 C3.64790041,9.08748884 3.64813278,9.08725223 3.64824896,9.08701563 L6.43663071,5.30130134 C6.74463071,4.88309821 6.6613278,4.28992411 6.25073859,3.97630134 Z" id="Shape"></path>
                    <path d="M52.8694606,20.8224933 C50.140332,17.2356473 45.9332448,15.1385982 41.4771784,15.1440402 L18.6310373,15.1440402 C18.169444,11.8874978 15.430556,9.46937277 12.1991701,9.46546875 L6.62240664,9.46546875 C6.10911203,9.46546875 5.69294606,9.88923214 5.69294606,10.4118973 L5.69294606,12.3047545 L0.116182573,12.3047545 L0.116182573,14.1976116 L5.69294606,14.1976116 L5.69294606,17.9833259 L0.116182573,17.9833259 L0.116182573,19.876183 L5.69294606,19.876183 L5.69294606,21.7690402 C5.69294606,22.2917054 6.10911203,22.7154687 6.62240664,22.7154687 L12.1991701,22.7154687 C15.430556,22.7115647 18.169444,20.2934397 18.6310373,17.0368973 L41.4771784,17.0368973 C48.3957344,17.025067 54.0138589,22.7265893 54.025361,29.771567 C54.0309378,33.1865179 52.6915851,36.4611607 50.3070539,38.8624866 L50.3070539,36.9118973 C50.3070539,36.6608571 50.2089959,36.4202277 50.034722,36.2427723 L48.6219419,34.8042009 C43.6682656,29.7340647 37.0047303,26.774346 29.9853278,26.5267366 C29.9438506,26.5152612 29.9015602,26.5067433 29.8589212,26.501183 C29.8253444,26.5057969 29.7921162,26.5126585 29.7594689,26.5220045 C29.4806307,26.5134866 29.2120166,26.501183 28.9368963,26.501183 C22.1180249,26.4986987 15.5358174,29.0466027 10.4406307,33.6609152 L9.87644813,34.1719866 L4.75326141,35.7373795 C1.99299585,36.5663326 0.102937759,39.1529219 0.116182573,42.083183 L0.116182573,46.376183 C0.116182573,46.8988482 0.532348548,47.3226116 1.04564315,47.3226116 L3.90838174,47.3226116 C4.41853942,50.939625 7.71173444,53.4507366 11.2640166,52.9312656 C14.1190871,52.5137723 16.3621079,50.2296853 16.7721162,47.3226116 L33.6511203,47.3226116 C34.161278,50.939625 37.454473,53.4507366 41.0067552,52.9312656 C43.8618257,52.5137723 46.1048465,50.2296853 46.5148548,47.3226116 L49.3775934,47.3226116 C49.890888,47.3226116 50.3070539,46.8988482 50.3070539,46.376183 L50.3070539,41.3780937 C56.589278,36.4223571 57.7364647,27.2192857 52.8694606,20.8224933 Z M12.1992863,20.8227299 L7.5519834,20.8227299 L7.5519834,11.3584442 L12.1992863,11.3584442 C14.7658755,11.3584442 16.8465892,13.4771429 16.8465892,16.0905871 C16.8465892,18.7040312 14.7658755,20.8227299 12.1992863,20.8227299 Z M10.3403651,51.1084442 C7.77377593,51.1084442 5.69306224,48.9897455 5.69306224,46.3763013 C5.69306224,43.7628571 7.77377593,41.6441585 10.3403651,41.6441585 C12.9069544,41.6441585 14.987668,43.7628571 14.987668,46.3763013 C14.9845311,48.9884442 12.9056763,51.10525 10.3403651,51.1084442 Z M28.9295768,45.4298728 L16.7805975,45.4298728 C16.7703734,45.3569978 16.7527137,45.2869621 16.7397012,45.2150335 C16.7239004,45.1203906 16.709029,45.0342656 16.6895104,44.9453013 C16.6634855,44.8260513 16.6318838,44.7086942 16.5965643,44.5922835 C16.5733278,44.5080513 16.5519502,44.4228728 16.5249959,44.3405335 C16.486888,44.2193906 16.4413444,44.1010871 16.3967303,43.9827835 C16.367917,43.9080156 16.3428216,43.8323013 16.3112199,43.7594263 C16.2554523,43.6269263 16.192249,43.4991585 16.1253278,43.3713906 C16.097444,43.3164978 16.073278,43.2587656 16.0444647,43.2048192 C15.9515187,43.0268906 15.8446307,42.8527478 15.7330954,42.6842835 C15.7052116,42.6426406 15.67361,42.6038371 15.6401494,42.5631406 C15.5537095,42.4372656 15.4654108,42.3132835 15.3706058,42.1949799 C15.3222739,42.1353549 15.2702241,42.0795156 15.2200332,42.0217835 C15.1382407,41.9271406 15.0564481,41.8324978 14.9700083,41.7378549 C14.9123817,41.6772835 14.8510373,41.6204978 14.7906224,41.5627656 C14.705112,41.4813728 14.6196017,41.3999799 14.5303734,41.3223728 C14.4653112,41.2655871 14.3974606,41.2125871 14.32961,41.1586406 C14.2366639,41.0867121 14.1483651,41.0166763 14.0507718,40.9494799 C13.9792033,40.8983728 13.9067054,40.8491585 13.8323485,40.8008906 C13.7394025,40.7384263 13.6399502,40.6788013 13.5414274,40.6210692 C13.4652116,40.5765871 13.3871369,40.5330513 13.3090622,40.4914085 C13.207751,40.4384085 13.1036515,40.3882478 12.9995519,40.3399799 C12.9196183,40.3030692 12.8396846,40.2661585 12.7588216,40.2330335 C12.6491452,40.1876049 12.53761,40.1478549 12.4260747,40.1081049 C12.3442822,40.0806585 12.2643485,40.0503728 12.1816266,40.0257656 C12.0626556,39.9898013 11.9418257,39.9604621 11.8209959,39.9311228 C11.7410622,39.9121942 11.6629876,39.8904263 11.5821245,39.8743371 C11.4464232,39.8468906 11.3079336,39.8279621 11.1685145,39.8099799 C11.0997344,39.8005156 11.0318838,39.7872656 10.9621743,39.7806406 C10.767917,39.7636049 10.5550705,39.7513013 10.3403651,39.7513013 C10.1256598,39.7513013 9.91281328,39.7636049 9.70368465,39.7844263 C9.6339751,39.7910513 9.56612448,39.8043013 9.4973444,39.8137656 C9.35792531,39.8317478 9.21850622,39.8506763 9.08373444,39.8781228 C9.00287137,39.8942121 8.92479668,39.9159799 8.84486307,39.9349085 C8.7240332,39.9642478 8.60320332,39.9935871 8.48423237,40.0295513 C8.40151037,40.0541585 8.32157676,40.0844442 8.23978423,40.1118906 C8.12824896,40.1516406 8.01671369,40.1913906 7.90703734,40.2368192 C7.82617427,40.2699442 7.74624066,40.3068549 7.66630705,40.3437656 C7.56220747,40.3920335 7.45810788,40.4384085 7.35679668,40.4951942 C7.27872199,40.5368371 7.2006473,40.5803728 7.12443154,40.6248549 C7.02590871,40.6825871 6.92831535,40.7422121 6.83351037,40.8046763 C6.75915353,40.8529442 6.6866556,40.8993192 6.61508714,40.9532656 C6.52214108,41.0204621 6.42919502,41.0904978 6.33624896,41.1624263 C6.26839834,41.2163728 6.20054772,41.2693728 6.13548548,41.3261585 C6.04253942,41.4037656 5.96074689,41.4851585 5.87523651,41.5665513 C5.81482158,41.6242835 5.75347718,41.6810692 5.69585062,41.7416406 C5.60941079,41.8315513 5.52761826,41.9309263 5.44582573,42.0255692 C5.39563485,42.0833013 5.34358506,42.1391406 5.29525311,42.1987656 C5.20230705,42.3170692 5.109361,42.4410513 5.02570954,42.5669263 C4.99689627,42.6076228 4.96529461,42.6464263 4.93741079,42.6880692 C4.82587552,42.8565335 4.72270539,43.0306763 4.62604149,43.2086049 C4.59722822,43.2625513 4.57306224,43.3202835 4.54517842,43.3751763 C4.48104564,43.5029442 4.41784232,43.6307121 4.35928631,43.7632121 C4.32768465,43.8360871 4.30258921,43.9118013 4.27377593,43.9865692 C4.22916183,44.1048728 4.18082988,44.2231763 4.14551037,44.3443192 C4.11855602,44.4266585 4.09717842,44.5118371 4.07394191,44.5960692 C4.04234025,44.7124799 4.01073859,44.8298371 3.98099585,44.9490871 C3.96147718,45.0380513 3.94660581,45.1289085 3.93080498,45.2188192 C3.91779253,45.2907478 3.90013278,45.3607835 3.88990871,45.4336585 L1.97516981,45.4336585 L1.97521992,42.0833013 C1.96569295,39.9905112 3.31550207,38.1429643 5.28688797,37.5508549 L10.4779253,35.9655871 L28.9295768,35.9655871 L28.9295768,45.4298728 Z M28.9295768,34.0727299 L12.8629212,34.0727299 C17.4397012,30.3953817 23.0995353,28.3949866 28.9295768,28.3941585 L28.9295768,34.0727299 Z M30.7884979,28.4679799 C34.806556,28.7469397 38.7044813,29.9816741 42.1688133,32.0729263 L38.8961826,34.0727299 L30.7884979,34.0727299 L30.7884979,28.4679799 Z M40.0831037,51.1084442 C37.5165145,51.1084442 35.4358008,48.9897455 35.4358008,46.3763013 C35.4358008,43.7628571 37.5165145,41.6441585 40.0831037,41.6441585 C42.6496929,41.6441585 44.7304066,43.7628571 44.7304066,46.3763013 C44.7272697,48.9884442 42.6484149,51.10525 40.0831037,51.1084442 Z M48.448249,45.4298728 L46.5233361,45.4298728 C46.513112,45.3569978 46.4954523,45.2869621 46.4824398,45.2150335 C46.466639,45.1203906 46.4517676,45.0342656 46.432249,44.9453013 C46.4062241,44.8260513 46.3746224,44.7086942 46.3393029,44.5922835 C46.3160664,44.5080513 46.2946888,44.4228728 46.2677344,44.3405335 C46.2296266,44.2193906 46.184083,44.1010871 46.1394689,43.9827835 C46.1106556,43.9080156 46.0855602,43.8323013 46.0539585,43.7594263 C45.9981909,43.6269263 45.9349876,43.4991585 45.8680664,43.3713906 C45.8401826,43.3164978 45.8160166,43.2587656 45.7872033,43.2048192 C45.6942573,43.0268906 45.5873693,42.8527478 45.475834,42.6842835 C45.4479502,42.6426406 45.4163485,42.6038371 45.3875353,42.5631406 C45.3010954,42.4372656 45.2127967,42.3132835 45.1179917,42.1949799 C45.0696598,42.1353549 45.01761,42.0795156 44.9674191,42.0217835 C44.8856266,41.9271406 44.803834,41.8324978 44.7173942,41.7378549 C44.6597676,41.6772835 44.5984232,41.6204978 44.5380083,41.5627656 C44.4524979,41.4813728 44.3669876,41.3999799 44.2777593,41.3223728 C44.2126971,41.2655871 44.1448465,41.2125871 44.0769959,41.1586406 C43.9840498,41.0867121 43.8911037,41.0166763 43.7981577,40.9494799 C43.7265892,40.8983728 43.6540913,40.8491585 43.5797344,40.8008906 C43.4867884,40.7384263 43.3873361,40.6788013 43.2888133,40.6210692 C43.2125975,40.5765871 43.1345228,40.5330513 43.0564481,40.4914085 C42.9551369,40.4384085 42.8510373,40.3882478 42.7469378,40.3399799 C42.6670041,40.3030692 42.5870705,40.2661585 42.5062075,40.2330335 C42.3965311,40.1876049 42.2849959,40.1478549 42.1734606,40.1081049 C42.091668,40.0806585 42.0117344,40.0503728 41.9290124,40.0257656 C41.8100415,39.9898013 41.6892116,39.9604621 41.5683817,39.9311228 C41.4884481,39.9121942 41.4103734,39.8904263 41.3295104,39.8743371 C41.1938091,39.8468906 41.0553195,39.8279621 40.9159004,39.8099799 C40.8471203,39.8005156 40.7792697,39.7872656 40.7095602,39.7806406 C40.5106556,39.7636049 40.2978091,39.7513013 40.0831037,39.7513013 C39.8683983,39.7513013 39.6555519,39.7636049 39.4464232,39.7844263 C39.3767137,39.7910513 39.3088631,39.8043013 39.240083,39.8137656 C39.1006639,39.8317478 38.9612448,39.8506763 38.826473,39.8781228 C38.74561,39.8942121 38.6675353,39.9159799 38.5876017,39.9349085 C38.4667718,39.9642478 38.3459419,39.9935871 38.226971,40.0295513 C38.144249,40.0541585 38.0643154,40.0844442 37.9825228,40.1118906 C37.8709876,40.1516406 37.7594523,40.1913906 37.6497759,40.2368192 C37.5689129,40.2699442 37.4889793,40.3068549 37.4090456,40.3437656 C37.3049461,40.3920335 37.2008465,40.4384085 37.0995353,40.4951942 C37.0214606,40.5368371 36.9433859,40.5803728 36.8671701,40.6248549 C36.7686473,40.6825871 36.6710539,40.7422121 36.576249,40.8046763 C36.5018921,40.8529442 36.4293942,40.8993192 36.3578257,40.9532656 C36.2648797,41.0204621 36.1719336,41.0904978 36.0789876,41.1624263 C36.0111369,41.2163728 35.9432863,41.2693728 35.8782241,41.3261585 C35.785278,41.4037656 35.7034855,41.4851585 35.6179751,41.5665513 C35.5575602,41.6242835 35.4962158,41.6810692 35.4385892,41.7416406 C35.3521494,41.8315513 35.2703568,41.9309263 35.1885643,42.0255692 C35.1383734,42.0833013 35.0863237,42.1391406 35.0379917,42.1987656 C34.9450456,42.3170692 34.8520996,42.4410513 34.7684481,42.5669263 C34.7396349,42.6076228 34.7080332,42.6464263 34.6801494,42.6880692 C34.5686141,42.8565335 34.465444,43.0306763 34.3687801,43.2086049 C34.3399668,43.2625513 34.3158008,43.3202835 34.287917,43.3751763 C34.2237842,43.5029442 34.1605809,43.6307121 34.1020249,43.7632121 C34.0704232,43.8360871 34.0453278,43.9118013 34.0165145,43.9865692 C33.9719004,44.1048728 33.9235685,44.2231763 33.888249,44.3443192 C33.8612946,44.4266585 33.839917,44.5118371 33.8166805,44.5960692 C33.7850788,44.7124799 33.7534772,44.8298371 33.7237344,44.9490871 C33.7042158,45.0380513 33.6893444,45.1289085 33.6735436,45.2188192 C33.6605311,45.2907478 33.6428714,45.3607835 33.6326473,45.4336585 L30.7884979,45.4336585 L30.7884979,35.9655871 L39.1536432,35.9655871 C39.3223402,35.9655871 39.4877842,35.9187388 39.6323154,35.8302478 L43.8994689,33.2209442 C45.1148548,34.0936696 46.2550705,35.0701473 47.3078008,36.1397299 L48.448249,37.3038371 L48.448249,45.4298728 Z" id="Shape"></path>
                </g>
            </g>
        </g>
    </g>
</svg>