<svg width="29" height="34" viewBox="0 0 29 34" fill="none" xmlns="http://www.w3.org/2000/svg">
<path d="M7.49242 0L0 13.9891L6.80378 13.3661L10.0968 19.2998L17.5892 5.31074L7.49242 0Z" transform="translate(0 14.6991)" fill="#E95454"/>
<path d="M2.16082 12.9556C2.37106 12.508 2.15117 11.9734 1.71139 11.7416L1.28018 11.5141C0.84898 11.2707 0.684865 10.7297 0.919774 10.2917C1.1579 9.8463 1.71782 9.67622 2.16726 9.91221L3.38578 10.5532C3.76228 10.7509 4.23424 10.6074 4.42839 10.2322L4.45843 10.1748C4.68154 9.82079 4.5496 9.35307 4.17847 9.15854L0.533623 7.24196C0.0895483 7.0081 -0.128199 6.47553 0.0788211 6.02695C0.307294 5.54966 0.884377 5.36151 1.34883 5.606L4.72981 7.3844C5.1063 7.58211 5.57827 7.43861 5.77778 7.0655L5.79709 7.0166L5.80245 7.00597C6.01805 6.61479 5.86681 6.12368 5.46886 5.91427L3.57242 4.91718C3.12835 4.68332 2.9106 4.15076 3.12084 3.69686C3.34717 3.22488 3.9264 3.03142 4.39085 3.27591L6.48572 4.37824C6.87724 4.58446 7.34491 4.41225 7.54764 4.02107C7.55086 4.01576 7.55086 4.01575 7.553 4.01044C7.55622 4.00513 7.55622 4.00512 7.55837 3.99981C7.77182 3.61394 7.65383 3.13347 7.26124 2.92831L5.00118 1.73988C4.56247 1.50921 4.34473 0.976644 4.55175 0.528059C4.78022 0.0507725 5.3573 -0.137378 5.82176 0.107112L11.3974 3.03992L3.90494 17.029L1.8401 13.3095C1.97311 13.2203 2.08896 13.1097 2.16082 12.9556Z" transform="translate(6.18945 16.97)" fill="#ED6362"/>
<path d="M10.0968 0L17.5892 13.9891L10.7854 13.3661L7.49242 19.2998L0 5.31074L10.0968 0Z" transform="translate(11.4106 14.6991)" fill="#ED6362"/>
<path d="M9.23761 12.9545C9.02737 12.507 9.24726 11.9723 9.68705 11.7406L10.1182 11.5131C10.5495 11.2697 10.7136 10.7286 10.4787 10.2906C10.2405 9.84524 9.68061 9.67516 9.23117 9.91114L8.01265 10.5521C7.63615 10.7498 7.16419 10.6063 6.97004 10.2311L6.94001 10.1737C6.7169 9.81973 6.84883 9.35201 7.21997 9.15748L10.8659 7.23983C11.31 7.00597 11.5277 6.47341 11.3207 6.02482C11.0922 5.54754 10.5151 5.35939 10.0507 5.60388L6.6697 7.38227C6.2932 7.57999 5.82124 7.43648 5.62173 7.06337L5.60242 7.01447L5.59706 7.00385C5.38145 6.61266 5.5327 6.12156 5.93065 5.91215L7.82708 4.91505C8.27116 4.68119 8.4889 4.14863 8.27867 3.69473C8.05234 3.22276 7.47311 3.02929 7.00866 3.27378L4.91164 4.37824C4.52012 4.58446 4.05245 4.41225 3.84972 4.02107C3.8465 4.01576 3.8465 4.01576 3.84436 4.01044C3.84114 4.00513 3.84114 4.00513 3.83899 3.99981C3.62554 3.61394 3.74353 3.13347 4.13612 2.92831L6.39618 1.73988C6.83489 1.50921 7.05263 0.976644 6.84561 0.528059C6.61714 0.0507725 6.04006 -0.137378 5.5756 0.107112L0 3.03992L7.49242 17.029L9.55726 13.3095C9.42532 13.2192 9.30948 13.1086 9.23761 12.9545Z" transform="translate(11.4121 16.9711)" fill="#E95454"/>
<path d="M12.5188 24.8125C19.4328 24.8125 25.0377 19.258 25.0377 12.4063C25.0377 5.55447 19.4328 0 12.5188 0C5.60487 0 0 5.55447 0 12.4063C0 19.258 5.60487 24.8125 12.5188 24.8125Z" transform="translate(1.98096)" fill="#FFCC5B"/>
<path d="M14.1804 10.0517H6.24708C5.63031 10.0517 5.12402 9.54998 5.12402 8.93875L5.1326 8.86222V8.84521C5.12402 8.19997 5.65498 7.67272 6.30715 7.67272H11.8055C12.5338 7.67272 13.1774 7.13803 13.2203 6.41519C13.2547 5.6594 12.6465 5.0216 11.8827 5.0216H6.05829C5.41578 5.0216 4.93524 4.48692 4.94382 3.84912C4.94382 3.84061 4.94382 3.84061 4.94382 3.83211C4.94382 3.8236 4.94382 3.82361 4.94382 3.8151C4.93524 3.17836 5.41471 2.64261 6.05829 2.64261H12.1531C12.8728 2.64261 13.5164 2.10793 13.5593 1.39359C13.5936 0.629295 12.9854 0 12.2217 0H7.75843C3.20721 1.85918 0 6.29401 0 11.4751C0 16.6561 3.20721 21.0899 7.75951 22.9469H13.4263C14.146 22.9469 14.7896 22.4123 14.8325 21.6979C14.8668 20.9336 14.2587 20.3054 13.4949 20.3054L7.04834 20.3043C6.28784 20.3043 5.67536 19.674 5.71612 18.9107C5.75366 18.1964 6.40154 17.6596 7.12343 17.6596H9.62269C10.3414 17.6394 10.9217 17.0558 10.9217 16.3383C10.9217 15.608 10.3221 15.0127 9.58407 15.0127H5.7955C5.17872 15.0127 4.67244 14.5121 4.68102 13.8998V13.8062C4.63811 13.2035 5.12724 12.6933 5.73543 12.6933H14.1031C14.8314 12.6933 15.475 12.1586 15.5179 11.4442C15.5523 10.681 14.943 10.0517 14.1804 10.0517Z" transform="translate(2.01758 0.931152)" fill="#FDBC4B"/>
<path d="M8.9362 17.7106C4.00847 17.7106 0 13.7371 0 8.85478C0 3.97242 4.00847 0 8.9362 0C13.8639 0 17.8724 3.97349 17.8724 8.85584C17.8724 13.7382 13.8639 17.7106 8.9362 17.7106Z" transform="translate(5.56396 3.55042)" fill="#FFDB70"/>
<path d="M3.44855 10.1474C3.30803 10.2739 3.22544 10.4248 3.16001 10.5843C3.0978 10.7448 3.05274 10.9138 3.06454 11.103C3.07741 11.2933 3.15572 11.5027 3.16644 11.6909C3.16859 11.7153 3.16215 11.7387 3.16323 11.7621C2.80282 11.2901 2.49497 10.7894 2.24075 10.2686C2.24719 10.1633 2.26328 10.0634 2.30189 9.97518C2.36411 9.82211 2.49604 9.7073 2.57971 9.56805C2.6623 9.42879 2.70306 9.26934 2.73846 9.10671C2.77064 8.94194 2.79638 8.77505 2.78029 8.57946C2.76528 8.56989 2.74919 8.56032 2.73417 8.54969C2.57435 8.63367 2.46386 8.75166 2.36732 8.88135C2.27508 9.01316 2.1957 9.1556 2.16567 9.32994C2.13778 9.50533 2.16567 9.71262 2.13456 9.88376C2.1292 9.91671 2.11418 9.94541 2.1056 9.9773C1.87391 9.45643 1.6937 8.91749 1.56606 8.36792C1.59502 8.24887 1.63471 8.13832 1.70014 8.05115C1.79024 7.92678 1.94041 7.85343 2.04768 7.74713C2.15387 7.63871 2.22359 7.50264 2.28795 7.3602C2.35016 7.21457 2.40594 7.06575 2.42525 6.87866C2.41238 6.86591 2.3995 6.85315 2.38663 6.84039C2.2193 6.87972 2.09166 6.9637 1.97581 7.06043C1.86211 7.15929 1.76021 7.2741 1.69692 7.42611C1.63578 7.58024 1.62184 7.77796 1.55748 7.92678C1.54139 7.96717 1.51565 7.998 1.49419 8.03414C1.38907 7.48989 1.33437 6.93713 1.33115 6.38331C1.388 6.25256 1.45451 6.1335 1.55104 6.05484C1.66045 5.9613 1.81491 5.93153 1.93612 5.85818C2.05626 5.78377 2.14743 5.6711 2.23432 5.5531C2.31906 5.43086 2.39843 5.30224 2.45099 5.1279C2.44134 5.11196 2.43168 5.09708 2.42203 5.08113C2.25684 5.07688 2.12276 5.12684 1.99619 5.18956C1.87176 5.25653 1.75377 5.33731 1.66689 5.467C1.58 5.59775 1.53066 5.77952 1.44163 5.90283C1.4116 5.94641 1.37406 5.9783 1.33759 6.01232C1.35689 5.47125 1.42447 4.93125 1.54032 4.39762C1.54568 4.38912 1.55104 4.38168 1.55641 4.37317C1.64329 4.24243 1.73983 4.12656 1.86104 4.06809C1.9801 4.00644 2.12813 4.01813 2.2547 3.97774C2.3802 3.93628 2.48532 3.85124 2.58829 3.75664C2.68912 3.65884 2.78673 3.5536 2.86932 3.39522C2.86289 3.37821 2.85752 3.36014 2.85109 3.34207C2.69984 3.29848 2.56684 3.31443 2.43812 3.34419C2.31047 3.37821 2.18605 3.42817 2.08093 3.53128C1.97581 3.63652 1.89429 3.79916 1.7881 3.8927C1.74197 3.93628 1.69156 3.96498 1.639 3.99262C1.78059 3.46325 1.97259 2.94238 2.21286 2.43746C2.21715 2.44383 2.22252 2.44915 2.22681 2.45553C2.24719 2.43427 2.26864 2.41407 2.28902 2.39281C2.39629 2.28757 2.50784 2.19934 2.62905 2.17277C2.75026 2.14194 2.88219 2.18978 3.00448 2.18021C3.12676 2.16958 3.24046 2.11111 3.35416 2.04202C3.46678 1.96867 3.57834 1.88682 3.68775 1.74863C3.68668 1.7295 3.68453 1.71036 3.68346 1.69229C3.55581 1.61469 3.43246 1.59875 3.30803 1.59875C3.18468 1.60194 3.06133 1.62214 2.94333 1.69867C2.82534 1.77733 2.71593 1.91659 2.60009 1.98249C2.54324 2.01757 2.48317 2.03777 2.4231 2.05052C2.42525 2.03883 2.42525 2.0282 2.42739 2.01651C2.81784 1.29792 3.31447 0.618665 3.91837 0C3.34665 0.547444 2.86074 1.15123 2.45957 1.79434C2.46065 1.77521 2.46923 1.75288 2.46923 1.73375C2.47888 1.59556 2.48532 1.45843 2.47244 1.32875C2.43061 1.07469 2.36089 0.829139 2.17103 0.621854C2.15065 0.629295 2.13027 0.636736 2.10989 0.644177C1.90823 0.996029 1.85567 1.30324 1.8546 1.58387C1.86318 1.72099 1.89429 1.84643 1.93612 1.96655C1.97045 2.09092 2.03266 2.20041 2.10989 2.30139C2.12062 2.31627 2.13134 2.33009 2.14314 2.34497C1.9136 2.77761 1.72052 3.2262 1.56499 3.68435C1.56391 3.6801 1.56499 3.67479 1.56392 3.66947C1.53281 3.52809 1.50277 3.38459 1.45665 3.25171C1.34939 2.99553 1.21852 2.7521 0.980396 2.57033C0.962161 2.58202 0.944999 2.59372 0.926764 2.60541C0.818427 3.00935 0.84417 3.33994 0.91711 3.6312C0.960016 3.77152 1.02545 3.89589 1.09839 4.01282C1.16489 4.13506 1.25607 4.23711 1.35904 4.32747C1.36226 4.32959 1.36548 4.33278 1.36762 4.33491C1.24963 4.78987 1.16596 5.25227 1.11877 5.71893C1.05548 5.5818 0.991123 5.44574 0.913893 5.3235C0.740125 5.07901 0.548121 4.85046 0.264943 4.70377C0.249926 4.71865 0.234909 4.73353 0.219892 4.74948C0.213456 5.18743 0.323938 5.52334 0.471963 5.81035C0.552411 5.94748 0.650022 6.06334 0.754069 6.16964C0.845244 6.27382 0.955726 6.35248 1.07264 6.42264C1.06084 6.88291 1.0823 7.34532 1.13915 7.80453C1.04475 7.68548 0.951435 7.56536 0.848461 7.46225C0.609261 7.2454 0.356117 7.04555 0.0343242 6.94244C0.0225251 6.96051 0.0117991 6.97858 0 6.99665C0.102974 7.4463 0.302485 7.77052 0.52774 8.0352C0.644659 8.16064 0.774449 8.26056 0.90853 8.34879C1.01579 8.42851 1.13593 8.47954 1.25821 8.52525C1.34939 8.97383 1.47489 9.4171 1.63364 9.85293C1.51243 9.75726 1.39336 9.65947 1.26787 9.57761C0.96538 9.40222 0.655385 9.2449 0.299267 9.19812C0.291758 9.21832 0.285323 9.23852 0.277815 9.25872C0.497707 9.69773 0.785175 9.99006 1.08659 10.2154C1.23998 10.3207 1.3998 10.3961 1.56177 10.4599C1.67976 10.5131 1.80311 10.5364 1.9254 10.5588C2.11847 10.9776 2.34587 11.3858 2.60545 11.7791C2.46172 11.7111 2.31906 11.6388 2.17532 11.5856C1.81491 11.4687 1.45236 11.3677 1.07157 11.3836C1.06943 11.406 1.06728 11.4272 1.06514 11.4496C1.40516 11.8535 1.78166 12.0927 2.15494 12.2606C2.34265 12.3361 2.53037 12.3807 2.71701 12.4126C2.83929 12.4392 2.95942 12.435 3.08063 12.436C3.28229 12.6911 3.50004 12.9378 3.73173 13.1759C3.85401 13.0547 3.97736 12.9324 4.09964 12.8113C3.83256 12.5561 3.58478 12.2872 3.35523 12.0087C3.34343 11.9173 3.33914 11.829 3.35201 11.7451C3.37454 11.5675 3.47644 11.4145 3.52578 11.2486C3.57298 11.0818 3.57619 10.9053 3.57405 10.7267C3.56869 10.5471 3.55689 10.3674 3.49896 10.1686C3.48287 10.1601 3.46571 10.1538 3.44855 10.1474Z" transform="translate(6.74609 5.76465)" fill="#ED6362"/>
<path d="M0.648949 10.1453C0.789465 10.2718 0.872058 10.4227 0.937489 10.5821C0.999703 10.7427 1.04475 10.9117 1.03296 11.1009C1.02008 11.2912 0.941781 11.5006 0.931055 11.6887C0.92891 11.7132 0.935344 11.7366 0.934271 11.7599C1.29468 11.288 1.60253 10.7873 1.85675 10.2664C1.85031 10.1612 1.83422 10.0613 1.79561 9.97305C1.73339 9.81998 1.60146 9.70517 1.51779 9.56592C1.4352 9.42667 1.39444 9.26722 1.35904 9.10458C1.32686 8.93981 1.30112 8.77292 1.31721 8.57733C1.33222 8.56777 1.34831 8.5582 1.36333 8.54757C1.52315 8.63155 1.63364 8.74954 1.73017 8.87922C1.82242 9.01104 1.9018 9.15348 1.93183 9.32781C1.95972 9.5032 1.93183 9.71049 1.96294 9.88163C1.9683 9.91458 1.98332 9.94328 1.9919 9.97517C2.22359 9.45431 2.40379 8.91537 2.53144 8.3658C2.50248 8.24674 2.46279 8.13619 2.39736 8.04902C2.30726 7.92465 2.15709 7.85131 2.04982 7.74501C1.94363 7.63658 1.87391 7.50052 1.80955 7.35807C1.74734 7.21244 1.69156 7.06362 1.67225 6.87654C1.68512 6.86378 1.69799 6.85102 1.71087 6.83827C1.8782 6.8776 2.00584 6.96157 2.12169 7.05831C2.23539 7.15717 2.33729 7.27197 2.40058 7.42398C2.46172 7.57811 2.47566 7.77583 2.54002 7.92465C2.55611 7.96505 2.58185 7.99587 2.60331 8.03201C2.70843 7.48776 2.76313 6.935 2.76635 6.38118C2.7095 6.25043 2.64299 6.13137 2.54646 6.05271C2.43705 5.95917 2.28259 5.9294 2.16138 5.85606C2.04124 5.78165 1.95007 5.66897 1.86318 5.55098C1.77844 5.42873 1.69907 5.30011 1.64651 5.12578C1.65616 5.10983 1.66581 5.09495 1.67547 5.07901C1.84066 5.07475 1.97474 5.12471 2.10131 5.18743C2.22574 5.2544 2.34373 5.33519 2.43061 5.46487C2.51749 5.59562 2.56684 5.77739 2.65587 5.9007C2.6859 5.94429 2.72344 5.97618 2.75991 6.01019C2.74061 5.46913 2.67303 4.92912 2.55718 4.3955C2.55182 4.38699 2.54646 4.37955 2.54109 4.37105C2.45421 4.2403 2.35767 4.12443 2.23646 4.06597C2.1174 4.00431 1.96937 4.01601 1.8428 3.97561C1.7173 3.93416 1.61218 3.84912 1.50921 3.75451C1.40838 3.65671 1.31077 3.55148 1.22818 3.39309C1.23461 3.37608 1.23998 3.35801 1.24641 3.33994C1.39765 3.29636 1.53066 3.3123 1.65938 3.34207C1.78702 3.37608 1.91145 3.42604 2.01657 3.52915C2.12169 3.63439 2.20321 3.79703 2.3094 3.89057C2.35553 3.93416 2.40594 3.96286 2.4585 3.99049C2.31906 3.46218 2.12812 2.94132 1.88678 2.43639C1.88249 2.44277 1.87713 2.44808 1.87283 2.45446C1.85245 2.4332 1.831 2.41301 1.81062 2.39175C1.70336 2.28651 1.5918 2.19828 1.47059 2.17171C1.34938 2.14088 1.21745 2.18871 1.09517 2.17915C0.972888 2.16852 0.859187 2.11005 0.745487 2.04096C0.63286 1.96761 0.521304 1.88576 0.411894 1.74757C0.412967 1.72843 0.415112 1.7093 0.416184 1.69123C0.543829 1.61363 0.667183 1.59769 0.79161 1.59769C0.914964 1.60088 1.03832 1.62107 1.15631 1.69761C1.2743 1.77627 1.38371 1.91552 1.49955 1.98143C1.55641 2.01651 1.61647 2.0367 1.67654 2.04946C1.6744 2.03883 1.67332 2.02714 1.67225 2.01651C1.28181 1.29792 0.785174 0.618665 0.181275 0C0.752995 0.547444 1.2389 1.15123 1.64007 1.79434C1.639 1.77521 1.63042 1.75288 1.63042 1.73375C1.62076 1.59556 1.61433 1.45843 1.6272 1.32875C1.66903 1.07469 1.73875 0.829139 1.92861 0.621854C1.94899 0.629295 1.96937 0.636736 1.98975 0.644177C2.19141 0.996029 2.24397 1.30324 2.24504 1.58387C2.23646 1.72099 2.20536 1.84643 2.16352 1.96655C2.1292 2.09092 2.06698 2.20041 1.98975 2.30139C1.97903 2.31627 1.9683 2.33009 1.9565 2.34497C2.18605 2.77761 2.37912 3.2262 2.53466 3.68435C2.53573 3.6801 2.53466 3.67478 2.53573 3.66947C2.56469 3.52596 2.59473 3.38246 2.64085 3.24959C2.74811 2.9934 2.87898 2.74998 3.1171 2.5682C3.13534 2.5799 3.15357 2.59053 3.17181 2.60222C3.28014 3.00616 3.2544 3.33675 3.18253 3.62801C3.13963 3.76833 3.0742 3.8927 3.00126 4.00963C2.93475 4.13187 2.84358 4.23392 2.7406 4.32428C2.73739 4.3264 2.73417 4.32959 2.73202 4.33172C2.85001 4.78668 2.93368 5.24908 2.98088 5.71574C3.04416 5.57861 3.10852 5.44255 3.18575 5.32031C3.35952 5.07582 3.55152 4.84727 3.8347 4.70058C3.84972 4.71546 3.86473 4.73034 3.87975 4.74522C3.88619 5.18318 3.77571 5.51909 3.62768 5.8061C3.54723 5.94322 3.44962 6.05909 3.34558 6.16539C3.2544 6.26956 3.14392 6.34823 3.027 6.41838C3.0388 6.87866 3.01735 7.34106 2.9605 7.80028C3.05489 7.68122 3.14821 7.56111 3.25118 7.458C3.49038 7.24114 3.74353 7.0413 4.06532 6.93819C4.07712 6.95626 4.08784 6.97433 4.09964 6.9924C3.99667 7.44205 3.79716 7.76626 3.5719 8.03095C3.45499 8.15638 3.32519 8.25631 3.19111 8.34454C3.08385 8.42426 2.96372 8.47528 2.84143 8.52099C2.75026 8.96958 2.62476 9.41285 2.46601 9.84868C2.58722 9.75301 2.70628 9.65521 2.83178 9.57336C3.13426 9.39797 3.44426 9.24064 3.80038 9.19387C3.80789 9.21407 3.81432 9.23427 3.82183 9.25446C3.60194 9.69348 3.31447 9.98581 3.01306 10.2112C2.85967 10.3164 2.69984 10.3919 2.53787 10.4557C2.41988 10.5088 2.29653 10.5322 2.17425 10.5545C1.98117 10.9733 1.75377 11.3815 1.49419 11.7748C1.63793 11.7068 1.78059 11.6345 1.92432 11.5814C2.28473 11.4644 2.64729 11.3635 3.02807 11.3794C3.03022 11.4017 3.03236 11.423 3.03451 11.4453C2.69448 11.8492 2.31798 12.0884 1.9447 12.2564C1.75699 12.3318 1.56928 12.3765 1.38264 12.4084C1.26036 12.435 1.14022 12.4307 1.01901 12.4318C0.817353 12.6869 0.599606 12.9335 0.367915 13.1716C0.245634 13.0504 0.122281 12.9282 0 12.807C0.267088 12.5519 0.514869 12.2829 0.744415 12.0044C0.756214 11.913 0.760503 11.8248 0.747631 11.7408C0.725106 11.5633 0.623206 11.4102 0.573864 11.2444C0.526668 11.0775 0.52345 10.901 0.525595 10.7225C0.530959 10.5428 0.542757 10.3632 0.60068 10.1644C0.614624 10.158 0.631787 10.1516 0.648949 10.1453Z" transform="translate(18.1567 5.76685)" fill="#ED6362"/>
<path d="M2.43383 0C2.17639 0.712209 1.70229 1.33406 1.01043 1.86875C0.65753 2.14194 0.325011 2.34285 0 2.52037V4.56664C0.735834 4.23073 1.4234 3.83105 2.00692 3.28998V11.727H4.2659V0H2.43383Z" transform="translate(11.8892 6.54175)" fill="#E95454"/>
</svg>
