<svg width="100" height="99" viewBox="0 0 100 99" fill="none" xmlns="http://www.w3.org/2000/svg">
<path d="M16.2867 9.89899V8.59899H14.9867H1.3V1.3H23.6867V23.4607H16.2867V9.89899Z" transform="translate(75.0134)" fill="white" stroke="#282F39" stroke-width="2.6"/>
<path d="M10 8.59899H8.7V9.89899V23.4607H1.3V1.3H23.7133V8.59899H10Z" fill="white" stroke="#282F39" stroke-width="2.6"/>
<path d="M14.9867 16.1353H16.2867V14.8353V1.3H23.6867V23.4343H1.3V16.1353H14.9867Z" transform="translate(75.0134 74.2556)" fill="white" stroke="#282F39" stroke-width="2.6"/>
<path d="M8.7 14.8353V16.1353H10H23.7133V23.4343H1.3V1.3H8.7V14.8353Z" transform="translate(0 74.2556)" fill="white" stroke="#282F39" stroke-width="2.6"/>
<path d="M1.3 34.6597C1.3 16.2784 16.4122 1.3 35.0133 1.3C53.6145 1.3 68.7 16.252 68.7 34.6333C68.7 53.0158 53.6132 67.9929 35.0133 67.9929C16.4109 67.9929 1.3 53.0397 1.3 34.6597ZM8.7 34.6333C8.7 49.0111 20.5212 60.6939 35.0133 60.6939C49.5073 60.6939 61.3 49.0093 61.3 34.6333C61.3 20.2573 49.5073 8.57259 35.0133 8.57259C20.5212 8.57259 8.7 20.2555 8.7 34.6333Z" transform="translate(14.9866 14.8616)" fill="white" stroke="#282F39" stroke-width="2.6"/>
<path d="M15.0133 29.7234C23.305 29.7234 30.0267 23.0696 30.0267 14.8617C30.0267 6.6538 23.305 0 15.0133 0C6.7217 0 0 6.6538 0 14.8617C0 23.0696 6.7217 29.7234 15.0133 29.7234Z" transform="translate(34.9866 34.6333)" fill="white"/>
<ellipse cx="15.3846" cy="15.3984" rx="15.3846" ry="15.3984" transform="translate(34.0659 34.0966)" fill="#1BE2BA"/>
</svg>
