<?xml version="1.0" encoding="UTF-8"?>
<svg width="39px" height="53px" viewBox="0 0 39 53" version="1.1" xmlns="http://www.w3.org/2000/svg" xmlns:xlink="http://www.w3.org/1999/xlink">
    <!-- Generator: Sketch 49.1 (51147) - http://www.bohemiancoding.com/sketch -->
    <title>ic-tutorial</title>
    <desc>Created with Sketch.</desc>
    <defs></defs>
    <g id="Page-1" stroke="none" stroke-width="1" fill="none" fill-rule="evenodd">
        <g id="Landing_horizontal" transform="translate(-1189.000000, -369.000000)" fill="#BFD4DB" fill-rule="nonzero">
            <g id="Group-18" transform="translate(1125.000000, 234.000000)">
                <g id="ic-tutorial" transform="translate(64.000000, 135.000000)">
                    <path d="M34.9546364,0 L33.17925,0 L26.9747045,0 L0.383795455,0 L0.383795455,15.02285 L0.383795455,32.6895167 L0.383795455,47.6964667 L3.92925,47.6964667 L3.92925,52.8798667 L7.47470455,50.5249 L11.0201591,52.8798667 L11.0201591,47.6964667 L26.9747045,47.6964667 L33.17925,47.6964667 L34.9546364,47.6964667 C36.9081818,47.6964667 38.4974318,46.11265 38.4974318,44.1666667 L38.4974318,32.6895167 L38.4974318,15.02285 L38.4974318,3.5298 C38.4965455,1.58381667 36.9072955,0 34.9546364,0 Z M2.15563636,1.76666667 L26.9738182,1.76666667 L26.9738182,15.02285 L2.15563636,15.02285 L2.15563636,1.76666667 Z M21.6556364,30.0306833 C21.1663636,30.0306833 20.7692727,30.4264167 20.7692727,30.9140167 C20.7692727,30.9140167 20.7710455,30.9202 20.7710455,30.92285 L17.2220455,30.92285 C17.2220455,30.9202 17.2238182,30.9166667 17.2238182,30.9166667 C17.2238182,30.4255333 16.8267273,30.0306833 16.3374545,30.0306833 C15.8481818,30.0306833 15.4510909,30.4264167 15.4510909,30.9140167 C15.4510909,30.9140167 15.4528636,30.9202 15.4528636,30.92285 L11.9038636,30.92285 C11.9038636,30.9202 11.9056364,30.9166667 11.9056364,30.9166667 C11.9056364,30.4255333 11.5085455,30.0306833 11.0192727,30.0306833 C10.53,30.0306833 10.1329091,30.4264167 10.1329091,30.9140167 C10.1329091,30.9140167 10.1346818,30.9202 10.1346818,30.92285 L6.58568182,30.92285 C6.58568182,30.9202 6.58745455,30.9166667 6.58745455,30.9166667 C6.58745455,30.4255333 6.19036364,30.0306833 5.70109091,30.0306833 C5.21181818,30.0306833 4.81472727,30.4264167 4.81472727,30.9140167 C4.81472727,30.9140167 4.8165,30.9202 4.8165,30.92285 L2.15563636,30.92285 L2.15563636,28.2640167 L2.15563636,22.9640167 L2.15563636,17.6640167 L2.15563636,16.7895167 L2.99679545,16.7895167 C2.52968182,16.81425 2.15563636,17.1923167 2.15563636,17.6640167 C2.15563636,18.1516167 2.55272727,18.54735 3.042,18.54735 C3.53127273,18.54735 3.92836364,18.1516167 3.92836364,17.6640167 C3.92836364,17.1923167 3.55431818,16.81425 3.08720455,16.7895167 L8.31497727,16.7895167 C7.84786364,16.81425 7.47381818,17.1923167 7.47381818,17.6640167 C7.47381818,18.1516167 7.87090909,18.54735 8.36018182,18.54735 C8.84945455,18.54735 9.24654545,18.1516167 9.24654545,17.6640167 C9.24654545,17.1923167 8.8725,16.81425 8.40538636,16.7895167 L13.6331591,16.7895167 C13.1660455,16.81425 12.792,17.1923167 12.792,17.6640167 C12.792,18.1516167 13.1890909,18.54735 13.6783636,18.54735 C14.1676364,18.54735 14.5647273,18.1516167 14.5647273,17.6640167 C14.5647273,17.1923167 14.1906818,16.81425 13.7235682,16.7895167 L18.9513409,16.7895167 C18.4842273,16.81425 18.1101818,17.1923167 18.1101818,17.6640167 C18.1101818,18.1516167 18.5072727,18.54735 18.9965455,18.54735 C19.4858182,18.54735 19.8829091,18.1516167 19.8829091,17.6640167 C19.8829091,17.1923167 19.5088636,16.81425 19.04175,16.7895167 L24.2695227,16.7895167 C23.8024091,16.81425 23.4283636,17.1923167 23.4283636,17.6640167 C23.4283636,18.1516167 23.8254545,18.54735 24.3147273,18.54735 C24.804,18.54735 25.2010909,18.1516167 25.2010909,17.6640167 C25.2010909,17.1923167 24.8270455,16.81425 24.3599318,16.7895167 L26.9738182,16.7895167 L26.9738182,19.4306833 C26.4845455,19.4306833 26.0874545,19.8264167 26.0874545,20.3140167 C26.0874545,20.8016167 26.4845455,21.19735 26.9738182,21.19735 L26.9738182,24.7306833 C26.4845455,24.7306833 26.0874545,25.1264167 26.0874545,25.6140167 C26.0874545,26.1016167 26.4845455,26.49735 26.9738182,26.49735 L26.9738182,30.0306833 C26.4845455,30.0306833 26.0874545,30.4264167 26.0874545,30.9140167 C26.0874545,30.9140167 26.0892273,30.9202 26.0892273,30.92285 L22.5402273,30.92285 C22.5402273,30.9202 22.542,30.9166667 22.542,30.9166667 C22.542,30.4255333 22.1449091,30.0306833 21.6556364,30.0306833 Z M9.24654545,49.5797333 L7.47381818,48.4013667 L5.70109091,49.5797333 L5.70109091,47.6964667 L9.24654545,47.6964667 L9.24654545,49.5797333 Z M11.0192727,45.9298 L3.92836364,45.9298 L2.15563636,45.9298 L2.15563636,32.6895167 L26.9738182,32.6895167 L26.9738182,45.9298 L11.0192727,45.9298 Z M28.7465455,45.9298 L28.7465455,32.6895167 L28.7465455,15.02285 L28.7465455,1.76666667 L31.4056364,1.76666667 L31.4056364,15.02285 L31.4056364,32.6895167 L31.4056364,45.9298 L28.7465455,45.9298 Z M34.9510909,18.54735 C35.4403636,18.54735 35.8374545,18.1516167 35.8374545,17.6640167 C35.8374545,17.1923167 35.4634091,16.81425 34.9962955,16.7895167 L36.7238182,16.7895167 L36.7238182,30.92285 L33.1783636,30.92285 L33.1783636,16.7895167 L34.9058864,16.7895167 C34.4387727,16.81425 34.0647273,17.1923167 34.0647273,17.6640167 C34.0647273,18.1516167 34.4618182,18.54735 34.9510909,18.54735 Z M36.7238182,44.1666667 C36.7238182,45.1392167 35.9296364,45.9298 34.95375,45.9298 L33.1783636,45.9298 L33.1783636,32.6895167 L36.7238182,32.6895167 L36.7238182,44.1666667 Z M33.1783636,15.02285 L33.1783636,1.76666667 L34.95375,1.76666667 C35.9296364,1.76666667 36.7238182,2.55813333 36.7238182,3.5298 L36.7238182,15.02285 L33.1783636,15.02285 Z" id="Shape"></path>
                    <ellipse id="Oval" cx="5.70109091" cy="20.3140167" rx="1" ry="1"></ellipse>
                    <ellipse id="Oval" cx="11.0192727" cy="20.3140167" rx="1" ry="1"></ellipse>
                    <ellipse id="Oval" cx="16.3374545" cy="20.3140167" rx="1" ry="1"></ellipse>
                    <ellipse id="Oval" cx="21.6556364" cy="20.3140167" rx="1" ry="1"></ellipse>
                    <ellipse id="Oval" cx="3.042" cy="22.9640167" rx="1" ry="1"></ellipse>
                    <ellipse id="Oval" cx="8.36018182" cy="22.9640167" rx="1" ry="1"></ellipse>
                    <ellipse id="Oval" cx="3.042" cy="28.2640167" rx="1" ry="1"></ellipse>
                    <ellipse id="Oval" cx="8.36018182" cy="28.2640167" rx="1" ry="1"></ellipse>
                    <ellipse id="Oval" cx="5.70109091" cy="25.6140167" rx="1" ry="1"></ellipse>
                    <ellipse id="Oval" cx="11.0192727" cy="25.6140167" rx="1" ry="1"></ellipse>
                    <ellipse id="Oval" cx="13.6783636" cy="22.9640167" rx="1" ry="1"></ellipse>
                    <ellipse id="Oval" cx="18.9965455" cy="22.9640167" rx="1" ry="1"></ellipse>
                    <ellipse id="Oval" cx="13.6783636" cy="28.2640167" rx="1" ry="1"></ellipse>
                    <ellipse id="Oval" cx="18.9965455" cy="28.2640167" rx="1" ry="1"></ellipse>
                    <ellipse id="Oval" cx="16.3374545" cy="25.6140167" rx="1" ry="1"></ellipse>
                    <ellipse id="Oval" cx="21.6556364" cy="25.6140167" rx="1" ry="1"></ellipse>
                    <ellipse id="Oval" cx="24.3147273" cy="22.9640167" rx="1" ry="1"></ellipse>
                    <ellipse id="Oval" cx="24.3147273" cy="28.2640167" rx="1" ry="1"></ellipse>
                    <ellipse id="Oval" cx="34.9510909" cy="22.9640167" rx="1" ry="1"></ellipse>
                    <ellipse id="Oval" cx="34.9510909" cy="28.2640167" rx="1" ry="1"></ellipse>
                </g>
            </g>
        </g>
    </g>
</svg>