<svg width="100" height="112" viewBox="0 0 100 112" fill="none" xmlns="http://www.w3.org/2000/svg">
<ellipse cx="25.3012" cy="25.4455" rx="25.3012" ry="25.4455" transform="translate(47.5903 58.7671)" fill="#1AEEC2"/>
<path d="M17.7711 28.5185C16.3253 41.3624 5.32129 46.7949 0 47.9056C0.401606 48.5114 1.80723 49.6625 4.21687 49.4201C7.22892 49.1172 17.7711 43.6646 21.988 36.6974C26.2048 29.7302 25.9036 19.128 23.1928 12.1607C20.4819 5.19353 10.8434 -0.561997 5.42169 0.0438474C12.3494 2.46723 19.5783 12.4637 17.7711 28.5185Z" transform="translate(72.5903 59.9348)" fill="black" fill-opacity="0.05"/>
<path d="M18.3735 0L0 40.2887H37.0482L48.494 14.8432L18.3735 0Z" transform="translate(26.5059 2.72607)" fill="#1AEEC2"/>
<path d="M23.494 2.7263L5.72289 38.7741L0 37.2594L17.4699 0L23.494 2.7263Z" transform="translate(27.7109 3.93799)" fill="black" fill-opacity="0.05"/>
<path d="M88.8889 61.3487V59.4536V55.7377L72.0037 28.6307L78.0074 15.7032L44.4444 0L32.3556 26.0109H18.5185L0 55.7377V59.4536V104.044H53.3815C58.3333 108.64 64.9407 111.475 72.2222 111.475C87.5667 111.475 100 99.0013 100 83.6066C100 74.499 95.6222 66.4357 88.8889 61.3487ZM46.237 4.93828L73.0889 17.5017L62.2222 40.8743H29.5333L46.237 4.93828ZM20.5741 29.7268H30.6296L25.4519 40.8743H18.5185V44.5902H70.3704V40.8743H66.3111L70.137 32.6475L84.5185 55.7377H4.37037L20.5741 29.7268ZM3.7037 59.4536H58.4074C50.0704 64.2656 44.4444 73.2691 44.4444 83.6066C44.4444 89.8901 46.5407 95.6682 50.037 100.328H3.7037V59.4536ZM72.2222 107.76C58.9259 107.76 48.1481 96.9464 48.1481 83.6066C48.1481 70.2667 58.9259 59.4536 72.2222 59.4536C85.5185 59.4536 96.2963 70.2667 96.2963 83.6066C96.2963 96.9464 85.5185 107.76 72.2222 107.76Z" fill="white"/>
<path d="M10.4741 18.3935L2.6185 10.5084L1.1981e-05 13.1393L10.4741 23.6477L31.4222 2.62719L28.8037 -2.54013e-05L10.4741 18.3935Z" transform="translate(56.5112 71.7827)" fill="white"/>
</svg>
