<svg xmlns="http://www.w3.org/2000/svg" width="56" height="59" viewBox="0 0 56 59">
    <g fill="none" fill-rule="nonzero">
        <path fill="#00EDC3" d="M54 30c.553 0 1 .43 1 .962v23.076c0 .532-.448.962-1 .962H18c-.552 0-1-.43-1-.962V30.962c0-.531.448-.962 1-.962h36z"/>
        <path fill="#282F39" d="M35 9v5c0 3.86-3.14 7-7 7s-7-3.14-7-7V9h-2v5c0 4.962 4.038 9 9 9 4.963 0 9-4.038 9-9V9h-2z"/>
        <path fill="#282F39" d="M55.792 50.298l-5.31-21.548c-.565-2.212-2.53-3.717-4.709-3.747l-11.8-.928V20H32v5c0 .522.397.956.91.997L45.7 27h.005c1.35 0 2.528.925 2.865 2.242l5.308 21.542c.098.397.148.806.148 1.216 0 2.757-2.214 5-4.934 5v2c3.808 0 6.907-3.14 6.908-7 0-.574-.07-1.147-.208-1.702zM22.027 20v4.075L10.307 25h-.01c-2.249 0-4.214 1.541-4.779 3.758L.211 50.297a7.034 7.034 0 0 0 .773 5.3A6.864 6.864 0 0 0 6.91 59v-2a4.904 4.904 0 0 1-4.233-2.431 5.028 5.028 0 0 1-.552-3.787L7.43 29.25c.339-1.327 1.52-2.253 2.95-2.253l12.71-1A.995.995 0 0 0 24 25v-5h-1.973zM32 0h-8c-2.757 0-5 2.243-5 5v6a1 1 0 0 0 1 1h16a1 1 0 0 0 1-1V5c0-2.757-2.243-5-5-5zm3 10H21V5c0-1.654 1.346-3 3-3h8c1.654 0 3 1.346 3 3v5z"/>
        <path fill="#282F39" d="M32 6h-8c-2.757 0-5 2.243-5 5a1 1 0 0 0 1 1h16a1 1 0 0 0 1-1c0-2.757-2.243-5-5-5zm-10.828 4A3.004 3.004 0 0 1 24 8h8c1.304 0 2.416.836 2.83 2H21.171z"/>
        <path fill="#282F39" d="M28 15v-4h-2v5a1 1 0 0 0 1 1h2v-2h-1zM20 53h-8v-2c0-1.654-1.346-3-3-3s-3 1.346-3 3v7a1 1 0 0 0 1 1h9c2.757 0 5-2.243 5-5a1 1 0 0 0-1-1zm-4 4H8v-6a1.001 1.001 0 0 1 2 0v3a1 1 0 0 0 1 1h7.829A3.005 3.005 0 0 1 16 57zM3 42h7v2H3zM46 42h7v2h-7z"/>
        <path fill="#282F39" d="M46 29H10c-.552 0-1 .43-1 .962v23.076c0 .532.448.962 1 .962h36c.552 0 1-.43 1-.962V29.962c0-.531-.447-.962-1-.962zm-1 23.077H11V30.923h34v21.154z"/>
        <path fill="#282F39" d="M41 50h2v2h-2zM37 50h2v2h-2zM31.637 25l-4.136 3.84L23.363 25 22 26.265l4.82 4.473a1 1 0 0 0 .68.262 1 1 0 0 0 .682-.262L33 26.265 31.637 25z"/>
        <path fill="#282F39" d="M48 48c-1.654 0-3 1.346-3 3v2h-8c-.553 0-1 .447-1 1 0 2.757 2.243 5 5 5h9a1 1 0 0 0 1-1v-7c0-1.654-1.346-3-3-3zm1 9h-8a3.006 3.006 0 0 1-2.83-2H46c.553 0 1-.447 1-1v-3a1 1 0 0 1 2 0v6zM10 36h35v2H10z"/>
        <path fill="#282F39" d="M32 29h-8a1 1 0 0 0-1 1v13a1 1 0 0 0 1 1h8a1 1 0 0 0 1-1V30a1 1 0 0 0-1-1zm-1 13h-6V31h6v11z"/>
    </g>
</svg>
