<svg xmlns="http://www.w3.org/2000/svg" width="83" height="83" viewBox="0 0 83 83">
    <g fill="none" fill-rule="nonzero">
        <path fill="#FFF" d="M60.489 38.621c0 4.399-1.903 8.461-5.247 11.252v.7h2.623v2.657h-2.623v6.64H36.875v-6.64h-2.623v-2.656h2.623v-.701c-3.343-2.79-5.247-6.853-5.247-11.252 0-8.054 6.474-14.608 14.43-14.608 7.957 0 14.431 6.554 14.431 14.608z"/>
        <g fill="#282F39">
            <path d="M77.702 18.984a6.63 6.63 0 0 0-6.622-6.622 6.63 6.63 0 0 0-6.623 6.622 6.63 6.63 0 0 0 6.623 6.622 6.63 6.63 0 0 0 6.622-6.622zm-6.622 3.973a3.978 3.978 0 0 1-3.974-3.973 3.978 3.978 0 0 1 3.974-3.973 3.978 3.978 0 0 1 3.973 3.973 3.978 3.978 0 0 1-3.973 3.973zM83 32.292c0-3.687-2.97-6.686-6.622-6.686H65.782c-3.652 0-6.622 3-6.622 6.686v17.382h2.887l-1.854 9.36h4.264v13.37h13.245v-13.37h4.265l-1.854-9.36H83V32.292zM69.755 69.73h-2.649v-2.674h2.65v2.674zm0-5.348h-2.649v-5.349h2.65v5.349zm5.298 5.348h-2.649v-2.674h2.65v2.674zm0-5.348h-2.649v-5.349h2.65v5.349zM80.351 47h-.768l-1.88-9.492v-5.216h-2.65v5.348l3.682 18.72H63.424l3.657-18.458.025-5.61h-2.649v5.216L62.577 47h-.768V32.292c0-2.212 1.782-4.011 3.973-4.011h10.596c2.19 0 3.973 1.8 3.973 4.01V47zM18.543 18.984a6.63 6.63 0 0 0-6.623-6.622 6.63 6.63 0 0 0-6.622 6.622 6.63 6.63 0 0 0 6.622 6.622 6.63 6.63 0 0 0 6.623-6.622zm-6.623 3.973a3.978 3.978 0 0 1-3.973-3.973 3.978 3.978 0 0 1 3.973-3.973 3.978 3.978 0 0 1 3.974 3.973 3.978 3.978 0 0 1-3.974 3.973zM23.84 32.292c0-3.687-2.97-6.686-6.622-6.686H6.622c-3.651 0-6.622 3-6.622 6.686v17.382h5.298v22.73h13.245v-22.73h5.297V32.292zM10.596 69.73h-2.65v-2.674h2.65v2.674zm5.298 0h-2.65v-2.674h2.65v2.674zm0-22.73v17.382h-2.65V51.01h-2.648v13.37h-2.65V44.327h7.948V47zm5.297 0h-2.648V32.292h-2.65v9.36H7.948v-9.36h-2.65V47H2.65V32.292c0-2.212 1.783-4.011 3.973-4.011h10.596c2.19 0 3.973 1.8 3.973 4.01V47zM55.628 38.59c0-8.133-6.537-14.75-14.57-14.75-8.032 0-14.569 6.617-14.569 14.75 0 4.44 1.922 8.542 5.298 11.359v.708h-2.649v2.681h2.65v6.705H50.33v-6.705h2.649v-2.681h-2.65v-.708c3.377-2.817 5.299-6.919 5.299-11.36zM47.68 57.36H34.436v-4.022h13.245v4.023zm-7.947-18.77c0-.74.593-1.341 1.325-1.341.73 0 1.324.6 1.324 1.34 0 .74-.593 1.341-1.324 1.341-.732 0-1.325-.6-1.325-1.34zm8.474 9.637l-.527.401v2.029h-5.298v-8.292a4.014 4.014 0 0 0 2.649-3.776c0-2.217-1.783-4.022-3.973-4.022-2.191 0-3.974 1.805-3.974 4.022a4.014 4.014 0 0 0 2.649 3.776v8.292h-5.298v-2.029l-.527-.402a12.016 12.016 0 0 1-4.77-9.637c0-6.654 5.346-12.067 11.92-12.067 6.573 0 11.92 5.413 11.92 12.067a12.02 12.02 0 0 1-4.771 9.638zM30.474 14.112v.457h2.224a9.198 9.198 0 0 0 4.392 4.396v2.226h7.939v-2.226a9.198 9.198 0 0 0 4.391-4.396h2.224v-.455a28.565 28.565 0 0 1 8.358 5.398l1.807-1.938c-2.915-2.723-6.415-4.886-10.165-6.312v-4.64H49.42a9.198 9.198 0 0 0-4.391-4.396V0h-7.94v2.226a9.198 9.198 0 0 0-4.39 4.396h-2.225v4.64c-3.75 1.426-7.25 3.59-10.165 6.311l1.807 1.938c2.42-2.261 5.284-4.1 8.358-5.399zm2.646-4.84h1.398l.31-.883a6.585 6.585 0 0 1 4.027-4.03l.881-.311v-1.4h2.646v1.4l.882.31A6.585 6.585 0 0 1 47.29 8.39l.31.882h1.398v2.65h-1.397l-.311.881a6.585 6.585 0 0 1-4.026 4.03l-.882.312v1.399h-2.646v-1.4l-.881-.31a6.585 6.585 0 0 1-4.026-4.03l-.311-.883H33.12V9.271zM60.005 63.056a28.468 28.468 0 0 1-9.714 6.09c-1.45-3.774-5.036-6.455-9.232-6.455-4.197 0-7.783 2.681-9.233 6.454a28.456 28.456 0 0 1-9.714-6.09l-1.803 1.981c3.142 3 6.887 5.31 10.88 6.748-.035.349-.055.704-.055 1.062 0 5.6 4.452 10.154 9.925 10.154 5.473 0 9.924-4.554 9.924-10.154 0-.358-.02-.713-.056-1.062a31.085 31.085 0 0 0 10.882-6.748l-1.804-1.98zM41.059 80.29c-4.013 0-7.278-3.341-7.278-7.446 0-4.105 3.265-7.446 7.278-7.446 4.012 0 7.277 3.341 7.277 7.446 0 4.105-3.265 7.446-7.277 7.446z"/>
            <path d="M41.059 15.01a3.978 3.978 0 0 0 3.973-3.973 3.978 3.978 0 0 0-3.973-3.973 3.978 3.978 0 0 0-3.974 3.973 3.978 3.978 0 0 0 3.974 3.974zm0-5.297a1.325 1.325 0 1 1-.001 2.65 1.325 1.325 0 0 1 0-2.65zM42.592 67.99h-2.858v5.81l3.277 3.02 2.02-1.862-2.439-2.248z"/>
        </g>
    </g>
</svg>
