<svg xmlns="http://www.w3.org/2000/svg" width="89" height="83" viewBox="0 0 89 83">
    <g fill="#FFF" fill-rule="nonzero">
        <path d="M89 60.811V34.073a5.858 5.858 0 0 0-5.853-5.85H46.488v-.686c0-.902-.32-1.73-.85-2.38a3.757 3.757 0 0 0 .786-1.683 4.949 4.949 0 0 0 2.442-4.256c0-.834-.215-1.65-.618-2.377a4.9 4.9 0 0 0 .618-2.376c0-1.76-.943-3.355-2.406-4.235a4.966 4.966 0 0 0-4.253-5.43 4.953 4.953 0 0 0-4.247-2.423c-.227 0-.455.017-.684.052a5.542 5.542 0 0 0-3.478-1.24c-.17 0-.339.008-.51.025a6.102 6.102 0 0 0-7.304 0 5.513 5.513 0 0 0-3.97 1.187 4.958 4.958 0 0 0-3.76 2.4A4.966 4.966 0 0 0 14 10.23a4.953 4.953 0 0 0-2.406 4.234c0 .834.215 1.65.618 2.376a4.898 4.898 0 0 0-.618 2.377c0 1.767.951 3.377 2.443 4.256.066.348.181.682.338.992a3.763 3.763 0 0 0-1.592 3.07v2.377a3.775 3.775 0 0 0 3.772 3.77h.62l.101.632a6.144 6.144 0 0 0 2.136 3.751l.507.422v3.93a.98.98 0 0 1-.696.941L8.801 46.564a6.116 6.116 0 0 0-4.342 5.874v17.286c0 1.717.596 3.298 1.589 4.549H2.88A2.882 2.882 0 0 0 0 77.151v2.97A2.882 2.882 0 0 0 2.88 83h83.24A2.882 2.882 0 0 0 89 80.122v-2.97a2.882 2.882 0 0 0-2.88-2.879H70.99l-1.017-7.613h13.174A5.858 5.858 0 0 0 89 60.81zM16.555 30.898a.986.986 0 0 1-.985-.984v-2.377c0-.36.196-.672.485-.843l.674 4.204h-.174zm.206-8.073l.014-.127a1.393 1.393 0 0 0-.929-1.441 2.168 2.168 0 0 1-1.465-2.039c0-.673.309-1.157.568-1.444a1.392 1.392 0 0 0 0-1.865 2.14 2.14 0 0 1-.568-1.444c0-.97.662-1.827 1.61-2.084a1.393 1.393 0 0 0 .93-1.863 2.152 2.152 0 0 1-.162-.807c0-1.18.948-2.144 2.123-2.171.06.008.12.014.18.018a1.394 1.394 0 0 0 1.399-.932 2.17 2.17 0 0 1 1.995-1.463 1.402 1.402 0 0 0 1.081-.395 2.753 2.753 0 0 1 1.936-.794c.188 0 .388.024.61.074.45.101.922-.027 1.26-.344a3.347 3.347 0 0 1 2.293-.918c.847 0 1.661.326 2.293.919.337.316.809.444 1.26.343.221-.05.42-.074.609-.074.778 0 1.502.326 2.04.918.372.41.953.56 1.478.384.227-.077.438-.114.644-.114A2.17 2.17 0 0 1 40 6.626c.205.588.775.969 1.398.932a2.46 2.46 0 0 0 .18-.019A2.176 2.176 0 0 1 43.7 9.711c0 .27-.054.542-.16.807a1.391 1.391 0 0 0 .928 1.863 2.17 2.17 0 0 1 1.61 2.084c0 .673-.308 1.157-.567 1.444a1.392 1.392 0 0 0 0 1.865c.259.287.567.77.567 1.444 0 .914-.588 1.733-1.464 2.038-.604.21-.988.805-.93 1.441.004.043.01.086.015.128a.982.982 0 0 1-.733.9c-.044.012-1.377.042-1.377.042l-.802-4.805a1.394 1.394 0 0 0-1.478-1.16 3.165 3.165 0 0 0-.192.022l-.008.001a2.171 2.171 0 0 1-1.773-.975 1.394 1.394 0 0 0-2.322 0 2.171 2.171 0 0 1-3.624 0 1.394 1.394 0 0 0-2.322 0 2.171 2.171 0 0 1-3.624 0 1.394 1.394 0 0 0-2.322-.001c-.399.6-1.06.963-1.773.976l-.008-.001a3.14 3.14 0 0 0-.192-.022 1.394 1.394 0 0 0-1.479 1.16l-.8 4.805s-1.333-.03-1.378-.041a.981.981 0 0 1-.732-.901zm26.94 4.712v.687h-.73l.245-1.53a.981.981 0 0 1 .485.843zm-24.846-.984h.189a2.575 2.575 0 0 0 2.547-2.157l.646-3.872a4.94 4.94 0 0 0 2.047-.903c.847.635 1.884.99 2.973.99a4.947 4.947 0 0 0 2.973-.99c.846.635 1.884.99 2.973.99a4.947 4.947 0 0 0 2.973-.99 4.94 4.94 0 0 0 2.047.903l.646 3.872c.152.912.765 1.64 1.577 1.967l-.298 1.86h-1.594a5.858 5.858 0 0 0-5.853 5.85v6.18c-.25.098-.519.151-.79.151H27.36a2.178 2.178 0 0 1-1.392-.503l-4.773-3.975a3.36 3.36 0 0 1-1.168-2.05l-1.172-7.323zm1.188 19.468a3.75 3.75 0 0 0 2.662-3.602v-1.61l1.479 1.232a4.972 4.972 0 0 0 3.176 1.149h4.552c.265 0 .529-.023.79-.065v8.96A15.281 15.281 0 0 1 18.3 46.558l1.743-.536zM7.246 52.438c0-1.485.955-2.776 2.374-3.212l5.85-1.799a18.07 18.07 0 0 0 17.232 7.475v5.909a5.857 5.857 0 0 0 5.852 5.849h6.039v7.52c0 .031.003.062.005.093h-7.623v-1.579a5.858 5.858 0 0 0-5.853-5.849H16.258a.093.093 0 0 1-.093-.092V57.84a1.393 1.393 0 0 0-2.787 0v8.913a2.882 2.882 0 0 0 2.88 2.878h9.011v4.642H11.8a4.556 4.556 0 0 1-4.553-4.55V52.439zm26.942 20.257v1.578h-6.132v-4.642h3.066a3.068 3.068 0 0 1 3.066 3.064zm51.932 4.363c.051 0 .093.042.093.093v2.97a.093.093 0 0 1-.093.093H2.88a.093.093 0 0 1-.093-.092V77.15c0-.051.042-.093.093-.093h83.24zm-38.745-2.785c.002-.03.005-.062.005-.093v-7.52h4.348l-1.016 7.613h-3.337zm6.149 0l2.418-18.127a1.584 1.584 0 0 1 1.566-1.37h6.686c.788 0 1.461.59 1.565 1.37l2.419 18.127H53.524zm16.245-10.398c-.056 0-.11.004-.166.01l-1.081-8.107a4.38 4.38 0 0 0-4.328-3.787h-6.686a4.38 4.38 0 0 0-4.328 3.787l-1.082 8.108a1.412 1.412 0 0 0-.166-.011H38.554a3.068 3.068 0 0 1-3.066-3.064V34.073a3.068 3.068 0 0 1 3.066-3.064h44.593a3.068 3.068 0 0 1 3.066 3.064V60.81a3.068 3.068 0 0 1-3.066 3.064H69.77z"/>
        <path d="M60.5 40a4.505 4.505 0 0 0-4.5 4.5c0 2.481 2.019 4.5 4.5 4.5s4.5-2.019 4.5-4.5-2.019-4.5-4.5-4.5zm0 6.128a1.63 1.63 0 0 1-1.628-1.628c0-.898.73-1.628 1.628-1.628.898 0 1.628.73 1.628 1.628a1.63 1.63 0 0 1-1.628 1.628z"/>
    </g>
</svg>
